<svg width="157" height="28" viewBox="0 0 157 28" fill="none" xmlns="http://www.w3.org/2000/svg">
<path d="M91.2309 0.00695364C91.299 0.00637542 91.299 0.00637542 91.3685 0.00578551C91.4647 0.00512651 91.5608 0.00461357 91.6569 0.004237C91.7537 0.00369042 91.8505 0.00271947 91.9473 0.00129884C92.5698 -0.00781866 93.1258 0.034335 93.7241 0.20936C93.77 0.221515 93.816 0.233669 93.8633 0.246192C94.4198 0.393697 94.9235 0.650672 95.3968 0.973469C95.4441 1.00302 95.4915 1.03257 95.5402 1.06301C95.8958 1.31468 96.2163 1.56994 96.4705 1.92655C96.5427 2.02748 96.5427 2.02748 96.6381 2.11777C96.7402 2.22036 96.8199 2.32614 96.9023 2.44497C96.9429 2.50306 96.9429 2.50306 96.9844 2.56231C97.1649 2.83884 97.3161 3.12909 97.4638 3.42399C97.4899 3.47519 97.4899 3.47519 97.5165 3.52743C97.643 3.77968 97.643 3.77968 97.643 3.88663C97.7534 3.88663 97.8638 3.88663 97.9776 3.88663C97.9874 3.84822 97.9973 3.8098 98.0074 3.77023C98.1483 3.40549 98.4094 3.09609 98.6467 2.78823C98.6744 2.75215 98.7021 2.71608 98.7307 2.67891C98.8136 2.57162 98.8972 2.46489 98.9812 2.35842C99.0046 2.32844 99.028 2.29845 99.0521 2.26757C99.1059 2.20045 99.1627 2.13584 99.2201 2.07187C99.2517 2.07187 99.2832 2.07187 99.3157 2.07187C99.3348 2.02895 99.3348 2.02895 99.3543 1.98515C99.4128 1.87822 99.4669 1.81919 99.5586 1.74019C99.5874 1.71538 99.6162 1.69057 99.6459 1.66501C99.6759 1.63971 99.706 1.61441 99.7369 1.58834C99.7664 1.56267 99.7959 1.537 99.8262 1.51055C99.9831 1.37691 100.119 1.27405 100.319 1.21225C100.319 1.18073 100.319 1.14921 100.319 1.11674C100.398 1.10098 100.477 1.08522 100.558 1.06898C100.558 1.03746 100.558 1.00594 100.558 0.973469C101.349 0.539086 102.11 0.247785 102.996 0.06609C103.037 0.0574444 103.079 0.0487989 103.122 0.0398914C103.343 0.010248 103.561 0.00865523 103.784 0.00695364C103.832 0.00656816 103.881 0.00618268 103.931 0.00578551C104.034 0.0051263 104.137 0.00461345 104.24 0.004237C104.343 0.00369007 104.447 0.00271855 104.551 0.00129884C105.195 -0.00750438 105.769 0.0248735 106.389 0.20936C106.457 0.228219 106.524 0.246967 106.592 0.265605C107.268 0.455615 107.942 0.769412 108.492 1.21225C108.492 1.24377 108.492 1.27529 108.492 1.30777C108.532 1.3122 108.532 1.3122 108.572 1.31672C108.73 1.37213 108.809 1.47279 108.922 1.59431C108.961 1.63371 109.001 1.67311 109.041 1.7137C109.081 1.7531 109.12 1.7925 109.161 1.83309C109.217 1.88628 109.217 1.88628 109.274 1.94054C109.406 2.07826 109.513 2.22426 109.618 2.38229C109.717 2.52974 109.815 2.67482 109.93 2.81061C110.038 2.95453 110.096 3.09904 110.164 3.26579C110.193 3.32434 110.223 3.38254 110.254 3.44041C110.601 4.10312 110.808 4.78304 110.977 5.51036C110.985 5.542 110.993 5.57363 111.001 5.60623C111.078 5.92732 111.113 6.25081 111.147 6.57892C111.153 6.63316 111.159 6.68739 111.165 6.74327C111.255 7.59158 111.271 8.43909 111.271 9.29151C111.272 9.39939 111.272 9.50728 111.272 9.61516C111.273 9.90521 111.273 10.1953 111.273 10.4853C111.273 10.6668 111.274 10.8482 111.274 11.0297C111.274 11.5334 111.275 12.0371 111.275 12.5409C111.275 12.5729 111.275 12.6049 111.275 12.6379C111.275 12.67 111.275 12.7022 111.275 12.7352C111.275 12.8003 111.275 12.8653 111.275 12.9304C111.275 12.9626 111.275 12.9949 111.275 13.0281C111.275 13.5529 111.276 14.0776 111.277 14.6023C111.278 15.1428 111.279 15.6832 111.279 16.2237C111.279 16.5265 111.279 16.8292 111.28 17.132C111.281 17.4161 111.281 17.7002 111.281 17.9843C111.281 18.0885 111.281 18.1927 111.281 18.297C111.282 18.4391 111.282 18.5813 111.281 18.7235C111.282 18.7647 111.282 18.806 111.282 18.8486C111.28 19.0861 111.252 19.2496 111.12 19.4553C110.857 19.66 110.527 19.6201 110.209 19.6193C110.149 19.6196 110.088 19.6198 110.026 19.6201C109.898 19.6204 109.771 19.6204 109.643 19.6199C109.48 19.6194 109.317 19.6203 109.155 19.6217C108.998 19.6228 108.842 19.6225 108.686 19.6223C108.628 19.6228 108.569 19.6234 108.509 19.6239C108.205 19.6214 108.002 19.6195 107.775 19.4076C107.721 19.2992 107.721 19.2405 107.721 19.1203C107.721 19.0799 107.72 19.0395 107.72 18.998C107.72 18.9534 107.72 18.9088 107.72 18.8628C107.72 18.8156 107.72 18.7684 107.72 18.7198C107.72 18.5607 107.72 18.4015 107.719 18.2423C107.719 18.1286 107.719 18.0149 107.719 17.9011C107.718 17.6555 107.718 17.4099 107.718 17.1643C107.717 16.7753 107.716 16.3862 107.715 15.9972C107.715 15.8639 107.714 15.7307 107.714 15.5975C107.714 15.5642 107.714 15.5309 107.714 15.4966C107.713 15.1172 107.712 14.7378 107.711 14.3584C107.711 14.3063 107.711 14.3063 107.711 14.2533C107.709 13.6933 107.708 13.1332 107.708 12.5732C107.707 11.9973 107.705 11.4214 107.704 10.8454C107.703 10.5225 107.702 10.1995 107.702 9.8766C107.702 9.57202 107.701 9.26746 107.7 8.96289C107.699 8.85178 107.699 8.74067 107.699 8.62956C107.7 7.958 107.656 7.3174 107.536 6.65653C107.525 6.59376 107.514 6.53098 107.504 6.4682C107.391 5.83462 107.126 5.23337 106.771 4.6985C106.727 4.62315 106.727 4.62315 106.682 4.54627C106.563 4.38899 106.427 4.27374 106.275 4.15004C106.249 4.12616 106.224 4.10227 106.198 4.07766C106.198 4.04614 106.198 4.01462 106.198 3.98215C106.173 3.97131 106.148 3.96048 106.123 3.94931C106.022 3.89521 105.939 3.83825 105.848 3.77023C105.687 3.65403 105.523 3.57375 105.337 3.50458C105.298 3.48937 105.259 3.47417 105.218 3.4585C104.721 3.27169 104.26 3.1485 103.727 3.13446C103.678 3.13285 103.628 3.13123 103.576 3.12957C102.98 3.11361 102.421 3.12884 101.849 3.31355C101.81 3.32383 101.771 3.33411 101.731 3.34471C100.833 3.585 100.105 4.15781 99.5547 4.88953C99.5329 4.91821 99.5111 4.9469 99.4886 4.97646C98.8716 5.81012 98.5896 6.87764 98.5033 7.8982C98.4975 7.94566 98.4975 7.94566 98.4915 7.99408C98.436 8.4854 98.449 8.98011 98.4495 9.47377C98.4494 9.58018 98.4493 9.6866 98.4492 9.79302C98.449 10.0213 98.4489 10.2497 98.4489 10.478C98.4488 10.839 98.4482 11.2 98.4475 11.561C98.4473 11.622 98.4472 11.6831 98.4471 11.7459C98.4468 11.8706 98.4466 11.9954 98.4463 12.1201C98.4457 12.4397 98.4451 12.7594 98.4446 13.0791C98.4445 13.1112 98.4445 13.1432 98.4444 13.1762C98.4436 13.6965 98.4434 14.2168 98.4435 14.7371C98.4436 15.2721 98.4427 15.8072 98.4411 16.3422C98.4402 16.6423 98.4398 16.9423 98.4403 17.2424C98.4409 17.5243 98.4403 17.8062 98.4389 18.088C98.4386 18.1915 98.4387 18.295 98.4392 18.3984C98.4399 18.5396 98.4391 18.6807 98.4379 18.8218C98.4385 18.8628 98.439 18.9038 98.4396 18.946C98.4364 19.1445 98.4206 19.2738 98.2953 19.4323C98.1179 19.5985 97.9934 19.6048 97.7592 19.6071C97.7046 19.6077 97.6501 19.6083 97.5939 19.6089C97.5054 19.6095 97.5054 19.6095 97.4151 19.61C97.3544 19.6104 97.2938 19.6108 97.2313 19.6112C97.1029 19.6118 96.9745 19.6123 96.846 19.6127C96.6819 19.6132 96.5179 19.6149 96.3538 19.6168C96.1968 19.6183 96.0398 19.6185 95.8828 19.6189C95.7947 19.6202 95.7947 19.6202 95.7049 19.6215C95.1938 19.6202 95.1938 19.6202 94.9667 19.4076C94.8843 19.2429 94.9119 19.0528 94.912 18.8716C94.9118 18.8253 94.9117 18.7791 94.9115 18.7314C94.911 18.5754 94.9108 18.4195 94.9106 18.2635C94.9103 18.152 94.91 18.0406 94.9097 17.9291C94.9089 17.6884 94.9084 17.4477 94.9079 17.2071C94.9073 16.8581 94.9063 16.5091 94.9051 16.1601C94.9033 15.5927 94.9017 15.0252 94.9001 14.4578C94.9001 14.4238 94.9 14.3898 94.8999 14.3548C94.8986 13.8741 94.8974 13.3935 94.8964 12.9128C94.8963 12.8791 94.8962 12.8453 94.8961 12.8106C94.896 12.76 94.896 12.76 94.8959 12.7085C94.8946 12.1441 94.893 11.5798 94.891 11.0155C94.8898 10.6373 94.8889 10.2591 94.8884 9.88088C94.8879 9.6442 94.8871 9.40753 94.8861 9.17086C94.8858 9.06197 94.8856 8.95307 94.8856 8.84417C94.8853 8.05149 94.8635 7.2579 94.6919 6.48042C94.6839 6.44355 94.6759 6.40669 94.6677 6.3687C94.4993 5.63235 94.202 4.99737 93.7241 4.41196C93.6941 4.37244 93.6641 4.33291 93.6332 4.29219C93.5291 4.16857 93.4215 4.07522 93.294 3.97618C93.2536 3.94453 93.2132 3.91289 93.1715 3.88029C93.1331 3.85086 93.0947 3.82144 93.055 3.79112C93.0051 3.75215 93.0051 3.75215 92.9542 3.7124C92.8231 3.61869 92.6784 3.56324 92.5293 3.50458C92.4732 3.48192 92.417 3.45927 92.3591 3.43593C92.2885 3.41073 92.2178 3.3859 92.147 3.36131C92.1032 3.34487 92.0594 3.32843 92.0143 3.3115C91.1134 3.00924 89.942 3.02215 89.0406 3.31355C89.0005 3.32439 88.9604 3.33522 88.919 3.34638C88.2955 3.51641 87.7246 3.85659 87.2723 4.31644C87.2122 4.36298 87.2122 4.36298 87.1509 4.41046C86.6507 4.82307 86.2829 5.52567 86.0775 6.1312C86.0665 6.16293 86.0554 6.19466 86.0441 6.22734C85.8899 6.67749 85.7717 7.12455 85.7114 7.59696C85.7054 7.6443 85.6993 7.69164 85.6931 7.74042C85.6309 8.2664 85.6273 8.78937 85.629 9.31834C85.6288 9.4268 85.6285 9.53526 85.6282 9.64372C85.6276 9.87469 85.6275 10.1057 85.6277 10.3366C85.6281 10.7019 85.6273 11.0671 85.6264 11.4324C85.6252 11.9442 85.6244 12.456 85.624 12.9678C85.624 13.0001 85.624 13.0324 85.6239 13.0657C85.6237 13.3282 85.6236 13.5907 85.6234 13.8533C85.6233 14.084 85.6231 14.3148 85.6229 14.5456C85.6229 14.5944 85.6229 14.5944 85.6229 14.6442C85.6224 15.1864 85.6215 15.7286 85.6201 16.2708C85.6192 16.634 85.619 16.9972 85.6194 17.3604C85.6194 17.5855 85.6189 17.8107 85.6183 18.0358C85.6181 18.1403 85.6181 18.2448 85.6184 18.3493C85.6188 18.4917 85.6184 18.634 85.6177 18.7764C85.618 18.8179 85.6183 18.8594 85.6187 18.9021C85.6165 19.1261 85.6013 19.2733 85.4562 19.4553C85.2833 19.5882 85.1561 19.6167 84.9402 19.6179C84.8584 19.6188 84.8584 19.6188 84.7749 19.6197C84.7164 19.6196 84.6579 19.6195 84.5976 19.6193C84.5371 19.6196 84.4766 19.6198 84.4143 19.6201C84.2864 19.6204 84.1586 19.6204 84.0307 19.6199C83.8674 19.6194 83.7041 19.6203 83.5407 19.6217C83.3843 19.6228 83.2278 19.6225 83.0713 19.6223C82.9837 19.6231 82.9837 19.6231 82.8943 19.6239C82.3795 19.6197 82.3795 19.6197 82.1586 19.4076C82.1096 19.2608 82.1047 19.1609 82.1044 19.0072C82.1042 18.9535 82.104 18.8998 82.1038 18.8445C82.1039 18.7556 82.1039 18.7556 82.1039 18.6649C82.1036 18.5708 82.1036 18.5708 82.1034 18.4747C82.1029 18.3002 82.1027 18.1257 82.1026 17.9511C82.1024 17.763 82.102 17.5749 82.1015 17.3868C82.1008 17.0607 82.1003 16.7347 82.0998 16.4086C82.0992 15.9369 82.0981 15.4652 82.097 14.9934C82.0952 14.2278 82.0935 13.4622 82.092 12.6966C82.0919 12.6507 82.0918 12.6049 82.0918 12.5576C82.0905 11.907 82.0893 11.2563 82.0882 10.6057C82.0882 10.5599 82.0881 10.514 82.088 10.4668C82.0879 10.4211 82.0879 10.3753 82.0878 10.3282C82.0865 9.56557 82.0849 8.80297 82.0829 8.04038C82.0817 7.56978 82.0809 7.09918 82.0804 6.62858C82.08 6.30618 82.0793 5.98378 82.0784 5.66138C82.0778 5.47526 82.0774 5.28915 82.0775 5.10302C82.0775 4.90141 82.0768 4.6998 82.076 4.49818C82.0761 4.43914 82.0762 4.3801 82.0764 4.31927C82.076 4.26532 82.0757 4.21136 82.0754 4.15577C82.0753 4.10923 82.0752 4.06268 82.0751 4.01473C82.0619 3.87442 82.0315 3.77323 81.9674 3.64785C81.613 3.41463 81.1519 3.48379 80.7443 3.48359C80.6539 3.48225 80.6539 3.48225 80.5617 3.48089C80.507 3.4808 80.4523 3.48071 80.396 3.48062C80.2161 3.4519 80.1372 3.39151 80.008 3.26579C79.9484 3.14674 79.9528 3.0641 79.951 2.93088C79.9502 2.88098 79.9494 2.83109 79.9486 2.77968C79.9465 2.55138 79.9446 2.32309 79.9435 2.09479C79.9427 1.9743 79.9414 1.85382 79.9395 1.73335C79.9369 1.55982 79.9359 1.38635 79.9352 1.21281C79.9341 1.15898 79.933 1.10515 79.9319 1.04968C79.9329 0.676242 79.9329 0.676242 80.0723 0.486912C80.2324 0.377725 80.349 0.346665 80.5384 0.346566C80.5981 0.346364 80.5981 0.346364 80.659 0.346158C80.7243 0.346303 80.7243 0.346303 80.7908 0.346451C80.8368 0.346368 80.8827 0.346284 80.93 0.346198C81.0822 0.345987 81.2343 0.346127 81.3865 0.346288C81.492 0.346256 81.5975 0.346209 81.703 0.34615C81.9243 0.346079 82.1456 0.346182 82.3669 0.346405C82.6509 0.346677 82.9349 0.34652 83.2188 0.346234C83.4368 0.346062 83.6547 0.346116 83.8727 0.34624C83.9774 0.346272 84.0821 0.346233 84.1869 0.346122C84.3331 0.346001 84.4793 0.346185 84.6255 0.346451C84.669 0.346355 84.7125 0.346258 84.7574 0.346158C84.7972 0.346293 84.837 0.346428 84.878 0.346566C84.9125 0.346584 84.9471 0.346602 84.9827 0.346621C85.1411 0.357066 85.2205 0.402978 85.3436 0.502454C85.5409 0.752211 85.491 1.09181 85.49 1.39395C85.4906 1.46314 85.4914 1.53233 85.4922 1.60151C85.4941 1.78288 85.4946 1.96422 85.4948 2.14559C85.4952 2.33096 85.497 2.51631 85.4987 2.70167C85.5018 3.06482 85.5033 3.42796 85.504 3.79112C85.5671 3.79112 85.6302 3.79112 85.6952 3.79112C85.7256 3.72786 85.7256 3.72786 85.7566 3.66333C86.125 2.9063 86.125 2.9063 86.3642 2.5972C86.3958 2.5972 86.4273 2.5972 86.4598 2.5972C86.4761 2.54697 86.4761 2.54697 86.4927 2.49572C86.5716 2.32301 86.6649 2.21096 86.7944 2.07187C86.8259 2.07187 86.8574 2.07187 86.8899 2.07187C86.9001 2.0459 86.9103 2.01992 86.9208 1.99315C87.416 1.13459 88.7197 0.532466 89.6335 0.272099C89.7562 0.239971 89.8791 0.209421 90.0024 0.179512C90.0438 0.16917 90.0853 0.158828 90.128 0.148172C90.5002 0.0564732 90.8477 0.0100967 91.2309 0.00695364Z" fill="#7F7E82"/>
<path d="M127.149 0.00107148C127.232 0.000577948 127.232 0.000577948 127.316 7.44421e-05C127.99 -0.00220262 128.604 0.0472277 129.255 0.221661C129.37 0.247048 129.485 0.271989 129.6 0.296184C129.821 0.346933 130.01 0.413781 130.215 0.50783C130.285 0.531407 130.355 0.554213 130.425 0.576392C130.769 0.688247 131.068 0.829786 131.367 1.03247C131.494 1.09931 131.622 1.16196 131.751 1.22325C131.751 1.25473 131.751 1.28621 131.751 1.31864C131.781 1.32553 131.811 1.33242 131.841 1.33951C131.943 1.36634 131.943 1.36634 132.039 1.41403C132.039 1.44551 132.039 1.47699 132.039 1.50942C132.073 1.52037 132.108 1.53131 132.143 1.54259C132.307 1.61751 132.412 1.71396 132.543 1.83733C132.674 1.95951 132.802 2.07748 132.944 2.18647C132.978 2.21487 133.012 2.24328 133.047 2.27254C133.047 2.30402 133.047 2.3355 133.047 2.36793C133.079 2.36793 133.111 2.36793 133.143 2.36793C133.234 2.47459 133.32 2.58164 133.404 2.69286C133.451 2.75384 133.498 2.81477 133.545 2.87562C133.566 2.90285 133.587 2.93007 133.608 2.95812C133.671 3.03767 133.671 3.03767 133.747 3.11069C133.839 3.20263 133.894 3.30475 133.959 3.41722C134.023 3.51644 134.087 3.61552 134.152 3.71438C134.199 3.79878 134.199 3.79878 134.199 3.89417C134.231 3.89417 134.263 3.89417 134.295 3.89417C134.34 3.98254 134.385 4.07099 134.43 4.15947C134.455 4.20872 134.48 4.25797 134.506 4.30871C134.585 4.47077 134.657 4.63426 134.727 4.80038C134.741 4.83402 134.756 4.86766 134.771 4.90232C135.364 6.30511 135.684 7.80721 135.687 9.3314C135.688 9.44802 135.69 9.56465 135.691 9.68128C135.694 10.0417 135.692 10.4019 135.687 10.7622C135.686 10.8096 135.686 10.857 135.685 10.9058C135.674 11.571 135.579 12.2093 135.447 12.8608C135.439 12.9003 135.431 12.9397 135.423 12.9803C135.17 14.234 134.72 15.4183 134.006 16.4862C133.945 16.5777 133.887 16.6712 133.833 16.7668C133.811 16.7999 133.789 16.8331 133.767 16.8672C133.735 16.8672 133.704 16.8672 133.671 16.8672C133.659 16.9027 133.646 16.9382 133.633 16.9748C133.574 17.1073 133.515 17.1864 133.416 17.2912C133.385 17.3249 133.353 17.3585 133.32 17.3932C133.287 17.4281 133.253 17.4631 133.218 17.4992C133.184 17.5353 133.149 17.5714 133.113 17.6087C132.714 18.0205 132.278 18.3619 131.799 18.6796C131.769 18.7 131.739 18.7204 131.708 18.7415C131.402 18.9401 131.072 19.0945 130.743 19.2519C130.705 19.2708 130.666 19.2896 130.626 19.309C130.121 19.5441 129.573 19.6676 129.03 19.7855C128.975 19.7979 128.92 19.8103 128.864 19.8231C128.265 19.9547 127.686 19.9788 127.074 19.9793C127.017 19.9794 127.017 19.9794 126.958 19.9794C126.382 19.979 125.835 19.9493 125.272 19.8243C125.193 19.8085 125.115 19.7929 125.037 19.7773C124.697 19.7075 124.389 19.632 124.072 19.4904C124.005 19.4685 123.938 19.4475 123.871 19.4278C123.293 19.2403 122.726 18.9083 122.248 18.5365C122.248 18.505 122.248 18.4736 122.248 18.4411C122.213 18.4293 122.178 18.4175 122.143 18.4054C121.892 18.2948 121.734 18.1244 121.57 17.9105C121.462 17.7704 121.388 17.6811 121.24 17.5826C121.224 17.5354 121.208 17.4882 121.192 17.4395C121.165 17.414 121.138 17.3884 121.111 17.362C120.824 17.0699 120.424 16.52 120.424 16.1041C120.345 16.1041 120.265 16.1041 120.184 16.1041C120.185 16.1526 120.185 16.1526 120.187 16.2021C120.272 18.5691 120.295 20.9338 120.292 23.3022C120.292 23.6751 120.292 24.0479 120.292 24.4208C120.293 24.7865 120.293 25.1521 120.293 25.5177C120.293 25.7335 120.292 25.9492 120.293 26.165C120.293 26.3649 120.293 26.5649 120.292 26.7649C120.292 26.8379 120.292 26.911 120.292 26.984C120.293 27.0836 120.292 27.1831 120.292 27.2827C120.292 27.3383 120.292 27.3939 120.292 27.4512C120.28 27.6006 120.252 27.704 120.184 27.837C120.011 27.9733 119.878 27.9981 119.66 27.9986C119.604 27.9991 119.549 27.9995 119.491 28C119.431 27.9997 119.371 27.9994 119.309 27.9991C119.247 27.9993 119.185 27.9994 119.122 27.9995C118.991 27.9998 118.86 27.9994 118.729 27.9988C118.562 27.998 118.394 27.9984 118.227 27.9993C118.067 27.9999 117.906 27.9995 117.746 27.9991C117.686 27.9994 117.626 27.9997 117.565 28C117.509 27.9996 117.453 27.9991 117.395 27.9986C117.322 27.9985 117.322 27.9985 117.247 27.9983C117.087 27.9768 116.999 27.9338 116.872 27.837C116.745 27.6585 116.762 27.4616 116.764 27.2519C116.764 27.2116 116.763 27.1713 116.763 27.1297C116.763 26.9937 116.763 26.8577 116.763 26.7217C116.763 26.6236 116.763 26.5254 116.763 26.4273C116.762 26.1569 116.763 25.8866 116.763 25.6162C116.763 25.3249 116.762 25.0336 116.762 24.7423C116.761 24.2372 116.761 23.7322 116.761 23.2272C116.761 22.4967 116.76 21.7662 116.76 21.0357C116.759 20.6955 116.759 20.3553 116.758 20.0151C116.758 19.9811 116.758 19.947 116.758 19.9119C116.757 19.101 116.757 18.2901 116.756 17.4792C116.756 17.4437 116.756 17.4082 116.756 17.3717C116.755 16.5437 116.755 15.7157 116.754 14.8877C116.754 14.6004 116.754 14.3132 116.754 14.0259C116.754 13.9905 116.754 13.955 116.754 13.9185C116.753 13.1092 116.753 12.2999 116.752 11.4907C116.752 11.4567 116.752 11.4227 116.752 11.3876C116.751 11.0481 116.751 10.7086 116.751 10.3691C116.75 10.2021 116.75 10.0351 116.75 9.86808C116.75 9.81877 116.75 9.81877 116.75 9.76846C116.749 9.23901 116.749 8.70956 116.749 8.18011C116.749 7.64819 116.749 7.11628 116.748 6.58437C116.747 6.29609 116.747 6.00782 116.747 5.71954C116.748 5.45582 116.747 5.19211 116.747 4.92839C116.746 4.83281 116.747 4.73723 116.747 4.64165C116.747 4.51204 116.747 4.38246 116.746 4.25285C116.746 4.21547 116.747 4.17809 116.747 4.13958C116.745 3.91125 116.705 3.75455 116.584 3.56031C116.423 3.43437 116.232 3.45003 116.035 3.44852C116.001 3.44782 115.966 3.44713 115.931 3.44641C115.822 3.4442 115.712 3.44256 115.603 3.44107C115.459 3.4391 115.315 3.43654 115.171 3.43362C115.122 3.43324 115.122 3.43324 115.072 3.43285C114.884 3.42898 114.733 3.41307 114.568 3.32183C114.434 3.17695 114.406 3.08048 114.404 2.88551C114.403 2.83664 114.402 2.78777 114.401 2.73742C114.401 2.6849 114.401 2.63238 114.401 2.57828C114.401 2.52406 114.401 2.46985 114.4 2.41399C114.4 2.29937 114.4 2.18475 114.4 2.07013C114.4 1.89477 114.398 1.71951 114.396 1.54417C114.396 1.43279 114.395 1.32141 114.395 1.21003C114.395 1.15761 114.394 1.10519 114.393 1.05118C114.396 0.687883 114.396 0.687883 114.537 0.499714C114.699 0.388416 114.817 0.358813 115.009 0.358047C115.051 0.357775 115.092 0.357502 115.134 0.357222C115.179 0.357168 115.224 0.357115 115.27 0.35706C115.317 0.356823 115.365 0.356587 115.413 0.356343C115.57 0.355645 115.728 0.355321 115.885 0.355057C115.994 0.354783 116.102 0.354509 116.211 0.354234C116.44 0.353732 116.669 0.353454 116.897 0.353287C117.19 0.353026 117.483 0.351879 117.776 0.350523C118.002 0.349635 118.227 0.349386 118.452 0.349313C118.56 0.349168 118.668 0.348785 118.776 0.348159C118.927 0.347347 119.078 0.347435 119.229 0.347745C119.296 0.347086 119.296 0.347086 119.365 0.346413C119.653 0.348267 119.818 0.385163 120.029 0.591381C120.111 0.74139 120.107 0.861028 120.108 1.03112C120.109 1.08071 120.109 1.08071 120.11 1.1313C120.111 1.2402 120.112 1.34909 120.112 1.458C120.113 1.53365 120.114 1.6093 120.115 1.68495C120.117 1.8838 120.119 2.08264 120.12 2.28149C120.121 2.48451 120.124 2.68752 120.126 2.89053C120.13 3.28866 120.133 3.6868 120.136 4.08495C120.235 4.11135 120.32 4.13265 120.424 4.13265C120.434 4.07362 120.444 4.0146 120.454 3.95379C120.519 3.65573 120.663 3.39785 120.808 3.13105C120.839 3.13105 120.871 3.13105 120.904 3.13105C120.913 3.09367 120.922 3.05629 120.931 3.01778C121.051 2.71691 121.246 2.45037 121.48 2.22485C121.528 2.16736 121.576 2.10971 121.624 2.05195C121.923 1.70932 122.299 1.42504 122.68 1.17556C122.711 1.17556 122.743 1.17556 122.776 1.17556C122.776 1.14408 122.776 1.1126 122.776 1.08017C122.861 1.03772 122.947 0.995321 123.032 0.953107C123.125 0.906434 123.218 0.858857 123.311 0.810768C123.699 0.611886 124.084 0.440287 124.504 0.317051C124.563 0.298283 124.563 0.298283 124.623 0.279137C125.459 0.02384 126.282 0.00253451 127.149 0.00107148ZM125.907 3.08319C124.778 3.08634 123.719 3.41978 122.776 4.03726C122.745 4.05595 122.714 4.07464 122.683 4.09389C122.616 4.13566 122.551 4.18138 122.488 4.22804C122.488 4.25951 122.488 4.29099 122.488 4.32343C122.439 4.33523 122.439 4.33523 122.389 4.34727C122.213 4.43631 122.119 4.55197 121.995 4.70163C121.909 4.80407 121.815 4.89663 121.72 4.99116C120.506 6.34115 120.262 8.17631 120.262 9.91268C120.262 9.95598 120.262 9.99927 120.261 10.0439C120.262 10.608 120.295 11.1577 120.376 11.7161C120.384 11.7785 120.384 11.7785 120.393 11.8421C120.449 12.2245 120.532 12.5971 120.64 12.9681C120.649 13.0017 120.659 13.0352 120.669 13.0698C120.726 13.2569 120.799 13.4116 120.904 13.5762C120.93 13.6401 120.954 13.7047 120.976 13.77C121.029 13.9183 121.093 14.0243 121.192 14.1486C121.225 14.2559 121.225 14.2559 121.24 14.3394C121.271 14.3394 121.303 14.3394 121.336 14.3394C121.348 14.3728 121.359 14.4063 121.372 14.4407C121.44 14.5967 121.522 14.7277 121.624 14.864C121.655 14.864 121.687 14.864 121.72 14.864C121.728 14.8965 121.735 14.9289 121.744 14.9624C121.834 15.1391 121.954 15.2332 122.106 15.3588C122.2 15.4363 122.2 15.4363 122.296 15.5347C122.505 15.7359 122.735 15.9215 123.016 16.0087C123.016 16.0402 123.016 16.0716 123.016 16.1041C124.636 16.9621 126.512 17.1195 128.27 16.5932C128.651 16.4707 129.009 16.3123 129.351 16.1041C129.383 16.0883 129.415 16.0726 129.447 16.0564C129.447 16.0249 129.447 15.9934 129.447 15.961C129.49 15.9502 129.532 15.9394 129.576 15.9282C129.76 15.8558 129.838 15.7676 129.975 15.6271C130.062 15.5503 130.149 15.4738 130.236 15.3976C130.453 15.2032 130.626 15.0062 130.791 14.7686C130.825 14.7283 130.859 14.688 130.893 14.6464C131.094 14.3962 131.094 14.3962 131.175 14.1009C131.207 14.1009 131.239 14.1009 131.271 14.1009C131.32 13.9897 131.368 13.8784 131.415 13.767C131.428 13.7372 131.441 13.7074 131.454 13.6767C131.815 12.8226 132.066 11.9431 132.128 11.0163C132.135 10.9043 132.145 10.7925 132.155 10.6806C132.202 10.0653 132.161 9.46259 132.101 8.84923C132.089 8.73277 132.079 8.61631 132.069 8.49971C131.928 7.08808 131.338 5.69588 130.359 4.65729C130.312 4.64155 130.264 4.62581 130.215 4.6096C130.196 4.56791 130.196 4.56791 130.176 4.52538C130.095 4.37372 129.968 4.29088 129.831 4.19227C129.805 4.17265 129.779 4.15304 129.752 4.13283C129.614 4.02322 129.614 4.02322 129.447 3.98956C129.447 3.95808 129.447 3.9266 129.447 3.89417C129.378 3.85926 129.309 3.82452 129.24 3.78984C129.202 3.77047 129.164 3.75111 129.124 3.73115C129.072 3.70625 129.021 3.68135 128.967 3.6557C128.929 3.63717 128.891 3.61864 128.851 3.59955C127.904 3.15511 126.939 3.08446 125.907 3.08319Z" fill="#7F7E82"/>
<path d="M50.9621 1.12063C51.0712 1.18995 51.0712 1.18995 51.2052 1.24976C51.3848 1.34353 51.5338 1.4571 51.6912 1.58333C51.7357 1.61875 51.7357 1.61875 51.7812 1.65487C51.8647 1.72143 51.9479 1.78839 52.031 1.85542C52.0663 1.88342 52.1015 1.91142 52.1378 1.94027C52.3513 2.11483 52.5274 2.31516 52.7048 2.52519C52.7283 2.55152 52.7518 2.57785 52.776 2.60498C52.9003 2.74592 52.9835 2.87272 53.0417 3.05143C53.0734 3.05143 53.1052 3.05143 53.1379 3.05143C53.1538 3.13036 53.1697 3.2093 53.186 3.29063C53.2178 3.29063 53.2496 3.29063 53.2823 3.29063C53.5452 3.7895 53.7744 4.2878 53.956 4.82151C53.9668 4.85235 53.9775 4.88318 53.9885 4.91495C54.3665 6.01929 54.4453 7.18236 54.4428 8.34015C54.4427 8.42791 54.4427 8.51567 54.4428 8.60343C54.4428 8.83982 54.4425 9.07621 54.4422 9.31259C54.4419 9.56032 54.4418 9.80805 54.4418 10.0558C54.4416 10.5241 54.4412 10.9924 54.4408 11.4606C54.4402 11.9941 54.44 12.5276 54.4397 13.0611C54.4392 14.1577 54.4384 15.2543 54.4373 16.351C54.4645 16.3504 54.4917 16.3499 54.5197 16.3494C54.8031 16.3441 55.0865 16.3405 55.3699 16.3378C55.4756 16.3366 55.5814 16.335 55.6871 16.3329C55.8392 16.33 55.9912 16.3287 56.1433 16.3276C56.2141 16.3258 56.2141 16.3258 56.2863 16.3239C56.5134 16.3238 56.6158 16.3238 56.8001 16.4661C56.9233 16.6331 56.946 16.7122 56.9475 16.9161C56.948 16.9641 56.9485 17.012 56.9489 17.0613C56.9493 17.1393 56.9493 17.1393 56.9496 17.2188C56.9498 17.2722 56.9501 17.3255 56.9504 17.3805C56.9509 17.4935 56.9512 17.6066 56.9514 17.7197C56.9518 17.8924 56.9533 18.0651 56.9548 18.2379C56.9551 18.3477 56.9554 18.4575 56.9556 18.5673C56.9562 18.6189 56.9568 18.6705 56.9574 18.7236C56.9566 18.9857 56.9556 19.1922 56.7954 19.4127C56.6578 19.4972 56.5537 19.5205 56.3932 19.5212C56.3516 19.5216 56.31 19.522 56.2671 19.5225C56.2218 19.5224 56.1765 19.5224 56.1299 19.5223C56.0819 19.5226 56.0339 19.523 55.9844 19.5233C55.8257 19.5242 55.667 19.5244 55.5083 19.5245C55.398 19.5248 55.2877 19.5251 55.1774 19.5255C54.9462 19.526 54.715 19.5262 54.4838 19.5262C54.1874 19.5261 53.8911 19.5275 53.5947 19.5291C53.3669 19.5302 53.1392 19.5304 52.9114 19.5303C52.8021 19.5304 52.6929 19.5308 52.5836 19.5316C52.4308 19.5325 52.2781 19.5322 52.1253 19.5317C52.0801 19.5322 52.035 19.5327 51.9884 19.5333C51.7866 19.5314 51.6748 19.5257 51.4988 19.4203C51.3522 19.2583 51.3507 19.1209 51.3474 18.9113C51.3464 18.8577 51.3455 18.8041 51.3445 18.7488C51.3437 18.691 51.3429 18.6331 51.3421 18.5735C51.3411 18.5142 51.3401 18.455 51.339 18.3939C51.3364 18.2365 51.334 18.0792 51.3317 17.9218C51.3293 17.7611 51.3266 17.6005 51.3239 17.4398C51.3188 17.1247 51.3139 16.8096 51.3092 16.4945C51.2932 16.5159 51.2772 16.5374 51.2607 16.5595C51.1868 16.6585 51.1126 16.7574 51.0385 16.8563C51.0133 16.89 50.9882 16.9237 50.9623 16.9584C50.3387 17.7888 50.3387 17.7888 50.0579 17.8819C50.0451 17.9091 50.0324 17.9364 50.0192 17.9645C49.9356 18.1224 49.8037 18.2192 49.6669 18.3304C49.6387 18.3536 49.6105 18.3769 49.5814 18.4008C49.3037 18.6286 49.0291 18.8523 48.7117 19.024C48.6352 19.0663 48.5599 19.1105 48.485 19.1556C47.959 19.4711 47.4225 19.6747 46.8335 19.8433C46.785 19.8593 46.7365 19.8753 46.6865 19.8917C45.9396 20.1023 45.0576 20.1303 44.2829 20.0825C44.233 20.0794 44.1832 20.0764 44.1318 20.0732C42.814 19.9826 41.4321 19.722 40.2885 19.03C40.2616 19.0138 40.2347 18.9976 40.2069 18.9808C39.4721 18.5346 39.4721 18.5346 39.2298 18.2646C39.2298 18.233 39.2298 18.2014 39.2298 18.1689C39.2 18.165 39.1702 18.161 39.1396 18.1569C39.0373 18.1211 39.0373 18.1211 38.9922 18.0373C38.9669 17.9841 38.9669 17.9841 38.941 17.9297C38.8994 17.8883 38.8577 17.8468 38.8147 17.8041C38.777 17.7666 38.7393 17.7291 38.7004 17.6905C38.7004 17.6589 38.7004 17.6274 38.7004 17.5948C38.6687 17.5948 38.6369 17.5948 38.6042 17.5948C37.6367 16.2714 37.4196 14.5271 37.6664 12.9359C37.7783 12.3378 37.9877 11.7721 38.2673 11.2321C38.2991 11.2321 38.3308 11.2321 38.3635 11.2321C38.3763 11.1969 38.389 11.1617 38.4021 11.1254C38.5525 10.78 38.8624 10.4406 39.1335 10.1796C39.1653 10.1796 39.1971 10.1796 39.2298 10.1796C39.2417 10.149 39.2536 10.1184 39.2659 10.0869C39.326 9.98824 39.326 9.98824 39.4283 9.95236C39.4581 9.94842 39.4879 9.94447 39.5185 9.9404C39.5185 9.90883 39.5185 9.87725 39.5185 9.84472C39.6103 9.77223 39.7013 9.70636 39.7983 9.6414C39.8266 9.62221 39.8549 9.60302 39.884 9.58325C40.1381 9.41345 40.4011 9.26596 40.6735 9.12712C40.7188 9.10242 40.7188 9.10242 40.7649 9.07723C42.5773 8.11345 44.8065 8.05656 46.8106 8.0653C46.9348 8.06547 47.059 8.06561 47.1831 8.06571C47.472 8.06603 47.7608 8.06678 48.0497 8.06775C48.3797 8.06883 48.7096 8.06935 49.0396 8.06982C49.7159 8.07081 50.3922 8.07248 51.0685 8.07464C51.0623 7.91578 51.0555 7.75694 51.0486 7.59811C51.0469 7.55365 51.0451 7.50919 51.0433 7.46338C51.0257 7.06685 50.966 6.69177 50.876 6.30455C50.8657 6.25818 50.8553 6.2118 50.8446 6.16402C50.6616 5.42323 50.2498 4.49287 49.6133 4.02467C49.5853 4.00346 49.5574 3.98225 49.5285 3.96039C49.5285 3.92882 49.5285 3.89724 49.5285 3.86471C49.4932 3.85182 49.4579 3.83893 49.4216 3.82565C49.2923 3.77088 49.1891 3.70844 49.0744 3.6285C47.8233 2.75863 46.0825 2.81426 44.6378 2.99163C44.5752 2.99913 44.5125 3.00664 44.4479 3.01437C44.0648 3.06481 43.7011 3.14362 43.3303 3.24846C43.2025 3.2834 43.078 3.31108 42.9474 3.33249C42.5887 3.39944 42.2434 3.52445 41.8968 3.63623C41.7537 3.68189 41.61 3.72555 41.4662 3.76913C41.1949 3.8517 40.928 3.93904 40.666 4.04785C40.4335 4.14311 40.1982 4.23151 39.9633 4.32104C39.9274 4.33486 39.8914 4.34868 39.8543 4.36292C39.8221 4.37523 39.7898 4.38754 39.7567 4.40022C39.661 4.43785 39.661 4.43785 39.5662 4.48988C39.4069 4.56406 39.2544 4.57038 39.0854 4.53447C38.9206 4.44061 38.774 4.33746 38.721 4.15009C38.6927 3.95504 38.6916 3.76275 38.6906 3.5659C38.6904 3.52338 38.6901 3.48086 38.6898 3.43706C38.6894 3.34735 38.689 3.25764 38.6889 3.16793C38.6884 3.03113 38.6869 2.89436 38.6854 2.75757C38.6851 2.6702 38.6848 2.58284 38.6846 2.49547C38.684 2.4548 38.6834 2.41413 38.6828 2.37222C38.6837 2.13165 38.7126 1.96924 38.8448 1.75974C39.2052 1.40433 39.8796 1.2677 40.3534 1.12864C40.5329 1.07428 40.71 1.01376 40.8875 0.953435C41.8282 0.634436 42.7739 0.398146 43.7535 0.228861C43.7998 0.220821 43.846 0.21278 43.8936 0.204497C46.1308 -0.16361 49.0017 -0.131687 50.9621 1.12063ZM44.0633 10.8314C44.0031 10.8441 43.9428 10.8568 43.8807 10.8699C42.9063 11.0853 42.0711 11.5334 41.4599 12.3425C41.0501 13.0128 40.943 13.9334 41.1177 14.6923C41.2299 15.1307 41.3603 15.5549 41.636 15.9204C41.6698 15.9658 41.7035 16.0112 41.7383 16.058C41.9981 16.36 42.3195 16.598 42.6948 16.7337C42.7631 16.7642 42.8313 16.7952 42.8993 16.8264C42.9754 16.8595 43.0516 16.8924 43.1279 16.9251C43.1647 16.9415 43.2015 16.9579 43.2394 16.9748C44.564 17.5147 46.2935 17.3769 47.5979 16.8516C47.7292 16.7903 47.8284 16.7279 47.9404 16.638C48.0938 16.5493 48.2479 16.4626 48.4036 16.3779C48.5411 16.2879 48.6435 16.181 48.7585 16.0639C48.8123 16.0187 48.8665 15.9739 48.921 15.9294C49.1126 15.7684 49.272 15.5854 49.4323 15.3942C49.471 15.3488 49.5097 15.3034 49.5496 15.2566C49.6343 15.1632 49.6343 15.1632 49.6248 15.0593C49.6724 15.0435 49.7201 15.0277 49.7692 15.0115C50.008 14.6943 50.1749 14.3148 50.3467 13.959C50.3675 13.9161 50.3884 13.8733 50.4098 13.8291C50.4718 13.698 50.5303 13.566 50.5873 13.4327C50.6071 13.3866 50.6269 13.3405 50.6473 13.2929C50.7903 12.9297 50.8817 12.5609 50.9633 12.1799C50.9791 12.1097 50.9791 12.1097 50.9952 12.0382C51.0594 11.72 51.0742 11.4152 51.0713 11.0921C51.0711 11.0502 51.0709 11.0083 51.0707 10.9652C51.0702 10.8628 51.0694 10.7604 51.0685 10.658C50.3674 10.6569 49.6662 10.656 48.965 10.6555C48.6393 10.6553 48.3137 10.6549 47.988 10.6544C47.6731 10.6539 47.3583 10.6536 47.0434 10.6535C46.9239 10.6534 46.8044 10.6532 46.6848 10.6529C45.3664 10.6492 45.3664 10.6492 44.0633 10.8314Z" fill="#7F7E82"/>
<path d="M147.985 0.000327868C148.104 0.000582047 148.222 0.000329004 148.341 2.65954e-05C148.937 -0.000305793 149.533 0.000274318 150.116 0.142969C150.171 0.155782 150.171 0.155782 150.226 0.168855C150.298 0.185835 150.37 0.203028 150.442 0.220465C150.526 0.240607 150.61 0.259402 150.694 0.277938C151.804 0.530127 152.799 1.08339 153.71 1.74777C153.759 1.7832 153.808 1.81862 153.858 1.85512C153.972 1.95245 153.972 1.95245 154.02 2.09484C154.072 2.11246 154.072 2.11246 154.124 2.13044C154.314 2.21411 154.428 2.35338 154.545 2.522C154.545 2.55332 154.545 2.58465 154.545 2.61692C154.586 2.63335 154.586 2.63335 154.628 2.65011C154.762 2.72739 154.832 2.81801 154.926 2.94026C154.958 2.9807 154.989 3.02114 155.021 3.0628C155.053 3.10361 155.084 3.14442 155.117 3.18646C155.149 3.2258 155.182 3.26514 155.215 3.30568C155.305 3.42011 155.378 3.5356 155.451 3.66108C155.471 3.69418 155.492 3.72728 155.514 3.76138C155.741 4.12646 155.93 4.50885 156.118 4.89509C156.138 4.93535 156.158 4.97561 156.178 5.01709C156.297 5.269 156.377 5.52932 156.455 5.79613C156.496 5.93497 156.496 5.93497 156.546 6.04734C157.008 7.25826 157.016 8.74368 156.977 10.021C156.976 10.0576 156.975 10.0942 156.974 10.1319C156.963 10.4658 156.944 10.7667 156.786 11.0651C156.621 11.1862 156.503 11.2254 156.3 11.2257C156.25 11.2261 156.201 11.2265 156.151 11.2269C156.07 11.2265 156.07 11.2265 155.988 11.2261C155.93 11.2264 155.873 11.2267 155.814 11.227C155.655 11.2276 155.496 11.2276 155.337 11.2274C155.166 11.2272 154.994 11.2279 154.823 11.2285C154.526 11.2295 154.229 11.2299 153.932 11.2299C153.502 11.23 153.072 11.2309 152.643 11.2321C151.945 11.2339 151.248 11.2351 150.55 11.2359C149.873 11.2367 149.196 11.2377 148.519 11.239C148.457 11.2391 148.457 11.2391 148.393 11.2392C147.938 11.24 147.482 11.241 147.027 11.242C146.987 11.242 146.947 11.2421 146.906 11.2422C146.746 11.2426 146.586 11.2429 146.427 11.2433C145.958 11.2443 145.49 11.2452 145.022 11.2457C144.728 11.246 144.435 11.2464 144.141 11.247C143.971 11.2473 143.802 11.2475 143.632 11.2476C143.449 11.2476 143.265 11.248 143.082 11.2484C143.028 11.2484 142.974 11.2483 142.919 11.2483C142.87 11.2485 142.82 11.2486 142.77 11.2488C142.706 11.2489 142.706 11.2489 142.641 11.249C142.534 11.2547 142.441 11.2724 142.337 11.3025C142.149 12.2213 142.606 13.4309 143.1 14.1976C143.224 14.3743 143.352 14.5478 143.482 14.7197C143.503 14.7478 143.524 14.7759 143.546 14.8048C143.708 15.0081 143.903 15.1713 144.102 15.3367C144.165 15.3896 144.165 15.3896 144.23 15.4435C144.341 15.5306 144.341 15.5306 144.474 15.6037C144.526 15.636 144.526 15.636 144.579 15.669C144.579 15.7003 144.579 15.7316 144.579 15.7639C144.641 15.7831 144.641 15.7831 144.704 15.8026C144.86 15.8572 145.001 15.9226 145.148 15.9982C146.847 16.8694 149.118 16.9316 150.93 16.3796C151.209 16.2902 151.47 16.179 151.731 16.0486C151.785 16.0237 151.838 15.9988 151.893 15.9732C152.268 15.7947 152.593 15.5875 152.923 15.3367C152.971 15.3064 153.018 15.276 153.066 15.2448C153.415 15.0065 153.725 14.7439 153.997 14.422C154.139 14.2566 154.254 14.1658 154.464 14.1027C154.688 14.1027 154.843 14.1581 155.021 14.2926C155.081 14.4171 155.081 14.4171 155.117 14.5299C155.146 14.5441 155.175 14.5584 155.206 14.5731C155.326 14.6342 155.371 14.6957 155.448 14.8057C155.564 14.967 155.687 15.1047 155.832 15.2418C155.913 15.3191 155.993 15.3978 156.071 15.4791C156.071 15.5104 156.071 15.5418 156.071 15.574C156.102 15.574 156.133 15.574 156.166 15.574C156.318 15.8062 156.394 15.9526 156.357 16.2385C156.261 16.4504 156.095 16.6464 155.927 16.808C155.896 16.808 155.865 16.808 155.832 16.808C155.82 16.8374 155.809 16.8668 155.796 16.897C155.725 17.017 155.668 17.032 155.546 17.0928C155.513 17.1557 155.482 17.219 155.451 17.2827C155.403 17.2983 155.356 17.314 155.308 17.3301C155.296 17.357 155.283 17.384 155.271 17.4117C155.181 17.577 155.039 17.6687 154.89 17.781C154.861 17.8035 154.832 17.8259 154.802 17.849C154.215 18.3001 153.554 18.7254 152.859 18.99C152.726 19.0414 152.595 19.0978 152.464 19.1544C152.117 19.2995 151.759 19.407 151.397 19.5134C151.321 19.5372 151.321 19.5372 151.243 19.5616C150.997 19.6257 150.748 19.6657 150.497 19.7062C150.448 19.7144 150.398 19.7226 150.347 19.7311C149.916 19.8018 149.492 19.8527 149.055 19.8586C149.014 19.8592 148.974 19.8598 148.932 19.8604C148.135 19.8697 147.352 19.863 146.563 19.7388C146.471 19.7243 146.471 19.7243 146.376 19.7094C146.036 19.6506 145.712 19.5676 145.383 19.4618C145.27 19.426 145.158 19.3955 145.043 19.3688C144.837 19.3166 144.644 19.2467 144.447 19.1693C144.391 19.1473 144.391 19.1473 144.334 19.1249C143.427 18.7648 142.593 18.2489 141.864 17.6045C141.793 17.5439 141.72 17.4859 141.646 17.4297C141.521 17.3257 141.429 17.2181 141.33 17.0898C141.226 16.956 141.123 16.8319 141.002 16.7131C140.43 16.0442 140.43 16.0442 140.43 15.8113C140.399 15.8113 140.367 15.8113 140.335 15.8113C140.025 15.2573 139.724 14.7064 139.524 14.1027C139.502 14.0423 139.481 13.9819 139.459 13.9216C138.737 11.8535 138.572 9.2597 139.162 7.13952C139.192 7.02425 139.215 6.90889 139.237 6.7919C139.281 6.5662 139.345 6.35227 139.42 6.13504C139.432 6.09835 139.445 6.06166 139.458 6.02386C139.593 5.63141 139.737 5.25076 139.953 4.89509C139.987 4.81503 140.021 4.73496 140.055 4.65482C140.205 4.31994 140.406 4.02833 140.627 3.73598C140.719 3.61461 140.719 3.61461 140.793 3.47939C140.815 3.44538 140.837 3.41136 140.859 3.37631C140.891 3.37631 140.922 3.37631 140.955 3.37631C140.964 3.34438 140.973 3.31244 140.982 3.27953C141.077 3.08238 141.217 2.94528 141.369 2.78897C141.397 2.75887 141.426 2.72877 141.456 2.69776C142.219 1.89775 143.075 1.23205 144.106 0.80484C144.198 0.765637 144.285 0.720791 144.373 0.673949C144.868 0.429999 145.38 0.301051 145.917 0.184498C145.973 0.172239 146.028 0.159979 146.086 0.147349C146.719 0.0149821 147.342 -0.00131202 147.985 0.000327868ZM145.103 3.66108C145.062 3.68078 145.021 3.70048 144.979 3.72078C144.36 4.03212 143.815 4.49538 143.386 5.03748C143.386 5.0688 143.386 5.10013 143.386 5.1324C143.355 5.1324 143.324 5.1324 143.291 5.1324C143.24 5.20952 143.193 5.28912 143.148 5.36971C143.123 5.41077 143.097 5.45182 143.071 5.49412C142.614 6.24757 142.103 7.30593 142.29 8.21743C142.466 8.39507 142.601 8.45231 142.852 8.46098C142.929 8.46136 143.007 8.46148 143.085 8.4614C143.128 8.46154 143.17 8.46169 143.214 8.46183C143.358 8.46224 143.502 8.46232 143.646 8.46239C143.749 8.46261 143.852 8.46284 143.955 8.4631C144.235 8.46372 144.515 8.46403 144.795 8.46424C144.969 8.46438 145.144 8.46457 145.319 8.46479C145.866 8.46544 146.413 8.46589 146.96 8.46608C147.591 8.46629 148.223 8.46712 148.855 8.4685C149.342 8.46952 149.83 8.47 150.318 8.47007C150.61 8.47012 150.902 8.4704 151.193 8.47124C151.467 8.47202 151.742 8.47213 152.016 8.47171C152.117 8.47168 152.217 8.47188 152.318 8.47235C152.455 8.47295 152.593 8.47268 152.73 8.47218C152.79 8.47275 152.79 8.47275 152.851 8.47334C153.126 8.47101 153.333 8.42359 153.538 8.22522C153.75 7.81456 153.446 7.03479 153.316 6.61844C153.084 5.91911 152.695 5.1704 152.16 4.65778C152.118 4.60708 152.076 4.55581 152.035 4.50353C151.933 4.36317 151.933 4.36317 151.779 4.32555C151.755 4.29325 151.732 4.26094 151.707 4.22766C151.672 4.18214 151.672 4.18214 151.636 4.1357C151.589 4.1357 151.541 4.1357 151.493 4.1357C151.493 4.10438 151.493 4.07305 151.493 4.04078C151.423 4.00098 151.354 3.96149 151.284 3.92212C151.245 3.9001 151.207 3.87807 151.167 3.85538C151.069 3.79633 151.069 3.79633 150.968 3.80347C150.968 3.77214 150.968 3.74082 150.968 3.70855C150.552 3.50214 150.126 3.36376 149.681 3.23393C149.629 3.2171 149.578 3.20028 149.524 3.18294C149.288 3.12428 149.053 3.10483 148.811 3.08561C148.741 3.07946 148.741 3.07946 148.67 3.07319C147.455 2.97205 146.195 3.08809 145.103 3.66108Z" fill="#7F7E82"/>
<path d="M69.8775 0.338386C69.9296 0.343553 69.9816 0.34872 70.0352 0.354043C70.3667 0.393296 70.6775 0.47114 70.9967 0.567575C71.121 0.604058 71.243 0.633647 71.3702 0.658094C72.0232 0.798079 72.6733 1.16863 73.2253 1.5323C73.3042 1.58412 73.3845 1.63376 73.4657 1.68179C73.5694 1.74419 73.6345 1.80344 73.7179 1.88956C73.7887 1.94768 73.8595 2.00579 73.9303 2.06385C74.0406 2.1576 74.141 2.26 74.2422 2.3632C74.2865 2.40521 74.3307 2.44722 74.3763 2.4905C74.4806 2.60003 74.4806 2.60003 74.4806 2.69475C74.5278 2.71038 74.575 2.72601 74.6236 2.74212C74.6897 2.81427 74.6897 2.81427 74.7517 2.90197C74.7725 2.93067 74.7934 2.95936 74.8148 2.98893C74.8619 3.07367 74.8619 3.07367 74.8619 3.21576C74.8934 3.21576 74.9249 3.21576 74.9573 3.21576C75.1276 3.45172 75.2627 3.71599 75.3895 3.97729C75.4194 4.03857 75.4506 4.09926 75.4829 4.15934C75.5929 4.36547 75.6675 4.56846 75.7291 4.79358C75.76 4.89578 75.797 4.99618 75.8358 5.09571C76.3573 6.463 76.2581 7.99876 76.254 9.43447C76.2534 9.67954 76.2533 9.92461 76.2532 10.1697C76.2529 10.6318 76.2522 11.0939 76.2512 11.556C76.2501 12.0829 76.2496 12.6098 76.2491 13.1367C76.2481 14.2188 76.2465 15.3009 76.2443 16.383C76.2713 16.3826 76.2982 16.3822 76.326 16.3817C76.6067 16.3775 76.8874 16.3747 77.1681 16.3726C77.2728 16.3716 77.3776 16.3703 77.4823 16.3687C77.6329 16.3664 77.7835 16.3653 77.9342 16.3645C78.0043 16.363 78.0043 16.363 78.0758 16.3615C78.2849 16.3615 78.4032 16.3624 78.5847 16.473C78.7244 16.6261 78.7292 16.7122 78.7301 16.9148C78.7305 16.9923 78.7305 16.9923 78.731 17.0714C78.7311 17.1555 78.7311 17.1555 78.7311 17.2413C78.7313 17.2986 78.7315 17.356 78.7316 17.4151C78.7319 17.5366 78.732 17.658 78.732 17.7795C78.7321 17.9658 78.7329 18.1521 78.7338 18.3383C78.734 18.4562 78.7341 18.574 78.7341 18.6918C78.7345 18.7478 78.7348 18.8037 78.7352 18.8614C78.735 18.9132 78.7349 18.965 78.7347 19.0184C78.7348 19.0641 78.7348 19.1098 78.7349 19.1569C78.7231 19.2722 78.7231 19.2722 78.6278 19.4143C78.4924 19.4993 78.3883 19.521 78.2294 19.5217C78.1882 19.5221 78.1469 19.5225 78.1044 19.5229C78.0596 19.5229 78.0147 19.5228 77.9685 19.5228C77.921 19.5231 77.8735 19.5234 77.8245 19.5238C77.6673 19.5247 77.5101 19.5248 77.3528 19.5249C77.2436 19.5252 77.1344 19.5256 77.0251 19.5259C76.7961 19.5265 76.5671 19.5266 76.3381 19.5266C76.0445 19.5266 75.751 19.5279 75.4574 19.5295C75.2318 19.5306 75.0062 19.5307 74.7806 19.5307C74.6723 19.5308 74.5641 19.5312 74.4559 19.532C74.3045 19.5329 74.1533 19.5326 74.0019 19.532C73.9572 19.5326 73.9124 19.5331 73.8663 19.5337C73.6664 19.5317 73.5557 19.5261 73.3813 19.4217C73.234 19.259 73.2346 19.1198 73.2314 18.9092C73.2304 18.8542 73.2295 18.7992 73.2285 18.7425C73.2273 18.6535 73.2273 18.6535 73.2261 18.5627C73.2251 18.5019 73.2241 18.4411 73.2231 18.3785C73.2205 18.2171 73.2181 18.0557 73.2158 17.8943C73.2134 17.7295 73.2108 17.5647 73.2081 17.3999C73.203 17.0767 73.1982 16.7536 73.1935 16.4304C73.1772 16.4565 73.1608 16.4826 73.144 16.5096C73.1225 16.5438 73.1011 16.578 73.079 16.6133C73.0577 16.6472 73.0364 16.6812 73.0145 16.7161C72.9093 16.8812 72.7891 17.0336 72.6691 17.1882C72.6414 17.2251 72.6137 17.2621 72.5852 17.3001C72.4362 17.4962 72.2975 17.6572 72.0971 17.8039C71.9803 17.9172 71.8666 18.0325 71.7545 18.1503C71.6681 18.2302 71.6681 18.2302 71.5728 18.2302C71.557 18.2771 71.5413 18.324 71.5251 18.3723C71.462 18.4047 71.3983 18.4362 71.3344 18.467C71.2925 18.5097 71.2925 18.5097 71.2497 18.5532C71.1314 18.6684 71.0082 18.7529 70.8696 18.843C70.8192 18.8758 70.7687 18.9087 70.7168 18.9425C70.5683 19.0376 70.4197 19.1323 70.2691 19.2241C70.2044 19.2636 70.1406 19.3047 70.0771 19.3462C69.3256 19.7551 68.4581 19.9323 67.6162 20.03C67.5679 20.0363 67.5196 20.0425 67.4699 20.0489C65.9199 20.2232 64.2166 19.9706 62.8016 19.3196C62.7587 19.3002 62.7157 19.2809 62.6715 19.2609C62.1544 19.0164 61.7124 18.6902 61.2762 18.3249C61.2362 18.2946 61.1962 18.2642 61.155 18.233C60.9416 18.0553 60.7805 17.8311 60.6088 17.6145C60.5809 17.5798 60.5531 17.5452 60.5243 17.5096C60.3622 17.3031 60.2393 17.0955 60.1322 16.8566C60.1035 16.7955 60.1035 16.7955 60.0742 16.733C59.9 16.3437 59.7891 15.9472 59.7031 15.5304C59.6946 15.4896 59.686 15.4488 59.6772 15.4067C59.6014 15.0075 59.5887 14.6122 59.5899 14.2072C59.59 14.1729 59.59 14.1387 59.59 14.1034C59.5965 12.5032 60.1225 11.3176 61.2256 10.1665C61.3443 10.0511 61.4524 9.99671 61.6099 9.94147C61.6256 9.89458 61.6414 9.84769 61.6576 9.79938C61.7613 9.73092 61.7613 9.73092 61.8959 9.65729C61.9428 9.6281 61.9897 9.59892 62.038 9.56885C63.402 8.72034 65.0226 8.32932 66.6203 8.23009C66.682 8.22616 66.7437 8.22223 66.8073 8.21819C67.4506 8.17922 68.0932 8.17694 68.7376 8.17975C68.8606 8.17992 68.9836 8.18006 69.1066 8.18015C69.3927 8.18047 69.6788 8.18121 69.9649 8.18217C70.2917 8.18325 70.6186 8.18376 70.9454 8.18423C71.6154 8.18521 72.2853 8.18686 72.9552 8.189C72.9377 7.98312 72.9196 7.77731 72.9011 7.57152C72.8949 7.50177 72.8888 7.432 72.8829 7.36221C72.7963 6.34386 72.5408 5.38188 71.8588 4.58932C71.827 4.55153 71.7952 4.51373 71.7625 4.47479C70.9124 3.49695 69.7786 3.17042 68.5219 3.07367C67.8722 3.03737 67.2328 3.07765 66.5883 3.15655C66.5261 3.16398 66.4638 3.17141 66.3997 3.17907C66.0203 3.22879 65.6602 3.30619 65.293 3.40997C65.156 3.44748 65.0208 3.47761 64.8812 3.5029C64.6917 3.53812 64.5154 3.59212 64.3337 3.65554C64.2088 3.69701 64.0814 3.72564 63.9533 3.75601C63.7834 3.80241 63.6198 3.86527 63.4548 3.92641C63.3459 3.96629 63.2368 4.00331 63.1264 4.03871C62.568 4.22166 61.993 4.42266 61.4669 4.68405C61.2711 4.6968 61.1348 4.70255 60.9515 4.63372C60.7881 4.48994 60.7174 4.31581 60.6908 4.1037C60.6854 3.98252 60.6844 3.86213 60.6852 3.74084C60.6851 3.69666 60.6849 3.65249 60.6848 3.60697C60.6847 3.51406 60.6849 3.42116 60.6855 3.32825C60.6863 3.18626 60.6855 3.04433 60.6846 2.90234C60.6847 2.81181 60.6849 2.72127 60.6852 2.63074C60.6849 2.58845 60.6846 2.54616 60.6843 2.5026C60.6869 2.27589 60.6961 2.11896 60.8472 1.93693C61.0916 1.72834 61.3977 1.62904 61.6993 1.53137C61.7842 1.50296 61.8691 1.47447 61.954 1.44589C61.9939 1.43254 62.0338 1.41918 62.0749 1.40542C62.198 1.36303 62.3182 1.31542 62.4382 1.26495C62.6611 1.17404 62.8889 1.11011 63.1212 1.04663C63.2803 1.00301 63.4383 0.9564 63.5964 0.908976C64.0812 0.764102 64.5598 0.627441 65.0596 0.544679C65.1941 0.522409 65.3267 0.497294 65.4601 0.469933C66.894 0.183832 68.4257 0.193521 69.8775 0.338386ZM66.0908 10.8976C66.011 10.9133 66.011 10.9133 65.9296 10.9292C65.2849 11.0615 64.7211 11.257 64.184 11.6466C64.1426 11.6764 64.1426 11.6764 64.1002 11.7069C63.895 11.8659 63.7297 12.0642 63.5643 12.2623C63.5321 12.2999 63.4999 12.3375 63.4668 12.3763C62.9609 13.0438 62.9875 13.9793 63.0638 14.7726C63.1793 15.4715 63.5959 16.0819 64.1513 16.5162C65.4004 17.3195 67.0609 17.4755 68.4968 17.1939C68.9435 17.0921 69.4459 16.9527 69.809 16.6672C69.8482 16.6516 69.8874 16.636 69.9278 16.62C70.1391 16.5359 70.3008 16.3822 70.4764 16.2409C70.519 16.2085 70.5617 16.1761 70.6056 16.1427C70.9303 15.891 71.1784 15.6161 71.4297 15.2936C71.4782 15.2383 71.4782 15.2383 71.5277 15.1819C71.8022 14.8656 71.9732 14.5189 72.1513 14.1443C72.1874 14.0722 72.2286 14.0026 72.2705 13.9336C72.3324 13.8304 72.3712 13.7383 72.407 13.624C72.4189 13.5867 72.4308 13.5493 72.4431 13.5108C72.4548 13.4739 72.4664 13.437 72.4785 13.3991C72.5002 13.3359 72.5221 13.2727 72.544 13.2096C72.57 13.1307 72.5958 13.0518 72.6215 12.9728C72.6408 12.9153 72.6602 12.8577 72.6801 12.7985C72.8727 12.2056 72.9579 11.6165 72.9559 10.9935C72.9558 10.9239 72.9558 10.9239 72.9556 10.8529C72.9555 10.8179 72.9553 10.7828 72.9552 10.7467C72.2536 10.7455 71.552 10.7447 70.8504 10.7442C70.5246 10.744 70.1987 10.7436 69.8729 10.7431C69.5579 10.7426 69.243 10.7423 68.928 10.7422C68.8084 10.7421 68.6887 10.7419 68.5691 10.7417C67.3236 10.7377 67.3236 10.7377 66.0908 10.8976Z" fill="#7F7E82"/>
<path d="M4.42724 15.8061C4.4883 15.8057 4.54936 15.8053 4.61228 15.8049C4.67984 15.805 4.74739 15.805 4.81495 15.8051C4.88619 15.8048 4.95742 15.8045 5.02866 15.8041C5.22206 15.8033 5.41545 15.8031 5.60886 15.803C5.77032 15.8029 5.93178 15.8026 6.09324 15.8023C6.47415 15.8015 6.85506 15.8013 7.23597 15.8014C7.62893 15.8014 8.02188 15.8005 8.41483 15.799C8.75223 15.7978 9.08963 15.7973 9.42704 15.7974C9.62854 15.7974 9.83004 15.7971 10.0315 15.7962C10.221 15.7953 10.4105 15.7953 10.6 15.7959C10.6695 15.796 10.739 15.7958 10.8086 15.7953C10.9035 15.7946 10.9985 15.7951 11.0934 15.7957C11.1465 15.7956 11.1997 15.7956 11.2544 15.7955C11.4303 15.8238 11.5105 15.885 11.6376 16.0021C11.7065 16.1337 11.6941 16.2482 11.6965 16.3952C11.6971 16.4262 11.6976 16.4571 11.6982 16.489C11.7035 16.8125 11.7058 17.136 11.7078 17.4596C11.7089 17.613 11.7109 17.7665 11.7138 17.9199C11.7172 18.1053 11.719 18.2906 11.7195 18.476C11.72 18.5465 11.7211 18.6171 11.7228 18.6876C11.725 18.7866 11.7251 18.8854 11.7247 18.9844C11.7253 19.0407 11.7259 19.0969 11.7265 19.1548C11.6778 19.3394 11.6229 19.4187 11.4652 19.5328C11.2107 19.647 10.9274 19.6227 10.6517 19.62C10.5809 19.6203 10.5101 19.6207 10.4394 19.6212C10.2478 19.6223 10.0564 19.6216 9.86486 19.6205C9.66419 19.6197 9.46352 19.6202 9.26284 19.6205C8.926 19.6208 8.58917 19.6199 8.25233 19.6184C7.86306 19.6167 7.47382 19.6168 7.08454 19.6178C6.7097 19.6188 6.33487 19.6185 5.96003 19.6176C5.80065 19.6172 5.64128 19.6173 5.48189 19.6177C5.29424 19.6182 5.10663 19.6176 4.91898 19.616C4.85017 19.6157 4.78135 19.6157 4.71254 19.6161C4.61854 19.6166 4.52454 19.6156 4.43055 19.6145C4.37797 19.6144 4.3254 19.6142 4.27123 19.6141C4.08447 19.5757 4.01177 19.4912 3.88918 19.3554C3.8733 19.3402 3.85742 19.325 3.84106 19.3094C3.83601 19.2104 3.83439 19.1111 3.83407 19.012C3.83391 18.9809 3.83374 18.9498 3.83358 18.9178C3.83312 18.8145 3.83303 18.7113 3.83297 18.608C3.83282 18.5364 3.83266 18.4649 3.83249 18.3933C3.8322 18.2429 3.83211 18.0926 3.83214 17.9423C3.83214 17.7497 3.83149 17.557 3.83066 17.3644C3.83012 17.2165 3.83003 17.0685 3.83005 16.9205C3.82999 16.8495 3.82978 16.7785 3.82941 16.7075C3.82894 16.6081 3.82908 16.5087 3.82937 16.4093C3.8293 16.3527 3.82923 16.2962 3.82916 16.2379C3.8407 16.0984 3.85168 16.0225 3.93731 15.9103C4.10022 15.8101 4.23594 15.8067 4.42724 15.8061Z" fill="#7F7E82"/>
<path d="M4.41247 7.91493C4.50405 7.91441 4.50405 7.91441 4.59748 7.91387C4.66553 7.91373 4.73357 7.9136 4.80162 7.91347C4.87298 7.91316 4.94435 7.91283 5.01571 7.91249C5.20991 7.91163 5.4041 7.91111 5.5983 7.91071C5.71959 7.91046 5.84087 7.91016 5.96216 7.90985C6.34151 7.90891 6.72086 7.90821 7.10022 7.9078C7.53834 7.90732 7.97646 7.90603 8.41458 7.90404C8.75308 7.90256 9.09157 7.90183 9.43006 7.90167C9.6323 7.90155 9.83453 7.90111 10.0368 7.89988C10.227 7.89873 10.4173 7.89852 10.6076 7.89903C10.6774 7.89905 10.7472 7.89874 10.817 7.89807C10.9124 7.8972 11.0077 7.89766 11.1031 7.89819C11.1564 7.89807 11.2098 7.89796 11.2648 7.89784C11.4413 7.92786 11.5215 7.99326 11.649 8.11882C11.7182 8.26 11.7049 8.38251 11.7065 8.5403C11.7071 8.59008 11.7071 8.59008 11.7077 8.64086C11.7089 8.75086 11.7097 8.86087 11.7104 8.97088C11.7107 9.00845 11.7109 9.04602 11.7112 9.08473C11.7125 9.28359 11.7134 9.48246 11.7141 9.68133C11.7149 9.88666 11.7171 10.092 11.7195 10.2973C11.7211 10.4552 11.7217 10.6132 11.722 10.7711C11.7223 10.8468 11.723 10.9225 11.7242 10.9981C11.7257 11.1042 11.7257 11.2101 11.7254 11.3162C11.7257 11.3765 11.7261 11.4368 11.7265 11.4989C11.6892 11.702 11.6086 11.7733 11.4561 11.9042C11.4402 11.9205 11.4243 11.9367 11.4079 11.9534C11.3142 11.9584 11.2204 11.9598 11.1266 11.96C11.0655 11.9602 11.0043 11.9604 10.9414 11.9606C10.873 11.9606 10.8046 11.9606 10.7362 11.9605C10.6647 11.9607 10.5932 11.9609 10.5217 11.961C10.3269 11.9615 10.1321 11.9616 9.93734 11.9616C9.77495 11.9617 9.61256 11.9618 9.45017 11.962C9.06713 11.9624 8.68409 11.9625 8.30105 11.9625C7.90547 11.9625 7.50989 11.963 7.11431 11.9638C6.77512 11.9644 6.43594 11.9647 6.09675 11.9646C5.89398 11.9646 5.69121 11.9648 5.48844 11.9653C5.29773 11.9658 5.10703 11.9658 4.91633 11.9654C4.84624 11.9654 4.77616 11.9655 4.70608 11.9658C4.61058 11.9662 4.51507 11.9659 4.41957 11.9656C4.36606 11.9656 4.31256 11.9656 4.25744 11.9656C4.12605 11.9534 4.12605 11.9534 3.98138 11.8551C3.98138 11.8226 3.98138 11.7902 3.98138 11.7568C3.94955 11.7568 3.91772 11.7568 3.88493 11.7568C3.81524 11.6147 3.83056 11.4917 3.83046 11.3329C3.83038 11.2995 3.83029 11.2661 3.83021 11.2317C3.83 11.1209 3.83014 11.0102 3.8303 10.8995C3.83027 10.8227 3.83022 10.7459 3.83016 10.6692C3.83009 10.5082 3.83019 10.3471 3.83042 10.1861C3.83069 9.97948 3.83053 9.77284 3.83024 9.56618C3.83007 9.40761 3.83013 9.24904 3.83025 9.09047C3.83028 9.01426 3.83024 8.93805 3.83013 8.86184C3.83001 8.75544 3.83019 8.64904 3.83046 8.54264C3.8305 8.48202 3.83054 8.4214 3.83058 8.35894C3.8367 8.21714 3.8367 8.21714 3.88493 8.11882C3.91676 8.11882 3.94858 8.11882 3.98138 8.11882C3.99729 8.07015 4.0132 8.02148 4.0296 7.97133C4.16109 7.90431 4.26521 7.91552 4.41247 7.91493Z" fill="#7F7E82"/>
<path d="M4.31181 0.269844C4.48703 0.269844 4.66225 0.269844 4.84278 0.269844C4.84278 0.432095 4.84278 0.594345 4.84278 0.761512C4.98615 0.761512 5.12951 0.761512 5.27722 0.761512C5.27722 0.599262 5.27722 0.437011 5.27722 0.269844C6.06522 0.264151 6.85321 0.259765 7.64123 0.257107C8.00713 0.25584 8.37301 0.254113 8.7389 0.251299C9.05786 0.248847 9.3768 0.247262 9.69577 0.246714C9.86462 0.246394 10.0335 0.245643 10.2023 0.243852C10.3909 0.241869 10.5795 0.241822 10.7681 0.241936C10.8239 0.241052 10.8798 0.240168 10.9373 0.239258C11.3596 0.242025 11.3596 0.242025 11.538 0.38836C11.7054 0.580509 11.7038 0.678646 11.7065 0.932695C11.7071 0.981758 11.7071 0.981758 11.7077 1.03181C11.7089 1.14023 11.7097 1.24865 11.7104 1.35708C11.7106 1.39411 11.7109 1.43114 11.7112 1.4693C11.7125 1.66532 11.7134 1.86134 11.7141 2.05736C11.7149 2.25974 11.7171 2.46208 11.7195 2.66444C11.7211 2.82012 11.7217 2.9758 11.722 3.13149C11.7223 3.20608 11.723 3.28067 11.7242 3.35525C11.7257 3.45978 11.7257 3.56421 11.7254 3.66875C11.7257 3.72817 11.7261 3.7876 11.7265 3.84882C11.689 4.0505 11.6073 4.12209 11.4558 4.25235C11.4399 4.26858 11.424 4.2848 11.4076 4.30152C11.3221 4.30625 11.2364 4.30751 11.1507 4.30743C11.095 4.3075 11.0393 4.30756 10.9819 4.30763C10.9202 4.30746 10.8586 4.30728 10.795 4.3071C10.7299 4.30709 10.6647 4.30709 10.5996 4.30712C10.4221 4.30713 10.2447 4.30684 10.0673 4.3065C9.88209 4.3062 9.69687 4.30617 9.51166 4.30611C9.16069 4.30595 8.80972 4.30555 8.45875 4.30506C8.05929 4.30451 7.65982 4.30424 7.26036 4.30399C6.43841 4.30348 5.61646 4.30261 4.79451 4.30152C4.79451 4.13927 4.79451 3.97702 4.79451 3.80985C4.65115 3.80985 4.50778 3.80985 4.36008 3.80985C4.36008 3.9721 4.36008 4.13435 4.36008 4.30152C4.18486 4.30152 4.00963 4.30152 3.8291 4.30152C3.8291 4.12304 3.8291 3.94457 3.8291 3.76068C3.98839 3.76068 4.14769 3.76068 4.31181 3.76068C4.31181 3.61466 4.31181 3.46863 4.31181 3.31818C4.15251 3.31818 3.99322 3.31818 3.8291 3.31818C3.8291 3.13971 3.8291 2.96123 3.8291 2.77735C3.98839 2.77735 4.14769 2.77735 4.31181 2.77735C4.31181 2.63132 4.31181 2.4853 4.31181 2.33485C4.15251 2.33485 3.99322 2.33485 3.8291 2.33485C3.8291 2.15637 3.8291 1.9779 3.8291 1.79401C3.98839 1.79401 4.14769 1.79401 4.31181 1.79401C4.31181 1.63176 4.31181 1.46951 4.31181 1.30235C4.15251 1.30235 3.99322 1.30235 3.8291 1.30235C3.8291 1.12387 3.8291 0.945395 3.8291 0.761512C3.98839 0.761512 4.14769 0.761512 4.31181 0.761512C4.31181 0.599262 4.31181 0.437011 4.31181 0.269844ZM4.36008 0.810679C4.36008 0.972929 4.36008 1.13518 4.36008 1.30235C4.50344 1.30235 4.6468 1.30235 4.79451 1.30235C4.79451 1.1401 4.79451 0.977846 4.79451 0.810679C4.65115 0.810679 4.50778 0.810679 4.36008 0.810679ZM4.36008 1.84318C4.36008 1.98921 4.36008 2.13523 4.36008 2.28568C4.50344 2.28568 4.6468 2.28568 4.79451 2.28568C4.79451 2.13966 4.79451 1.99363 4.79451 1.84318C4.65115 1.84318 4.50778 1.84318 4.36008 1.84318ZM4.36008 2.82651C4.36008 2.97254 4.36008 3.11857 4.36008 3.26902C4.50344 3.26902 4.6468 3.26902 4.79451 3.26902C4.79451 3.12299 4.79451 2.97697 4.79451 2.82651C4.65115 2.82651 4.50778 2.82651 4.36008 2.82651ZM4.84278 3.31818C4.84278 3.46421 4.84278 3.61023 4.84278 3.76068C4.98615 3.76068 5.12951 3.76068 5.27722 3.76068C5.27722 3.61466 5.27722 3.46863 5.27722 3.31818C5.13385 3.31818 4.99049 3.31818 4.84278 3.31818Z" fill="#7F7E82"/>
<path d="M16.4524 15.7995C16.5391 15.7995 16.5391 15.7995 16.6276 15.7994C16.7856 15.7996 16.9436 15.8005 17.1016 15.8018C17.2669 15.8029 17.4323 15.803 17.5976 15.8032C17.9104 15.8038 18.2233 15.8053 18.5361 15.8072C18.8923 15.8092 19.2486 15.8102 19.6048 15.8112C20.3374 15.8131 21.07 15.8164 21.8025 15.8204C21.8025 15.9723 21.8025 16.1243 21.8025 16.2808C21.9422 16.2808 22.0819 16.2808 22.2258 16.2808C22.2258 16.1289 22.2258 15.977 22.2258 15.8204C22.3966 15.8204 22.5673 15.8204 22.7432 15.8204C22.7432 15.9723 22.7432 16.1243 22.7432 16.2808C22.8984 16.2808 23.0536 16.2808 23.2135 16.2808C23.2135 16.4479 23.2135 16.615 23.2135 16.7872C23.0583 16.7872 22.9031 16.7872 22.7432 16.7872C22.7432 16.9239 22.7432 17.0606 22.7432 17.2015C22.8984 17.2015 23.0536 17.2015 23.2135 17.2015C23.2135 17.3686 23.2135 17.5357 23.2135 17.7079C23.0583 17.7079 22.9031 17.7079 22.7432 17.7079C22.7432 17.8446 22.7432 17.9813 22.7432 18.1222C22.8984 18.1222 23.0536 18.1222 23.2135 18.1222C23.2135 18.2893 23.2135 18.4564 23.2135 18.6286C23.0583 18.6286 22.9031 18.6286 22.7432 18.6286C22.7432 18.7805 22.7432 18.9324 22.7432 19.089C22.8984 19.089 23.0536 19.089 23.2135 19.089C23.2135 19.2561 23.2135 19.4232 23.2135 19.5953C23.0428 19.5953 22.8721 19.5953 22.6962 19.5953C22.6962 19.4434 22.6962 19.2915 22.6962 19.135C22.5565 19.135 22.4168 19.135 22.2729 19.135C22.2729 19.2869 22.2729 19.4388 22.2729 19.5953C21.4437 19.6007 20.6146 19.6048 19.7855 19.6073C19.4005 19.6085 19.0155 19.6101 18.6305 19.6127C18.2949 19.615 17.9593 19.6165 17.6237 19.617C17.4461 19.6173 17.2684 19.618 17.0908 19.6197C16.9234 19.6212 16.7562 19.6217 16.5888 19.6214C16.4983 19.6215 16.4078 19.6227 16.3174 19.624C15.873 19.6214 15.873 19.6214 15.6988 19.4994C15.5683 19.3321 15.5584 19.2428 15.5576 19.0335C15.5571 19.0009 15.5566 18.9684 15.5561 18.9349C15.5549 18.8279 15.5557 18.721 15.5566 18.614C15.5564 18.5395 15.5562 18.4649 15.5558 18.3903C15.5554 18.2342 15.556 18.0782 15.5573 17.9221C15.5589 17.7221 15.558 17.5223 15.5563 17.3223C15.5553 17.1684 15.5556 17.0145 15.5563 16.8606C15.5565 16.7868 15.5563 16.7131 15.5556 16.6394C15.5549 16.5363 15.556 16.4334 15.5576 16.3303C15.5578 16.2717 15.558 16.2131 15.5583 16.1527C15.5941 16.0046 15.5941 16.0046 15.7015 15.8934C15.9314 15.7694 16.1976 15.7964 16.4524 15.7995ZM22.2729 16.3268C22.2729 16.4635 22.2729 16.6003 22.2729 16.7411C22.4126 16.7411 22.5523 16.7411 22.6962 16.7411C22.6962 16.6044 22.6962 16.4677 22.6962 16.3268C22.5565 16.3268 22.4168 16.3268 22.2729 16.3268ZM22.2729 17.2475C22.2729 17.3843 22.2729 17.521 22.2729 17.6619C22.4126 17.6619 22.5523 17.6619 22.6962 17.6619C22.6962 17.5251 22.6962 17.3884 22.6962 17.2475C22.5565 17.2475 22.4168 17.2475 22.2729 17.2475ZM22.2729 18.1682C22.2729 18.3202 22.2729 18.4721 22.2729 18.6286C22.4126 18.6286 22.5523 18.6286 22.6962 18.6286C22.6962 18.4767 22.6962 18.3248 22.6962 18.1682C22.5565 18.1682 22.4168 18.1682 22.2729 18.1682ZM21.8025 18.6286C21.8025 18.7805 21.8025 18.9324 21.8025 19.089C21.9422 19.089 22.0819 19.089 22.2258 19.089C22.2258 18.937 22.2258 18.7851 22.2258 18.6286C22.0861 18.6286 21.9465 18.6286 21.8025 18.6286Z" fill="#7F7E82"/>
<path d="M3.24898 12.3253C3.68362 12.671 3.98958 13.0657 4.05722 13.6083C4.10784 14.1857 3.99065 14.629 3.61531 15.0985C3.23918 15.5104 2.81834 15.7452 2.23394 15.7909C1.62873 15.8191 1.14301 15.7012 0.675506 15.32C0.474302 15.1337 0.307905 14.9537 0.187066 14.713C0.17164 14.6847 0.156214 14.6564 0.140321 14.6272C-0.066801 14.1683 -0.0308501 13.5047 0.158065 13.0475C0.413521 12.6221 0.837672 12.2241 1.32574 12.052C1.98363 11.887 2.69177 11.9488 3.24898 12.3253Z" fill="#7F7E82"/>
<path d="M14.6277 4.33412C14.911 4.50896 15.1067 4.72996 15.2804 5.02165C15.3146 5.07388 15.3146 5.07388 15.3495 5.12716C15.6022 5.58793 15.5752 6.17736 15.5136 6.69138C15.4527 6.92034 15.369 7.09132 15.2338 7.28069C15.2046 7.32177 15.1754 7.36286 15.1453 7.40519C14.8457 7.7887 14.4898 8.03281 14.0215 8.11555C13.4964 8.16889 12.981 8.13797 12.5295 7.82089C12.5295 7.78848 12.5295 7.75607 12.5295 7.72268C12.502 7.71812 12.4745 7.71356 12.4462 7.70886C12.1542 7.60903 11.9699 7.21759 11.8275 6.95035C11.7211 6.68077 11.7283 6.39537 11.7281 6.1082C11.7275 6.07066 11.7269 6.03312 11.7263 5.99444C11.7255 5.64468 11.7661 5.32925 11.9641 5.037C11.9889 5.00028 12.0138 4.96356 12.0393 4.92573C12.0626 4.89256 12.0859 4.85939 12.1098 4.82521C12.1416 4.77761 12.1733 4.73 12.206 4.68095C12.307 4.56772 12.3895 4.52648 12.5295 4.48145C12.5295 4.44903 12.5295 4.41662 12.5295 4.38323C13.24 4.01722 13.9035 3.9315 14.6277 4.33412Z" fill="#7F7E82"/>
<path d="M13.5471 11.4871C13.6648 11.5042 13.7195 11.5143 13.7934 11.6115C13.8095 11.6441 13.8256 11.6767 13.8422 11.7103C13.8603 11.7459 13.8783 11.7814 13.8969 11.818C13.9241 11.8741 13.9241 11.8741 13.9518 11.9313C13.9886 12.0048 14.0254 12.0782 14.0622 12.1516C14.0782 12.1843 14.0942 12.217 14.1107 12.2507C14.161 12.3513 14.161 12.3513 14.251 12.4822C14.251 12.5292 14.251 12.5761 14.251 12.6244C14.282 12.6244 14.3129 12.6244 14.3448 12.6244C14.394 12.6787 14.4405 12.7355 14.4856 12.7932C14.8163 13.1854 15.2949 13.4772 15.7731 13.6522C15.9403 13.7144 15.9403 13.7144 16.0341 13.8091C16.0292 13.928 16.0292 13.928 15.9872 14.0461C15.8998 14.099 15.8998 14.099 15.7848 14.1349C15.4845 14.2424 15.2256 14.3995 14.9549 14.5674C14.917 14.5887 14.8791 14.61 14.8401 14.632C14.2426 14.9883 13.9795 15.6494 13.7348 16.2734C13.6574 16.2734 13.58 16.2734 13.5002 16.2734C13.4837 16.2418 13.4672 16.2102 13.4502 16.1777C12.8927 15.1267 12.2958 14.5578 11.2478 14.0461C11.2478 13.9523 11.2478 13.8584 11.2478 13.7617C11.2869 13.7411 11.3261 13.7205 11.3664 13.6992C11.6507 13.5472 11.927 13.3921 12.1909 13.2055C12.2801 13.1457 12.2801 13.1457 12.3753 13.1016C12.4873 13.0402 12.5502 12.9685 12.6321 12.8702C12.672 12.8229 12.672 12.8229 12.7127 12.7745C12.7541 12.7237 12.7541 12.7237 12.7963 12.6718C12.8412 12.6188 12.8412 12.6188 12.8871 12.5648C13.0082 12.4025 13.1022 12.2311 13.1981 12.0528C13.4158 11.6502 13.4158 11.6502 13.5471 11.4871Z" fill="#7F7E82"/>
<path d="M4.31688 0.239258C4.49394 0.239258 4.67101 0.239258 4.85344 0.239258C4.85344 0.402985 4.85344 0.566712 4.85344 0.735401C4.99831 0.735401 5.14318 0.735401 5.29244 0.735401C5.29244 0.571674 5.29244 0.407947 5.29244 0.239258C7.32062 0.239258 9.3488 0.239258 11.4384 0.239258C11.4384 0.255631 11.4384 0.272003 11.4384 0.288872C9.42636 0.288872 7.41427 0.288872 5.34122 0.288872C5.34122 0.4526 5.34122 0.616327 5.34122 0.785016C5.18025 0.785016 5.01928 0.785016 4.85344 0.785016C4.85344 0.948743 4.85344 1.11247 4.85344 1.28116C4.83734 1.28116 4.82124 1.28116 4.80466 1.28116C4.80466 1.11743 4.80466 0.953704 4.80466 0.785016C4.65979 0.785016 4.51492 0.785016 4.36566 0.785016C4.36566 1.11247 4.36566 1.43992 4.36566 1.7773C4.52662 1.7773 4.68759 1.7773 4.85344 1.7773C4.85344 1.94103 4.85344 2.10476 4.85344 2.27345C4.83734 2.27345 4.82124 2.27345 4.80466 2.27345C4.80466 2.12609 4.80466 1.97874 4.80466 1.82692C4.65979 1.82692 4.51492 1.82692 4.36566 1.82692C4.36566 2.138 4.36566 2.44908 4.36566 2.76959C4.52662 2.76959 4.68759 2.76959 4.85344 2.76959C4.85344 2.93332 4.85344 3.09704 4.85344 3.26573C5.0144 3.26573 5.17537 3.26573 5.34122 3.26573C5.34122 3.44583 5.34122 3.62593 5.34122 3.81149C5.18025 3.81149 5.01928 3.81149 4.85344 3.81149C4.85344 3.95885 4.85344 4.1062 4.85344 4.25802C7.04259 4.25802 9.23174 4.25802 11.4872 4.25802C11.4872 4.27439 11.4872 4.29077 11.4872 4.30763C9.28198 4.30763 7.07673 4.30763 4.80466 4.30763C4.80466 4.14391 4.80466 3.98018 4.80466 3.81149C4.65979 3.81149 4.51492 3.81149 4.36566 3.81149C4.36566 3.97522 4.36566 4.13895 4.36566 4.30763C4.18859 4.30763 4.01153 4.30763 3.8291 4.30763C3.8291 4.12753 3.8291 3.94743 3.8291 3.76188C3.99007 3.76188 4.15104 3.76188 4.31688 3.76188C4.31688 3.61452 4.31688 3.46717 4.31688 3.31535C4.15591 3.31535 3.99495 3.31535 3.8291 3.31535C3.8291 3.13525 3.8291 2.95515 3.8291 2.76959C3.99007 2.76959 4.15104 2.76959 4.31688 2.76959C4.31688 2.62223 4.31688 2.47488 4.31688 2.32306C4.15591 2.32306 3.99495 2.32306 3.8291 2.32306C3.8291 2.14296 3.8291 1.96286 3.8291 1.7773C3.99007 1.7773 4.15104 1.7773 4.31688 1.7773C4.31688 1.61358 4.31688 1.44985 4.31688 1.28116C4.15591 1.28116 3.99495 1.28116 3.8291 1.28116C3.8291 1.10106 3.8291 0.920959 3.8291 0.735401C3.99007 0.735401 4.15104 0.735401 4.31688 0.735401C4.31688 0.571674 4.31688 0.407947 4.31688 0.239258ZM4.36566 2.8192C4.36566 2.96656 4.36566 3.11391 4.36566 3.26573C4.51053 3.26573 4.6554 3.26573 4.80466 3.26573C4.80466 3.11838 4.80466 2.97102 4.80466 2.8192C4.65979 2.8192 4.51492 2.8192 4.36566 2.8192ZM4.85344 3.31535C4.85344 3.4627 4.85344 3.61006 4.85344 3.76188C4.99831 3.76188 5.14318 3.76188 5.29244 3.76188C5.29244 3.61452 5.29244 3.46717 5.29244 3.31535C5.14757 3.31535 5.0027 3.31535 4.85344 3.31535Z" fill="#7F7E82"/>
<path d="M4.32001 0.239258C4.49821 0.239258 4.6764 0.239258 4.86 0.239258C4.86 0.39411 4.86 0.548961 4.86 0.708505C5.0058 0.708505 5.1516 0.708505 5.30182 0.708505C5.30182 0.553654 5.30182 0.398802 5.30182 0.239258C7.343 0.239258 9.38419 0.239258 11.4872 0.239258C11.4872 0.254743 11.4872 0.270228 11.4872 0.286183C9.46224 0.286183 7.43726 0.286183 5.35091 0.286183C5.35091 0.441034 5.35091 0.595886 5.35091 0.75543C5.18891 0.75543 5.02691 0.75543 4.86 0.75543C4.86 0.910282 4.86 1.06513 4.86 1.22468C4.8438 1.22468 4.8276 1.22468 4.81091 1.22468C4.81091 1.06983 4.81091 0.914974 4.81091 0.75543C4.66511 0.75543 4.51931 0.75543 4.3691 0.75543C4.3691 1.06513 4.3691 1.37484 4.3691 1.69393C4.5311 1.69393 4.6931 1.69393 4.86 1.69393C4.86 1.84878 4.86 2.00363 4.86 2.16317C4.8438 2.16317 4.8276 2.16317 4.81091 2.16317C4.81091 2.02381 4.81091 1.88444 4.81091 1.74085C4.66511 1.74085 4.51931 1.74085 4.3691 1.74085C4.3691 2.03507 4.3691 2.32929 4.3691 2.63242C4.3529 2.63242 4.3367 2.63242 4.32001 2.63242C4.32001 2.49305 4.32001 2.35369 4.32001 2.2101C4.15801 2.2101 3.99601 2.2101 3.8291 2.2101C3.8291 2.03976 3.8291 1.86942 3.8291 1.69393C3.9911 1.69393 4.1531 1.69393 4.32001 1.69393C4.32001 1.53907 4.32001 1.38422 4.32001 1.22468C4.15801 1.22468 3.99601 1.22468 3.8291 1.22468C3.8291 1.05434 3.8291 0.884004 3.8291 0.708505C3.9911 0.708505 4.1531 0.708505 4.32001 0.708505C4.32001 0.553654 4.32001 0.398802 4.32001 0.239258Z" fill="#371602"/>
<path d="M15.7952 15.7949C17.7726 15.7949 19.75 15.7949 21.7873 15.7949C21.7873 15.949 21.7873 16.1031 21.7873 16.2619C21.9285 16.2619 22.0698 16.2619 22.2153 16.2619C22.2153 16.1078 22.2153 15.9537 22.2153 15.7949C22.3879 15.7949 22.5605 15.7949 22.7384 15.7949C22.7384 15.949 22.7384 16.1031 22.7384 16.2619C22.8953 16.2619 23.0523 16.2619 23.214 16.2619C23.214 16.4314 23.214 16.6009 23.214 16.7755C23.057 16.7755 22.9001 16.7755 22.7384 16.7755C22.7384 16.9142 22.7384 17.0529 22.7384 17.1958C22.8953 17.1958 23.0523 17.1958 23.214 17.1958C23.214 17.3653 23.214 17.5348 23.214 17.7095C22.9001 17.7095 22.5862 17.7095 22.2628 17.7095C22.2628 17.694 22.2628 17.6786 22.2628 17.6628C22.4041 17.6628 22.5453 17.6628 22.6909 17.6628C22.6909 17.5241 22.6909 17.3854 22.6909 17.2425C22.5496 17.2425 22.4084 17.2425 22.2628 17.2425C22.2628 17.2271 22.2628 17.2117 22.2628 17.1958C22.4041 17.1958 22.5453 17.1958 22.6909 17.1958C22.6909 17.0571 22.6909 16.9184 22.6909 16.7755C22.5339 16.7755 22.377 16.7755 22.2153 16.7755C22.2153 16.6214 22.2153 16.4673 22.2153 16.3086C22.0584 16.3086 21.9014 16.3086 21.7397 16.3086C21.7397 16.1545 21.7397 16.0004 21.7397 15.8416C19.778 15.8416 17.8163 15.8416 15.7952 15.8416C15.7952 15.8262 15.7952 15.8108 15.7952 15.7949ZM22.2628 16.3086C22.2628 16.4473 22.2628 16.5859 22.2628 16.7288C22.4041 16.7288 22.5453 16.7288 22.6909 16.7288C22.6909 16.5902 22.6909 16.4515 22.6909 16.3086C22.5496 16.3086 22.4084 16.3086 22.2628 16.3086Z" fill="#7F7E82"/>
<path d="M22.2153 18.1881C22.231 18.1881 22.2467 18.1881 22.2628 18.1881C22.2628 18.341 22.2628 18.4938 22.2628 18.6513C22.4041 18.6513 22.5453 18.6513 22.6909 18.6513C22.6909 18.4984 22.6909 18.3456 22.6909 18.1881C22.7065 18.1881 22.7222 18.1881 22.7384 18.1881C22.7384 18.4938 22.7384 18.7995 22.7384 19.1145C22.8953 19.1145 23.0523 19.1145 23.214 19.1145C23.214 19.2826 23.214 19.4508 23.214 19.624C23.0413 19.624 22.8687 19.624 22.6909 19.624C22.6909 19.4712 22.6909 19.3183 22.6909 19.1608C22.5496 19.1608 22.4084 19.1608 22.2628 19.1608C22.2628 19.3137 22.2628 19.4665 22.2628 19.624C20.1285 19.624 17.9942 19.624 15.7952 19.624C15.7952 19.6087 15.7952 19.5934 15.7952 19.5777C17.9138 19.5777 20.0324 19.5777 22.2153 19.5777C22.2153 19.1191 22.2153 18.6606 22.2153 18.1881Z" fill="#341502"/>
<path d="M22.7351 19.1454C22.8931 19.1454 23.051 19.1454 23.2137 19.1454C23.2137 19.3033 23.2137 19.4613 23.2137 19.624C23.0558 19.624 22.8978 19.624 22.7351 19.624C22.7351 19.4661 22.7351 19.3081 22.7351 19.1454Z" fill="#7F7E82"/>
<path d="M22.7351 17.2308C22.8931 17.2308 23.051 17.2308 23.2137 17.2308C23.2137 17.3888 23.2137 17.5467 23.2137 17.7095C23.0558 17.7095 22.8978 17.7095 22.7351 17.7095C22.7351 17.5515 22.7351 17.3936 22.7351 17.2308Z" fill="#7F7E82"/>
<path d="M3.8291 1.67529C3.98705 1.67529 4.145 1.67529 4.30773 1.67529C4.30773 1.83324 4.30773 1.99119 4.30773 2.15393C4.14979 2.15393 3.99184 2.15393 3.8291 2.15393C3.8291 1.99598 3.8291 1.83803 3.8291 1.67529Z" fill="#7F7E82"/>
<path d="M3.8291 0.718018C3.98705 0.718018 4.145 0.718018 4.30773 0.718018C4.30773 0.875966 4.30773 1.03392 4.30773 1.19665C4.14979 1.19665 3.99184 1.19665 3.8291 1.19665C3.8291 1.0387 3.8291 0.880753 3.8291 0.718018Z" fill="#7F7E82"/>
<path d="M22.2566 18.6666C22.4145 18.6666 22.5725 18.6666 22.7352 18.6666C22.7352 18.8246 22.7352 18.9825 22.7352 19.1453C22.5773 19.1453 22.4193 19.1453 22.2566 19.1453C22.2566 18.9873 22.2566 18.8294 22.2566 18.6666Z" fill="#7F7E82"/>
<path d="M22.7351 16.2734C22.8931 16.2734 23.051 16.2734 23.2137 16.2734C23.2137 16.4314 23.2137 16.5893 23.2137 16.7521C23.0558 16.7521 22.8978 16.7521 22.7351 16.7521C22.7351 16.5941 22.7351 16.4362 22.7351 16.2734Z" fill="#7F7E82"/>
<path d="M4.54688 0.239258C4.62585 0.239258 4.70482 0.239258 4.78619 0.239258C4.78619 0.397207 4.78619 0.555155 4.78619 0.71789C4.70722 0.71789 4.62824 0.71789 4.54688 0.71789C4.54688 0.559942 4.54688 0.401993 4.54688 0.239258Z" fill="#7F7E82"/>
<path d="M22.2566 15.7949C22.4145 15.7949 22.5725 15.7949 22.7352 15.7949C22.7352 15.9529 22.7352 16.1108 22.7352 16.2736C22.5773 16.2736 22.4193 16.2736 22.2566 16.2736C22.2566 16.1156 22.2566 15.9577 22.2566 15.7949Z" fill="#7F7E82"/>
<path d="M4.06836 3.82898C4.14733 3.82898 4.22631 3.82898 4.30768 3.82898C4.30768 3.90795 4.30768 3.98693 4.30768 4.0683C4.2287 4.0683 4.14973 4.0683 4.06836 4.0683C4.06836 3.98932 4.06836 3.91035 4.06836 3.82898Z" fill="#7F7E82"/>
<path d="M4.54688 3.35034C4.62585 3.35034 4.70482 3.35034 4.78619 3.35034C4.78619 3.42932 4.78619 3.50829 4.78619 3.58966C4.70722 3.58966 4.62824 3.58966 4.54688 3.58966C4.54688 3.51068 4.54688 3.43171 4.54688 3.35034Z" fill="#7F7E82"/>
<path d="M4.06836 2.87183C4.14733 2.87183 4.22631 2.87183 4.30768 2.87183C4.30768 2.9508 4.30768 3.02977 4.30768 3.11114C4.2287 3.11114 4.14973 3.11114 4.06836 3.11114C4.06836 3.03217 4.06836 2.95319 4.06836 2.87183Z" fill="#7F7E82"/>
<path d="M99.9254 1.43604C99.9613 1.4532 99.9972 1.47037 100.034 1.48806C99.6394 1.86576 99.2445 2.24347 98.8376 2.63262C98.8376 2.43803 98.8885 2.40096 99.0212 2.25868C99.0723 2.20285 99.0723 2.20285 99.1245 2.1459C99.2184 2.06034 99.2184 2.06034 99.3272 2.06034C99.3399 2.03056 99.3527 2.00079 99.3658 1.97011C99.4519 1.82535 99.5555 1.73931 99.6875 1.63113C99.7319 1.59438 99.7764 1.55763 99.8222 1.51976C99.8563 1.49213 99.8903 1.4645 99.9254 1.43604Z" fill="#7F7E82"/>
<path d="M122.291 1.67529C122.291 1.81888 122.291 1.81888 122.146 1.95855C122.084 2.01108 122.022 2.06323 121.959 2.11504C121.928 2.14178 121.896 2.16853 121.864 2.19609C121.785 2.26213 121.707 2.32773 121.628 2.39324C121.61 2.36165 121.592 2.33006 121.573 2.29752C121.796 2.06723 122.017 1.86041 122.291 1.67529Z" fill="#7F7E82"/>
</svg>
