<svg width="176" height="35" viewBox="0 0 176 35" fill="none" xmlns="http://www.w3.org/2000/svg">
<g clip-path="url(#clip0_7696_7439)">
<path d="M29.9136 23.8049C29.9136 23.6951 29.8042 23.6951 29.6948 23.6951C29.5854 23.6951 29.5854 23.6951 29.476 23.8049C26.8871 25.7805 24.4076 27.8659 22.0375 30.1341C21.9281 30.1341 21.9281 30.2439 21.9281 30.3537C21.9281 30.4634 21.9281 30.4634 22.0375 30.5732L23.1678 31.9268C23.1678 32.0366 23.2772 32.0366 23.3866 32.0366C23.496 32.0366 23.496 32.0366 23.6054 31.9268C26.1943 29.9512 28.6738 27.8659 31.044 25.5976C31.1533 25.5976 31.1533 25.4878 31.1533 25.378C31.1533 25.2683 31.1533 25.2683 31.044 25.1585L29.9136 23.8049ZM26.0849 23.9146V22.122C26.0849 22.0122 26.0849 22.0122 25.9755 21.9024C25.9755 21.7927 25.8661 21.7927 25.7567 21.7927C22.548 21.5732 19.2298 21.5732 16.021 21.7927C15.9116 21.7927 15.9116 21.7927 15.8022 21.9024C15.7293 22.0488 15.7293 22.122 15.7293 22.122V23.878C15.7293 23.9878 15.7293 23.9878 15.8387 24.0976C15.9481 24.2073 15.9481 24.2073 16.0574 24.2073C19.2662 24.4268 22.5844 24.4268 25.7932 24.2073C25.9026 24.2073 25.9026 24.2073 26.012 24.0976C25.9755 24.0976 26.0849 24.0244 26.0849 23.9146ZM22.9491 19.8537L24.0794 18.5C24.0794 18.3902 24.1888 18.3902 24.1888 18.2805C24.1888 18.1707 24.1888 18.1707 24.0794 18.061C21.7093 15.7927 19.2298 13.7073 16.6409 11.7317H16.4585C16.3492 11.7317 16.3492 11.7317 16.2398 11.8415L15.1094 13.1951C15.1094 13.3049 15 13.3049 15 13.4146C15 13.5244 15 13.5244 15.1094 13.6341C17.4795 15.9024 19.959 17.9878 22.548 19.9634C22.6573 19.9634 22.6573 20.0732 22.7667 20.0732L22.9491 19.8537ZM22.9491 14.439C22.9491 14.5488 23.0584 14.5488 23.0584 14.6585C23.1678 14.6585 23.1678 14.7683 23.2772 14.6585L25.0275 14.3293C25.1369 14.3293 25.1369 14.2195 25.2463 14.2195C25.2463 14.1098 25.3556 14.1098 25.3556 14C24.9545 10.7805 24.3347 7.56098 23.6054 4.45122C23.6054 4.34146 23.496 4.34146 23.496 4.23171C23.3866 4.23171 23.3866 4.12195 23.2772 4.23171L21.527 4.45122C21.4176 4.45122 21.4176 4.56098 21.3082 4.56098C21.3082 4.67073 21.1988 4.67073 21.1988 4.78049C21.6364 8.10976 22.2562 11.3293 22.9491 14.439ZM26.7777 11.0366L28.3457 11.9878H28.5644C28.6738 11.9878 28.6738 11.878 28.7832 11.878C30.5335 9.17073 32.2108 6.28049 33.6329 3.35366V3.13415C33.6329 3.02439 33.5235 3.02439 33.5235 2.91463L31.9555 2H31.7732C31.6638 2 31.6638 2.10976 31.5544 2.10976C29.8042 4.81707 28.1269 7.70732 26.7048 10.6341V10.8537C26.7048 10.9268 26.7048 10.9268 26.7777 11.0366ZM42.2018 8.54878L41.5819 6.90244C41.5819 6.79268 41.4725 6.79268 41.4725 6.68293H41.2537C38.1543 7.63415 35.0549 8.76829 32.0285 10.0122C31.9191 10.0122 31.9191 10.122 31.9191 10.122V10.3415L32.539 11.9878C32.539 12.0976 32.6484 12.0976 32.6484 12.2073H32.8671C35.9665 11.2561 39.0659 10.122 42.0924 8.87805C42.2018 8.87805 42.2018 8.76829 42.2018 8.76829V8.54878ZM45.6294 16.4146C42.6394 15.061 39.54 14.0366 36.4041 13.0854H36.1853C36.0759 13.0854 36.0759 13.1951 36.0759 13.3049L35.5654 14.878V15.0976C35.5654 15.2073 35.6748 15.2073 35.6748 15.2073C38.6648 16.561 41.6913 17.5854 44.9001 18.5366H45.1189C45.2283 18.5366 45.2283 18.4268 45.2283 18.3171L45.8482 16.6707V16.4512C45.8482 16.5244 45.7388 16.4146 45.6294 16.4146Z" fill="#ABAAB2"/>
<path d="M101.819 5.62195C101.6 5.62195 101.309 5.62195 101.09 5.7317C100.871 5.84146 100.689 5.95122 100.47 6.13414C100.251 6.35366 100.142 6.53658 100.069 6.75609C99.9596 6.97561 99.9596 7.26829 99.9596 7.4878C99.9596 7.70731 99.9596 8 100.069 8.21951C100.178 8.43902 100.288 8.62195 100.47 8.84146C100.689 9.06097 100.871 9.17073 101.09 9.2439C101.309 9.35366 101.6 9.35366 101.819 9.35366C102.038 9.35366 102.33 9.35366 102.548 9.2439C102.767 9.13414 102.95 9.02439 103.168 8.84146C103.387 8.62195 103.497 8.43902 103.569 8.21951C103.679 8 103.679 7.70731 103.679 7.4878C103.679 7.26829 103.679 6.97561 103.569 6.75609C103.569 6.53658 103.351 6.35366 103.168 6.13414C102.95 5.91463 102.767 5.80488 102.548 5.7317C102.33 5.62195 102.111 5.62195 101.819 5.62195ZM133.141 12.1707C132.193 11.439 131.063 11.0366 129.641 11.0366C128.511 11.0366 127.453 11.2561 126.651 11.7683C125.812 12.1707 125.302 12.7927 125.01 13.5244L124.682 13.4146L125.01 12.4634C125.119 12.1341 125.119 11.9512 125.119 11.6219V11.2927H121.911V25.5244H125.119V16.7439C125.119 15.7927 125.448 15.0976 126.067 14.4756C126.687 13.9634 127.635 13.6341 128.438 13.6341H128.547C129.495 13.6341 130.188 13.8537 130.735 14.2561C131.245 14.6585 131.573 15.3902 131.573 16.3415V25.4878H134.782V15.9024C134.491 14.1463 134.089 12.9024 133.141 12.1707ZM116.295 11.9512C115.165 11.3293 113.925 11 112.576 11C111.227 11 109.987 11.3293 108.857 11.9512C107.836 12.5732 106.888 13.4146 106.377 14.5488C105.757 15.6829 105.538 16.9268 105.538 18.5C105.538 20.0732 105.867 21.3171 106.487 22.4512C106.997 23.5854 107.945 24.4268 108.966 25.0488C110.096 25.6707 111.336 26 112.576 26C113.816 26 115.165 25.6707 116.295 25.0488C117.316 24.4268 118.264 23.4756 118.775 22.4512C119.395 21.3171 119.723 19.9634 119.723 18.5C119.723 17.0366 119.395 15.6829 118.775 14.5488C118.155 13.4146 117.316 12.5 116.295 11.9512ZM115.457 22.0488C114.837 23 113.889 23.5122 112.758 23.5122H112.539C111.409 23.5122 110.461 23 109.841 22.0488C109.221 21.0976 108.893 19.8537 108.893 18.5366C108.893 17.1829 109.221 15.939 109.841 15.0244C110.461 14.0732 111.409 13.6707 112.539 13.6707H112.758C113.889 13.6707 114.837 14.0732 115.457 15.0244C116.076 15.9756 116.405 17.1098 116.405 18.5366C116.405 19.8537 116.076 21.0976 115.457 22.0488ZM103.351 11.3293H100.142V25.561H103.351V11.3293ZM96.7508 22.9634C96.2403 22.9634 95.8027 22.7439 95.6204 22.4512C95.2922 22.122 95.2193 21.7195 95.2193 21.0976V13.8171H97.8082V11.3293H95.2193V7.41463H92.0105V11.4756H89.9321V13.8537H92.0105V21.0244C92.0105 22.5976 92.3387 23.7317 92.9586 24.5366C93.5784 25.3415 94.5994 25.7805 96.058 25.7805C96.5685 25.7805 97.006 25.7805 97.4071 25.6707C97.8082 25.561 98.027 25.561 98.027 25.561V22.8537C97.9176 22.8537 97.6988 22.8537 97.6259 22.9634H96.7508ZM84.7178 22.561C84.0979 23.1829 83.3687 23.5122 82.4571 23.5122H82.2383C81.1079 23.5122 80.1599 23 79.54 22.0488C78.9201 21.0976 78.5919 19.8537 78.5919 18.5366C78.5919 17.0732 78.9201 15.939 79.54 15.0244C80.1599 14.0732 81.1079 13.6707 82.2383 13.6707H82.4571C83.2957 13.6707 84.0979 14 84.6449 14.5122C85.2648 15.0244 85.6659 15.7561 85.7753 16.5976H89.0934C88.7653 14.8415 87.9631 13.4878 86.8327 12.5366C85.5929 11.5854 84.1344 11.1829 82.3841 11.1829C81.035 11.1829 79.7952 11.5122 78.6649 12.1341C77.6439 12.7561 76.6958 13.5976 76.1853 14.7317C75.5655 15.8659 75.3467 17.1098 75.3467 18.6829C75.3467 20.1463 75.6749 21.5 76.1853 22.6341C76.6958 23.7683 77.6439 24.6098 78.6649 25.2317C79.6858 25.8537 80.9256 26.1829 82.3841 26.1829C83.5145 26.1829 84.6449 25.9634 85.7023 25.4512C86.6504 25.0488 87.4526 24.3171 88.0725 23.4756C88.6923 22.6341 89.0934 21.6098 89.2028 20.5854H85.8846C85.6659 21.0976 85.3377 21.939 84.7178 22.561Z" fill="#ABAAB2"/>
<path d="M63.8246 6.68298L56.7871 25.561H60.1053L61.9649 20.6952H69.7317L71.7007 25.561H75.1283L67.6897 6.68298H63.8246ZM62.8036 18.2074L64.882 12.2805L65.2102 11.3293C65.3196 10.8171 65.429 10.3049 65.429 9.75615V9.53664H66.1582V9.68298C66.1582 10.1952 66.2676 10.7074 66.4864 11.2562L66.8146 12.2074L69.0753 18.1342C69.0024 18.0976 62.8036 18.2074 62.8036 18.2074Z" fill="#ABAAB2"/>
<path d="M140.69 6.7926H137.481V25.6706H140.69V6.7926Z" fill="#ABAAB2"/>
<path d="M160.454 19.9634C160.855 18.7195 160.964 17.3658 160.964 16.1219C160.964 14.1463 160.636 12.5 159.943 11.0366C159.323 9.57315 158.193 8.439 156.844 7.59754C155.495 6.75608 153.963 6.35364 152.067 6.35364C150.171 6.35364 148.639 6.75608 147.29 7.59754C145.941 8.439 144.92 9.57315 144.191 11.0366C143.462 12.5 143.17 14.2561 143.17 16.1219C143.17 18.0975 143.498 19.7439 144.191 21.2073C144.811 22.6707 145.941 23.8049 147.29 24.6463C148.639 25.4878 150.171 25.8902 152.067 25.8902C153.817 25.8902 155.385 25.4878 156.625 24.7561C157.026 25.2683 157.573 25.7805 157.974 26.3292C157.974 26.439 158.084 26.439 158.193 26.439C158.302 26.439 158.302 26.439 158.412 26.3292L159.761 25.1951C159.87 25.1951 159.87 25.0853 159.87 24.9756V24.7561C159.469 24.2439 159.032 23.6219 158.63 23.1097L158.849 22.8902C159.651 22.1219 160.162 21.0975 160.454 19.9634ZM156.734 20.5853C155.786 19.4512 154.875 18.3171 153.854 17.1463C153.854 17.0366 153.744 17.0366 153.635 17.0366C153.526 17.0366 153.526 17.0366 153.416 17.1463L152.067 18.2805C151.958 18.2805 151.958 18.3902 151.958 18.5V18.7195C152.906 20.0732 153.817 21.3171 154.838 22.6707C154 23.0732 153.088 23.4024 152.249 23.4024H152.103C150.463 23.4024 149.113 22.7805 148.056 21.4268C147.108 20.1829 146.597 18.4268 146.597 16.2317C146.597 14.0366 147.108 12.2805 148.056 11.0366C149.004 9.79266 150.317 9.06095 152.103 9.06095H152.322C154.073 9.06095 155.312 9.68291 156.37 10.9268C157.318 12.1707 157.828 13.9268 157.828 16.1219C157.792 17.9878 157.354 19.4512 156.734 20.5853Z" fill="#ABAAB2"/>
</g>
<defs>
<clipPath id="clip0_7696_7439">
<rect width="146" height="30" fill="white" transform="translate(15 2)"/>
</clipPath>
</defs>
</svg>
