<svg width="124" height="35" viewBox="0 0 124 35" fill="none" xmlns="http://www.w3.org/2000/svg">
<g clip-path="url(#clip0_1380_228)">
<path d="M119.223 11.313H118.49V10.9809H120.334V11.313H119.589V13.3404H119.212V11.313H119.223ZM121.033 10.9695L121.789 12.7907L122.545 10.9695H122.98V13.329H122.626V11.6682L121.927 13.329H121.629L120.941 11.6682V13.329H120.587V10.9695H121.033Z" fill="#7F7E82"/>
<path d="M117.184 10.9695L111.08 27.3602C110.645 28.5171 109.533 29.2959 108.296 29.2959H105.169V26.8562H108.606L109.613 24.176L104.425 10.9809H107.277L110.896 20.9917L114.436 10.9809H117.184V10.9695Z" fill="#7F7E82"/>
<path d="M32.5967 17.6242C32.5967 13.5465 35.2883 10.7747 39.1598 10.7747C42.3096 10.7747 44.7036 12.4928 45.1617 15.7801H42.4128C42.1264 14.2682 40.8436 13.2143 39.2057 13.2143C36.9263 13.2143 35.4373 14.9554 35.4373 17.6242C35.4373 20.3158 36.9491 22.0569 39.2057 22.0569C40.8779 22.0569 42.1034 21.0833 42.4128 19.3881H45.1617C44.6234 22.8472 42.2868 24.4966 39.1598 24.4966C35.2883 24.4966 32.5967 21.7247 32.5967 17.6242Z" fill="#7F7E82"/>
<path d="M46.5706 17.6242C46.5706 13.6725 49.3424 10.7747 53.2712 10.7747C57.1198 10.7747 59.9718 13.6496 59.9718 17.6242C59.9718 21.6217 57.1198 24.4966 53.2712 24.4966C49.3424 24.4966 46.5706 21.5987 46.5706 17.6242ZM57.0969 17.6242C57.0969 15.0355 55.5047 13.2143 53.2712 13.2143C50.9346 13.2143 49.4226 15.0585 49.4226 17.6242C49.4226 20.2128 50.9346 22.0569 53.2712 22.0569C55.5277 22.0569 57.0969 20.2128 57.0969 17.6242Z" fill="#7F7E82"/>
<path d="M62.9726 22.6068V13.3404H60.613V10.9809H62.9726V7.00635H65.882L64.7594 10.9809H69.0089V13.3404H65.7788V21.8622H69.0089V24.302H64.6678C63.7171 24.2905 62.9726 23.5346 62.9726 22.6068Z" fill="#7F7E82"/>
<path d="M97.5524 22.6068V13.3404H95.1929V10.9809H97.5524V7.00635H100.462L99.3393 10.9809H103.589V13.3404H100.359V21.8622H103.589V24.302H99.2476C98.3084 24.2905 97.5524 23.5346 97.5524 22.6068Z" fill="#7F7E82"/>
<path d="M70.3032 20.671C70.3032 18.3573 71.9755 16.9255 74.8734 16.5361L77.7254 16.1466C78.4929 16.0435 78.8823 15.6884 78.8823 15.047C78.8823 13.8902 77.8286 12.9968 76.0875 12.9968C74.4725 12.9968 73.2928 13.8215 73.1668 15.3105H70.4177C70.7271 12.5386 72.8575 10.7747 76.0875 10.7747C79.5008 10.7747 81.677 12.7218 81.677 15.6999V21.9882H82.9829V24.3019C82.9829 24.3019 81.7458 24.3019 81.2075 24.3019C79.8215 24.3019 79.2144 23.5689 79.2144 22.3547C78.5731 23.6834 76.9007 24.5081 74.9077 24.5081C72.2046 24.4966 70.3032 22.9274 70.3032 20.671ZM78.9511 18.4374V17.9449L75.3315 18.5405C73.8425 18.7696 73.098 19.4339 73.098 20.5678C73.098 21.5987 73.9915 22.3089 75.3315 22.3089C77.6109 22.3089 78.9511 20.7282 78.9511 18.4374Z" fill="#7F7E82"/>
<path d="M84.8269 5.71204H87.6218V24.2905H84.8269V5.71204Z" fill="#7F7E82"/>
<path d="M90.5195 5.71204H93.6466V8.8619H90.5195V5.71204ZM90.68 10.9695H93.4747V24.279H90.68V10.9695Z" fill="#7F7E82"/>
<path d="M1.201 18.0823C1.72788 16.9713 2.41513 15.929 3.29709 15.0012L4.15614 16.0664L1.201 18.0823ZM6.25224 15.6999L5.08392 16.3069L7.12274 18.3573C6.7104 17.5326 6.42404 16.6391 6.25224 15.6999ZM11.2691 8.2777L10.1352 7.22392L8.55449 10.0187L11.2691 8.2777ZM15.6102 7.46446L14.8427 5.88381L12.0365 8.18606L15.6102 7.46446ZM19.8597 7.64773L19.516 5.92962L16.2173 7.44155L19.8597 7.64773ZM24.0174 8.54114L23.9716 6.78868L20.4667 7.7279L24.0174 8.54114ZM13.4339 5.54018L12.5978 4.40623L10.7193 6.62832L13.4339 5.54018ZM16.9389 4.34896L16.5609 2.99738L14.018 4.40623L16.9389 4.34896ZM20.7989 4.5895L20.9363 3.1921L18.0613 3.59299L20.7989 4.5895ZM24.9109 5.37983L25.3003 4.02825L22.4024 3.87935L24.9109 5.37983ZM28.9885 6.69704L29.4582 5.37983L26.5717 5.05911L28.9885 6.69704ZM16.6754 29.4334L17.1336 31.0026L20.0773 29.3302L16.6754 29.4334ZM12.5405 29.7082L12.529 31.4607L16.0684 30.6474L12.5405 29.7082ZM8.69194 28.6659L8.05051 30.4069L11.6585 30.5673L8.69194 28.6659ZM5.73681 26.2835L4.49976 27.5205L7.59235 29.4219L5.73681 26.2835ZM4.8892 22.4464L3.15965 22.7442L4.5914 26.0888L4.8892 22.4464ZM5.2901 18.0595L3.53763 17.922L4.11032 21.5072L5.2901 18.0595ZM20.8218 26.3408L21.383 27.4976L23.4562 25.8024L20.8218 26.3408ZM17.0191 26.8905L17.3168 28.265L19.9398 27.005L17.0191 26.8905ZM12.9872 26.6958L12.8955 28.0932L15.7591 27.6007L12.9872 26.6958ZM9.37919 25.1151L8.90958 26.4323L11.796 26.7531L9.37919 25.1151ZM7.15711 22.0569L6.02315 22.8816L8.22233 24.783L7.15711 22.0569ZM10.1352 21.9652L9.6999 23.1221L12.3802 23.3054C11.567 22.9389 10.8109 22.4807 10.1352 21.9652ZM7.42055 18.9071L6.56149 19.9952L9.2532 21.2093C8.52014 20.5335 7.91307 19.7547 7.42055 18.9071ZM17.649 24.4851L18.0156 25.6535L20.1918 24.3592C19.3213 24.4737 18.4737 24.5196 17.649 24.4851ZM13.6859 25.035L16.1829 24.3706C15.3009 24.2561 14.4534 24.0614 13.6515 23.7979L13.6859 25.035ZM21.8297 24.0614L22.4597 25.0923L24.258 23.3283C23.4333 23.6376 22.6315 23.8781 21.8297 24.0614ZM8.81794 5.55163L11.063 4.69258L10.3986 3.76481C9.8259 4.3146 9.28756 4.9102 8.81794 5.55163ZM17.9926 1.39382L18.0041 0.225501C17.1794 0.351495 16.3891 0.534762 15.6446 0.763842L17.9926 1.39382ZM14.1555 2.59649L13.8119 1.47399C13.0674 1.82907 12.3687 2.22996 11.7158 2.69957L14.1555 2.59649ZM8.81794 7.71645L7.89016 7.01775C7.51218 7.71645 7.18001 8.4495 6.91657 9.21693L8.81794 7.71645ZM19.9742 0.0193292L22.1161 1.18765L22.4024 0.0536899C21.5663 -0.00358034 20.753 -0.015033 19.9742 0.0193292ZM30.7639 2.02379C29.9736 1.72598 29.2062 1.46254 28.4502 1.23345L30.3287 3.15773L30.7639 2.02379ZM24.3381 0.28277L26.2052 1.81762L26.6977 0.752387C25.896 0.557669 25.1056 0.397311 24.3381 0.28277ZM28.3127 8.48387L24.6016 8.72441L27.6942 10.1218L28.3127 8.48387ZM9.37919 11.4276L6.72185 9.83545C6.44696 10.7632 6.25224 11.7253 6.14915 12.7218C7.19146 12.1606 8.2796 11.7368 9.37919 11.4276ZM26.858 24.909C27.5453 23.6949 28.1867 22.3891 28.7594 21.0145C27.6255 21.7705 26.4915 22.3891 25.3576 22.8816L26.858 24.909ZM13.9494 10.7861C15.3582 10.7632 16.7785 10.8892 18.1988 11.1413L17.775 8.89622L13.9494 10.7861ZM9.64263 11.3588C10.9598 11.0153 12.3115 10.832 13.6745 10.7976L12.781 8.78168L9.64263 11.3588ZM22.7117 12.2981C23.9373 12.7105 25.14 13.203 26.3083 13.7413L27.1215 11.588L22.7117 12.2981ZM18.4623 11.187C19.8138 11.439 21.154 11.7941 22.4712 12.2293L22.4024 9.9729L18.4623 11.187ZM2.60984 27.005L0.731383 27.658C1.22391 29.0095 1.96842 30.2694 2.95346 31.3461L2.60984 27.005ZM6.98529 34.0951L4.70594 30.2694L3.30854 31.7013C4.30504 32.6978 5.54209 33.5225 6.98529 34.0951ZM1.97987 23.1221L0.00977885 22.9732C-0.0474914 24.4164 0.147227 25.8483 0.582481 27.2113L1.97987 23.1221ZM2.52967 19.3767L1.00628 18.5061C0.445031 19.812 0.124317 21.1864 0.0326849 22.5724L2.52967 19.3767ZM24.3153 28.643C25.1743 27.5892 25.9761 26.421 26.7092 25.161L23.1927 26.9593L24.3153 28.643ZM8.14215 32.2968L7.34038 34.2326C8.63468 34.6907 10.0893 34.9657 11.7158 34.9885L8.14215 32.2968ZM12.277 32.8925L12.1282 35C13.6515 34.9771 15.0947 34.7365 16.4692 34.3013L12.277 32.8925ZM16.2746 32.1823L16.8243 34.1638C18.1988 33.6828 19.4931 32.9841 20.6958 32.1021L16.2746 32.1823ZM20.1575 30.0747L20.9935 31.8845C22.1047 31.0369 23.1469 30.0289 24.1091 28.895L20.1575 30.0747ZM6.1377 14.8752C6.06897 14.1765 6.06897 13.4664 6.14915 12.7218C5.35882 13.18 4.64867 13.7069 4.00724 14.2797L6.1377 14.8752Z" fill="#7F7E82"/>
</g>
<defs>
<clipPath id="clip0_1380_228">
<rect width="123.594" height="35" fill="white"/>
</clipPath>
</defs>
</svg>
