<svg width="150" height="28" viewBox="0 0 150 28" fill="none" xmlns="http://www.w3.org/2000/svg">
<g clip-path="url(#clip0_1380_183)">
<path d="M74.5695 22.166H75.4099V18.9682H73.0616V19.9561H74.2408C74.136 20.7617 73.6594 21.2298 72.9934 21.2298C72.1437 21.2298 71.6506 20.4673 71.6506 19.0199C71.6506 17.5381 72.1272 16.7749 73.0279 16.7749C73.574 16.7749 73.9465 17.0613 74.1977 17.6508L75.2721 17.3816C74.9599 16.3506 74.1805 15.787 73.0537 15.787C71.4245 15.787 70.4463 16.94 70.4463 18.9503C70.4463 21.0567 71.3635 22.2701 72.8463 22.2701C73.5827 22.2701 74.1109 22.0274 74.5092 21.5069L74.5695 22.166Z" fill="#7F7E82"/>
<path fill-rule="evenodd" clip-rule="evenodd" d="M78.2181 18.6121V16.861H79.2495C79.9944 16.861 80.3583 17.1209 80.3583 17.7362C80.3583 18.3429 80.0031 18.6121 79.2495 18.6121H78.2181ZM77.0576 22.166H78.2181V19.6093H79.3011L80.5133 22.166H81.7873L80.392 19.3408C81.137 19.1326 81.5533 18.569 81.5533 17.7455C81.5533 16.4633 80.7731 15.8652 79.1877 15.8652H77.0569L77.0576 22.166Z" fill="#7F7E82"/>
<path fill-rule="evenodd" clip-rule="evenodd" d="M84.0905 19.0278C84.0905 17.5804 84.5843 16.8352 85.5023 16.8352C86.4209 16.8352 86.9147 17.5804 86.9147 19.0278C86.9147 20.4666 86.4209 21.2032 85.5023 21.2032C84.5836 21.2039 84.0905 20.4666 84.0905 19.0278ZM82.8862 19.0278C82.8862 21.0732 83.8903 22.2693 85.5023 22.2693C87.1142 22.2693 88.119 21.0732 88.119 19.0278C88.119 16.9737 87.1221 15.7863 85.5023 15.7863C83.8824 15.7863 82.8862 16.9745 82.8862 19.0278Z" fill="#7F7E82"/>
<path d="M89.5779 19.8513C89.5779 21.4717 90.3487 22.2693 91.9599 22.2693C93.4937 22.2693 94.3513 21.4717 94.3513 20.0415V15.8645H93.1994V19.903C93.1994 20.8219 92.8872 21.229 91.9599 21.229C91.0851 21.229 90.7642 20.7961 90.7642 19.903V15.8645H89.5779V19.8513Z" fill="#7F7E82"/>
<path fill-rule="evenodd" clip-rule="evenodd" d="M97.3866 18.6214V16.8445H98.2701C99.084 16.8445 99.4572 17.0527 99.4572 17.7369C99.4572 18.4132 99.0754 18.6214 98.2701 18.6214H97.3866ZM96.1917 22.166H97.3866V19.618H98.5565C99.9244 19.618 100.644 18.9589 100.644 17.7369C100.644 16.4719 99.9158 15.8652 98.4438 15.8652H96.1917V22.166Z" fill="#7F7E82"/>
<path fill-rule="evenodd" clip-rule="evenodd" d="M72.0216 11.1239V6.91098H72.6546C73.9278 6.91098 74.5084 7.56073 74.5084 8.99088C74.5084 10.49 73.9716 11.1232 72.6711 11.1232L72.0216 11.1239ZM70.8352 12.1628H72.7156C74.7072 12.1628 75.7127 11.0966 75.7127 8.99088C75.7127 6.92821 74.7079 5.86206 72.7587 5.86206H70.8352V12.1628Z" fill="#7F7E82"/>
<path d="M77.2415 12.1628H81.4608V11.088H78.4192V9.38074H80.5415V8.37633H78.4192V6.88515H81.3309V5.86279H77.2415V12.1628Z" fill="#7F7E82"/>
<path d="M82.8596 9.84884C82.8596 11.4693 83.6304 12.2669 85.241 12.2669C86.7754 12.2669 87.6323 11.4693 87.6323 10.0398V5.86279H86.4811V9.90125C86.4811 10.8202 86.1689 11.2273 85.241 11.2273C84.3661 11.2273 84.0467 10.7944 84.0467 9.90125V5.86279H82.8596V9.84884Z" fill="#7F7E82"/>
<path d="M90.5986 12.1628H91.7943V6.9031H93.4494V5.86279H88.9436V6.9031H90.5986V12.1628Z" fill="#7F7E82"/>
<path d="M94.292 10.7412C94.6989 11.7298 95.5135 12.2496 96.674 12.2496C98.0262 12.2496 98.8135 11.5216 98.8135 10.3772C98.8135 9.3893 98.2939 8.98222 97.2453 8.53996C96.2492 8.11565 95.6341 8.01155 95.6341 7.42212C95.6341 7.01504 95.9463 6.75514 96.4659 6.75514C97.0028 6.75514 97.3408 7.00642 97.6006 7.56068L98.675 7.17083C98.3456 6.26048 97.6264 5.79309 96.552 5.79309C95.3047 5.79309 94.4994 6.51248 94.4994 7.50899C94.4994 8.10704 94.7592 8.59237 95.2358 8.89535C95.6513 9.16386 96.1709 9.3376 96.7343 9.54509C97.3839 9.78848 97.6702 10.0046 97.6702 10.4296C97.6702 10.9063 97.2891 11.2265 96.6475 11.2265C96.0848 11.2265 95.6944 10.9322 95.3657 10.2652L94.292 10.7412Z" fill="#7F7E82"/>
<path d="M103.593 10.2832C103.428 10.8633 102.969 11.2187 102.389 11.2187C101.488 11.2187 101.089 10.5079 101.089 9.05265C101.089 7.53562 101.504 6.78178 102.362 6.78178C102.934 6.78178 103.306 7.09337 103.462 7.70003L104.554 7.43152C104.311 6.36537 103.566 5.78455 102.431 5.78455C100.82 5.78455 99.8843 6.94619 99.8843 9.04331C99.8843 11.1756 100.734 12.2676 102.362 12.2676C103.557 12.2676 104.372 11.6696 104.684 10.5862L103.593 10.2832Z" fill="#7F7E82"/>
<path d="M106.054 12.1628H107.241V9.42454H109.641V12.1628H110.829V5.86279H109.641V8.3591H107.241V5.86279H106.054V12.1628Z" fill="#7F7E82"/>
<path d="M112.705 12.1628H116.925V11.088H113.883V9.38074H116.005V8.37633H113.883V6.88515H116.795V5.86279H112.705V12.1628Z" fill="#7F7E82"/>
<path fill-rule="evenodd" clip-rule="evenodd" d="M122.498 8.38421V6.83344H123.4C124.18 6.83344 124.57 7.03303 124.57 7.60524C124.57 8.13365 124.197 8.38493 123.469 8.38493H122.498M122.498 11.1921V9.32903H123.521C124.31 9.32903 124.7 9.62339 124.7 10.2473C124.7 10.915 124.31 11.1921 123.469 11.1921H122.498ZM121.338 12.1628H123.565C125.125 12.1628 125.887 11.5906 125.887 10.3952C125.887 9.61478 125.531 9.1036 124.821 8.86093C125.462 8.54862 125.74 8.13293 125.74 7.53488C125.74 6.4515 125.011 5.86206 123.625 5.86206H121.338V12.1628Z" fill="#7F7E82"/>
<path fill-rule="evenodd" clip-rule="evenodd" d="M128.36 9.02537C128.36 7.57798 128.854 6.83275 129.772 6.83275C130.691 6.83275 131.185 7.57798 131.185 9.02537C131.185 10.4641 130.691 11.2008 129.772 11.2008C128.854 11.2008 128.36 10.4649 128.36 9.02537ZM127.156 9.02537C127.156 11.0708 128.161 12.2669 129.773 12.2669C131.385 12.2669 132.39 11.0708 132.39 9.02537C132.39 6.97132 131.394 5.78383 129.773 5.78383C128.152 5.78383 127.156 6.97132 127.156 9.02537ZM130.031 5.12619H130.984V4.09521H130.031V5.12619ZM128.559 5.12619H129.512V4.09521H128.559V5.12619Z" fill="#7F7E82"/>
<path fill-rule="evenodd" clip-rule="evenodd" d="M135.009 8.61037V6.85857H136.041C136.786 6.85857 137.15 7.11847 137.15 7.73447C137.15 8.34114 136.794 8.60965 136.041 8.60965H135.009M133.849 12.1628H135.009V9.60616H136.092L137.305 12.1628H138.579L137.183 9.33765C137.928 9.12944 138.345 8.56586 138.345 7.74309C138.345 6.46011 137.564 5.86206 135.979 5.86206H133.848V12.1628H133.849Z" fill="#7F7E82"/>
<path d="M139.59 10.7412C139.997 11.7298 140.812 12.2496 141.973 12.2496C143.325 12.2496 144.112 11.5216 144.112 10.3772C144.112 9.3893 143.592 8.98222 142.544 8.53996C141.547 8.11565 140.932 8.01155 140.932 7.42212C140.932 7.01504 141.245 6.75514 141.764 6.75514C142.301 6.75514 142.639 7.00642 142.899 7.56068L143.973 7.17083C143.643 6.26048 142.925 5.79309 141.85 5.79309C140.603 5.79309 139.798 6.51248 139.798 7.50899C139.798 8.10704 140.058 8.59237 140.534 8.89535C140.949 9.16386 141.469 9.3376 142.033 9.54509C142.682 9.78848 142.969 10.0046 142.969 10.4296C142.969 10.9063 142.587 11.2265 141.946 11.2265C141.383 11.2265 140.993 10.9322 140.664 10.2652L139.59 10.7412Z" fill="#7F7E82"/>
<path d="M145.6 12.1628H149.819V11.088H146.778V9.38074H148.901V8.37633H146.778V6.88515H149.689V5.86279H145.6V12.1628Z" fill="#7F7E82"/>
<path d="M7.08295 17.2164L0.496582 20.9548V24.9976L10.6097 19.2166L7.08295 17.2164Z" fill="#7F7E82"/>
<path d="M17.662 18.6251L14.6513 16.9149H7.59839L14.1345 20.6267L17.662 18.6251Z" fill="#7F7E82"/>
<path d="M28.3068 13.1406L14.6741 20.9347L21.7413 20.9368L31.7877 15.1782L28.3068 13.1406Z" fill="#7F7E82"/>
<path d="M38.9068 14.583L35.8329 12.8398H28.8015L35.3527 16.6184L38.9068 14.583Z" fill="#7F7E82"/>
<path d="M59.9705 7.1465L42.925 16.9142L35.875 16.9163L59.9705 3.14465V7.1465Z" fill="#7F7E82"/>
<path d="M65.8493 0.38916H64.8926V27.6267H65.8493V0.38916Z" fill="#7F7E82"/>
</g>
<defs>
<clipPath id="clip0_1380_183">
<rect width="150" height="28" fill="white"/>
</clipPath>
</defs>
</svg>
