<svg width="146" height="30" viewBox="0 0 146 30" fill="none" xmlns="http://www.w3.org/2000/svg">
<g clip-path="url(#clip0_1380_259)">
<path d="M46.699 6.50491H45.3398C45.0971 6.50491 44.9029 6.69908 44.9029 6.99034V21.2622C44.9029 21.5049 45.0971 21.7476 45.3398 21.7476H46.699C46.9418 21.7476 47.1359 21.5534 47.1359 21.2622V6.9418C47.1845 6.69908 46.9903 6.50491 46.699 6.50491ZM5.8738 2.76704C6.01943 2.76704 6.2136 2.7185 6.40778 2.66995C6.74758 2.52432 6.9903 2.23306 7.13593 1.89325C7.28156 1.55345 7.28156 1.1651 7.13593 0.825294C6.9903 0.485488 6.74758 0.242769 6.40778 0.0971384C6.06797 -0.0484927 5.67962 -0.0484927 5.38836 0.0971384C4.6602 0.388401 4.36894 1.21364 4.6602 1.9418C4.85438 2.42724 5.38836 2.76704 5.8738 2.76704ZM16.7476 24.4661L13.2039 15.9224C13.0583 15.5826 12.7185 15.4855 12.4272 15.5826L11.4078 16.0195C11.2621 16.1166 11.1651 16.2136 11.1165 16.3593C11.068 16.5049 11.068 16.6991 11.1165 16.8447L14.1748 24.2719C9.75729 25.6311 4.90292 23.301 3.05826 18.835C1.50486 15.1942 2.33011 10.8738 5.0971 8.0583C5.24273 7.86413 5.29127 7.62141 5.24273 7.37869L4.75729 6.26219C4.70875 6.06801 4.51457 5.92238 4.3204 5.92238C4.12622 5.87384 3.93205 5.92238 3.78642 6.06801C0.14564 9.51461 -1.01941 15.0486 0.970883 19.8059C2.86409 24.3204 7.13593 27.0389 11.602 27.0389C13.1554 27.0389 14.7087 26.6991 16.2136 26.0195C16.7476 25.7768 16.9903 25.0971 16.7476 24.4661ZM42.4757 12.9612H37.0389C36.7961 12.9612 36.602 13.1554 36.602 13.4467V14.7573C36.602 15.0001 36.7961 15.2428 37.0389 15.2428H40.6796V18.3496C39.6602 19.2719 38.3981 19.8059 37.0389 19.8059C34.0777 19.8059 31.6505 17.2331 31.6505 14.1263C31.6505 11.0195 34.0777 8.44665 37.0389 8.44665C38.4952 8.44665 39.9029 9.02918 40.9223 10.0971C41.1165 10.2913 41.4078 10.2913 41.5534 10.0971L42.4272 9.22335C42.5243 9.12626 42.5728 9.02918 42.5728 8.88355C42.5728 8.73792 42.5243 8.64083 42.4272 8.54374C41.0194 7.03889 39.0291 6.21364 37.0389 6.21364C32.8156 6.21364 29.3689 9.75733 29.3689 14.1263C29.3689 18.4952 32.8156 22.0389 37.0389 22.0389C39.2719 22.0389 41.3592 21.0195 42.8156 19.2719C42.8641 19.1748 42.9126 19.0777 42.9126 18.9321V13.4467C42.9126 13.2039 42.7185 12.9612 42.4757 12.9612ZM18.4466 28.0583C18.1554 27.3787 17.3787 27.0389 16.699 27.3302C16.0194 27.6214 15.7282 28.4467 16.0194 29.1748C16.2136 29.7088 16.7476 30.0001 17.233 30.0001C17.3787 30.0001 17.5728 29.9515 17.767 29.8544C18.4466 29.5632 18.7379 28.7379 18.4466 28.0583ZM55.0971 9.41753C51.699 9.41753 48.9806 12.2331 48.9806 15.7282C48.9806 19.1748 51.7476 22.0389 55.0971 22.0389C58.4952 22.0389 61.2622 19.2234 61.2622 15.7282C61.2622 12.2331 58.4952 9.41753 55.0971 9.41753ZM55.0971 19.8059C52.9612 19.8059 51.2622 17.9612 51.2622 15.7282C51.2622 13.4952 52.9612 11.6991 55.0971 11.6991C57.233 11.6991 58.9321 13.5437 58.9321 15.7282C58.9321 18.0098 57.233 19.8059 55.0971 19.8059ZM15.7767 3.73792C12.9126 2.57287 9.75729 2.62141 6.94176 3.88355C6.6505 3.98063 6.45632 4.22335 6.35923 4.51461C6.26215 4.80588 6.26215 5.14568 6.35923 5.43694L9.90292 13.9806C10.0486 14.3204 10.3884 14.4175 10.6796 14.3204L11.699 13.8835C11.8447 13.7865 11.9418 13.6894 11.9903 13.5437C12.0388 13.3981 12.0388 13.2039 11.9903 13.0583L8.88351 5.67966C13.3495 4.32044 18.1554 6.60199 20 11.1166C21.5534 14.8059 20.7767 19.0292 17.9612 21.8933C17.8155 22.0874 17.767 22.3302 17.8155 22.5729L18.301 23.6894C18.3495 23.835 18.5437 23.9806 18.7379 24.0292C18.7864 24.0292 18.835 24.0292 18.8835 24.0292C19.0291 24.0292 19.1748 23.9806 19.2719 23.8835C22.9612 20.4369 24.1262 14.903 22.1359 10.1457C20.9223 7.23306 18.6893 4.95151 15.7767 3.73792ZM92.8156 6.50491H91.4563C91.2136 6.50491 91.0194 6.69908 91.0194 6.99034V21.2622C91.0194 21.5049 91.2136 21.7476 91.4563 21.7476H92.8156C93.0583 21.7476 93.2524 21.5534 93.2524 21.2622V6.9418C93.301 6.69908 93.1068 6.50491 92.8156 6.50491ZM141.214 9.75733H139.854C139.612 9.75733 139.418 10.0001 139.418 10.2428V11.1651C138.592 10.2913 137.282 9.41753 135.388 9.41753C132.039 9.41753 129.369 12.1845 129.369 15.7282C129.369 19.2719 132.039 22.0389 135.388 22.0389C137.282 22.0389 138.592 21.1651 139.418 20.2913V21.2136C139.418 21.4564 139.612 21.6991 139.854 21.6991H141.214C141.456 21.6991 141.699 21.5049 141.699 21.2136V10.2428C141.699 9.95151 141.505 9.75733 141.214 9.75733ZM135.534 19.8059C133.398 19.8059 131.699 18.0098 131.699 15.7282C131.699 13.4467 133.398 11.6991 135.534 11.6991C137.67 11.6991 139.418 13.5437 139.418 15.7282C139.466 17.9612 137.67 19.8059 135.534 19.8059ZM145.534 19.8059C145.243 19.1263 144.466 18.7865 143.786 19.0777C143.447 19.2234 143.204 19.5146 143.058 19.8544C142.913 20.1942 142.913 20.5826 143.058 20.9224C143.204 21.2622 143.495 21.5049 143.786 21.6991C143.932 21.7476 144.126 21.7962 144.272 21.7962C144.466 21.7962 144.612 21.7476 144.806 21.6991C145.534 21.3593 145.825 20.534 145.534 19.8059ZM128.35 19.8059C128.301 19.6602 128.204 19.5632 128.058 19.5632C127.913 19.5146 127.767 19.5632 127.67 19.6117C127.476 19.7573 127.379 19.8059 127.136 19.8059C126.651 19.8059 126.456 19.6117 126.456 19.1263V11.9903H128.204C128.447 11.9903 128.641 11.7962 128.641 11.5049V10.1942C128.641 9.95151 128.447 9.70879 128.204 9.70879H126.456V7.7185C126.456 7.47578 126.262 7.23306 126.019 7.23306H124.66C124.417 7.23306 124.223 7.47578 124.223 7.7185V9.70879H123.447C123.204 9.70879 123.01 9.95151 123.01 10.1942V11.5049C123.01 11.7476 123.204 11.9903 123.447 11.9903H124.223V19.1263C124.223 20.8738 125.437 21.9903 127.184 21.9903C127.67 21.9903 128.155 21.8447 128.689 21.5535C128.884 21.4564 128.981 21.1651 128.884 20.9709L128.35 19.8059ZM100.583 6.50491H95.9224C95.6796 6.50491 95.4855 6.69908 95.4855 6.99034V21.2622C95.4855 21.5049 95.6796 21.7476 95.9224 21.7476H100.583C104.612 21.7476 107.913 18.3496 107.913 14.1748C107.913 9.90296 104.612 6.50491 100.583 6.50491ZM100.583 19.4175H97.7185V8.73792H100.583C103.398 8.73792 105.631 11.068 105.631 14.0777C105.631 17.0874 103.398 19.4175 100.583 19.4175ZM121.068 9.75733H119.709C119.466 9.75733 119.272 10.0001 119.272 10.2428V11.1651C118.447 10.2913 117.136 9.41753 115.243 9.41753C111.893 9.41753 109.223 12.1845 109.223 15.7282C109.223 19.2719 111.845 22.0389 115.243 22.0389C117.136 22.0389 118.447 21.1651 119.272 20.2913V21.2136C119.272 21.4564 119.466 21.6991 119.709 21.6991H121.068C121.311 21.6991 121.505 21.5049 121.505 21.2136V10.2428C121.553 9.95151 121.359 9.75733 121.068 9.75733ZM115.388 19.8059C113.252 19.8059 111.553 18.0098 111.553 15.7282C111.553 13.4467 113.252 11.6991 115.388 11.6991C117.524 11.6991 119.272 13.5437 119.272 15.7282C119.272 17.9612 117.524 19.8059 115.388 19.8059ZM88.3981 9.75733H87.0389C86.7961 9.75733 86.602 10.0001 86.602 10.2428V11.1651C85.7767 10.2913 84.466 9.41753 82.5728 9.41753C79.2233 9.41753 76.5534 12.1845 76.5534 15.7282C76.5534 19.2719 79.1748 22.0389 82.5728 22.0389C84.466 22.0389 85.7767 21.1651 86.602 20.2913V21.2136C86.602 21.4564 86.7961 21.6991 87.0389 21.6991H88.3981C88.6408 21.6991 88.835 21.5049 88.835 21.2136V10.2428C88.8835 9.95151 88.6408 9.75733 88.3981 9.75733ZM82.7185 19.8059C80.5825 19.8059 78.8835 18.0098 78.8835 15.7282C78.8835 13.4467 80.5825 11.6991 82.7185 11.6991C84.8544 11.6991 86.602 13.5437 86.602 15.7282C86.602 17.9612 84.8544 19.8059 82.7185 19.8059ZM69.3204 9.41753C67.4272 9.41753 66.1165 10.2913 65.3398 11.1651V6.99034C65.3398 6.74762 65.1457 6.50491 64.8544 6.50491H63.4952C63.2524 6.50491 63.0583 6.69908 63.0583 6.99034V21.2622C63.0583 21.5049 63.2524 21.7476 63.4952 21.7476H64.8544C65.0971 21.7476 65.3398 21.5534 65.3398 21.2622V20.3399C66.1651 21.2136 67.4757 22.0874 69.3204 22.0874C72.7185 22.0874 75.3398 19.3204 75.3398 15.7768C75.3398 12.1845 72.6699 9.41753 69.3204 9.41753ZM69.1748 19.8059C67.0389 19.8059 65.2913 17.9612 65.2913 15.7282C65.2913 13.4952 67.0389 11.6991 69.1748 11.6991C71.3592 11.6991 73.0097 13.4952 73.0097 15.7282C73.0097 18.0098 71.3592 19.8059 69.1748 19.8059Z" fill="#7F7E82"/>
</g>
<defs>
<clipPath id="clip0_1380_259">
<rect width="145.68" height="30" fill="white"/>
</clipPath>
</defs>
</svg>
