<svg width="157" height="29" viewBox="0 0 157 29" fill="none" xmlns="http://www.w3.org/2000/svg">
<path d="M0 9.00464C1.6758 9.00464 3.35161 9.00464 5.07819 9.00464C5.372 10.1765 5.66576 11.3484 5.95916 12.5203C6.09592 13.0665 6.23275 13.6127 6.36975 14.1589C7.06566 16.9334 7.75017 19.7104 8.41076 22.4936C8.6622 21.7771 8.85423 21.0559 9.02387 20.3167C9.05152 20.1979 9.07918 20.079 9.10767 19.9566C9.16726 19.7003 9.22666 19.4439 9.28586 19.1875C9.3795 18.7819 9.4737 18.3765 9.56804 17.9711C9.76797 17.1115 9.96717 16.2518 10.1663 15.3921C10.3976 14.3935 10.6293 13.3949 10.8616 12.3966C10.9545 11.9967 11.0469 11.5966 11.1393 11.1966C11.196 10.9526 11.2527 10.7086 11.3094 10.4646C11.3479 10.2972 11.3479 10.2972 11.3871 10.1264C11.5666 9.35815 11.5666 9.35815 11.7433 9.00464C13.3668 9.00464 14.9902 9.00464 16.6628 9.00464C16.6628 15.6031 16.6628 22.2016 16.6628 29C15.6678 29 14.6728 29 13.6476 29C13.5953 24.1297 13.5429 19.2594 13.4889 14.2415C12.4656 18.4454 12.4656 18.4454 11.4428 22.6494C11.2435 23.4675 11.2435 23.4675 11.1497 23.852C11.0851 24.1172 11.0206 24.3824 10.9562 24.6477C10.6023 26.104 10.2435 27.5567 9.839 29C8.94873 29 8.05846 29 7.14121 29C6.82339 28.0734 6.54224 27.1507 6.30516 26.2005C6.27207 26.0698 6.23898 25.9391 6.20489 25.8044C6.0993 25.3867 5.99445 24.9689 5.88964 24.551C5.824 24.2909 5.75831 24.0308 5.69257 23.7707C5.45082 22.8129 5.21001 21.8548 4.96909 20.8967C4.42904 18.7529 3.88898 16.609 3.33256 14.4002C3.28019 19.2182 3.22783 24.0361 3.17387 29C2.12649 29 1.07912 29 0 29C0 22.4015 0 15.8031 0 9.00464Z" fill="#7F7E82"/>
<path d="M34.4365 9.00464C43.4695 9.00464 43.4695 9.00464 45.6635 11.1352C47.8472 13.6292 48.2434 17.0766 48.0842 20.2719C47.9134 22.4439 47.3843 24.5643 46.0211 26.3022C45.9066 26.4659 45.792 26.6295 45.674 26.7981C44.5664 28.0809 42.8814 28.7299 41.2603 29C39.0085 29 36.7566 29 34.4365 29C34.4365 22.4015 34.4365 15.8031 34.4365 9.00464ZM37.9278 12.1785C37.9278 16.6822 37.9278 21.186 37.9278 25.8261C40.5847 25.9738 40.5847 25.9738 42.7258 24.8926C44.2717 23.3184 44.5759 21.1448 44.6326 19.0122C44.5766 17.0061 44.3719 14.8138 42.9465 13.2794C41.4809 11.9757 39.8074 12.1785 37.9278 12.1785Z" fill="#7F7E82"/>
<path d="M62.3665 9.00464C63.4663 9.00464 64.566 9.00464 65.6991 9.00464C66.4243 11.5177 67.1485 14.031 67.8717 16.5447C68.2074 17.7118 68.5435 18.8788 68.8803 20.0456C69.1739 21.0625 69.4668 22.0796 69.7591 23.0969C69.9139 23.6356 70.0689 24.1742 70.2247 24.7126C70.3986 25.3135 70.5711 25.9147 70.7435 26.5159C70.7954 26.6947 70.8474 26.8734 70.9009 27.0576C70.9476 27.2214 70.9944 27.3852 71.0425 27.5539C71.0835 27.6961 71.1244 27.8383 71.1666 27.9848C71.2534 28.3652 71.2534 28.3652 71.2534 29C70.1012 29 68.9491 29 67.7621 29C67.576 28.3523 67.391 27.7043 67.2067 27.056C67.1537 26.8721 67.1007 26.6882 67.0461 26.4987C66.996 26.3218 66.9459 26.1448 66.8943 25.9625C66.8477 25.7996 66.8012 25.6368 66.7532 25.4689C66.6513 25.0327 66.6513 25.0327 66.6513 24.3979C64.9754 24.3979 63.2996 24.3979 61.5731 24.3979C61.5207 24.8169 61.4683 25.2358 61.4144 25.6675C61.3473 25.9537 61.2734 26.2384 61.1906 26.5204C61.1332 26.7187 61.1332 26.7187 61.0746 26.9209C61.0264 27.0833 60.9781 27.2457 60.9284 27.4131C60.7745 27.9368 60.6207 28.4605 60.4622 29C59.3101 29 58.158 29 56.9709 29C57.214 27.4809 57.6103 26.0203 58.0273 24.5423C58.1013 24.2775 58.1754 24.0126 58.2493 23.7477C58.4442 23.0502 58.64 22.3531 58.836 21.656C59.0294 20.9678 59.222 20.2793 59.4146 19.5909C59.6427 18.7757 59.8709 17.9605 60.0995 17.1454C60.8602 14.4332 61.6139 11.7191 62.3665 9.00464ZM63.9535 14.4002C63.7494 15.2954 63.546 16.1907 63.3433 17.0861C63.2742 17.3908 63.2049 17.6954 63.1354 18C63.0357 18.4375 62.9366 18.8752 62.8376 19.3129C62.8064 19.4493 62.7752 19.5857 62.743 19.7262C62.7144 19.8533 62.6858 19.9803 62.6563 20.1112C62.631 20.2229 62.6056 20.3346 62.5794 20.4497C62.511 20.7755 62.511 20.7755 62.5252 21.224C63.5726 21.224 64.62 21.224 65.6991 21.224C65.5246 20.4051 65.3498 19.5863 65.1741 18.7677C65.1145 18.4895 65.0551 18.2112 64.9959 17.9329C64.9105 17.5317 64.8245 17.1307 64.7383 16.7298C64.7121 16.6063 64.686 16.4827 64.6591 16.3555C64.5146 15.687 64.3429 15.0456 64.1122 14.4002C64.0598 14.4002 64.0074 14.4002 63.9535 14.4002Z" fill="#7F7E82"/>
<path d="M20.9475 9.00464C24.142 9.00464 27.3365 9.00464 30.6278 9.00464C30.6278 10.052 30.6278 11.0994 30.6278 12.1785C28.5331 12.1785 26.4383 12.1785 24.2801 12.1785C24.2801 13.8019 24.2801 15.4254 24.2801 17.098C26.3748 17.098 28.4696 17.098 30.6278 17.098C30.6278 18.1454 30.6278 19.1928 30.6278 20.2719C28.5331 20.2719 26.4383 20.2719 24.2801 20.2719C24.2801 22.1048 24.2801 23.9377 24.2801 25.8261C26.3748 25.8261 28.4696 25.8261 30.6278 25.8261C30.6278 26.8735 30.6278 27.9209 30.6278 29C27.4333 29 24.2388 29 20.9475 29C20.9475 22.4015 20.9475 15.8031 20.9475 9.00464Z" fill="#7F7E82"/>
<path d="M51.2578 9.00464C52.3576 9.00464 53.4573 9.00464 54.5904 9.00464C54.5904 15.6031 54.5904 22.2016 54.5904 29C53.4906 29 52.3909 29 51.2578 29C51.2578 22.4015 51.2578 15.8031 51.2578 9.00464Z" fill="#7F7E82"/>
<path d="M125.209 4.87842C126.592 6.0318 127.578 7.48673 127.783 9.31789C127.914 11.6499 127.387 13.3413 125.92 15.178C125.155 16.0279 124.193 16.5054 123.146 16.9391C123.041 16.9391 122.936 16.9391 122.828 16.9391C122.721 16.2247 122.68 15.5865 122.828 14.8761C123.229 14.4598 123.642 14.1976 124.134 13.8967C124.928 13.3732 125.229 12.6796 125.576 11.8213C125.876 10.1835 125.723 8.85517 124.863 7.4231C124.115 6.41162 122.784 5.74486 121.559 5.51319C120.017 5.40687 118.779 5.79171 117.588 6.78894C116.609 7.76035 116.121 8.93431 116.104 10.3137C116.12 11.5175 116.452 12.4525 117.115 13.4479C116.33 13.4479 115.544 13.4479 114.735 13.4479C113.936 11.6741 113.794 9.83701 114.358 7.96303C114.679 7.13902 115.099 6.48687 115.687 5.83058C115.767 5.73464 115.846 5.6387 115.928 5.53985C118.309 2.88124 122.456 2.81171 125.209 4.87842Z" fill="#7F7E82"/>
<path d="M126.901 1.83421C129.154 3.55833 130.687 5.7903 131.176 8.60967C131.429 10.8073 131.153 12.8403 130.287 14.8762C130.497 14.8762 130.706 14.8762 130.922 14.8762C130.922 15.7141 130.922 16.552 130.922 17.4153C130.533 17.4153 130.143 17.4153 129.742 17.4153C128.642 17.4574 128.113 17.663 127.349 18.4834C126.834 18.9542 126.28 19.2342 125.656 19.5378C125.548 19.5907 125.44 19.6436 125.33 19.6981C124.503 20.0932 123.759 20.4305 122.829 20.4305C122.829 20.221 122.829 20.0115 122.829 19.7957C122.982 19.738 123.136 19.6803 123.294 19.6209C126.01 18.5907 126.01 18.5907 128.066 16.6218C128.138 16.1872 128.138 16.1872 128.165 15.7193C128.177 15.5615 128.189 15.4038 128.201 15.2413C128.209 15.1208 128.216 15.0003 128.224 14.8762C128.643 14.8762 129.062 14.8762 129.494 14.8762C130.497 12.1055 130.857 9.48352 129.741 6.6849C128.466 3.98047 126.617 2.35532 123.881 1.23291C121.584 0.462357 118.986 0.751244 116.798 1.70465C116.176 2.02954 115.614 2.39349 115.053 2.8155C114.941 2.89467 114.829 2.97384 114.714 3.0554C112.921 4.45123 111.8 6.83534 111.453 9.03802C111.32 10.2212 111.376 11.3072 111.651 12.4654C111.72 12.8132 111.72 12.8132 111.72 13.448C111.511 13.448 111.301 13.448 111.086 13.448C110.22 10.6812 110.541 8.07264 111.73 5.47362C113.067 2.96916 115.399 1.14041 118.108 0.30616C121.145 -0.382278 124.324 0.0748914 126.901 1.83421Z" fill="#7F7E82"/>
<path d="M128.225 14.8762C129.115 14.8762 130.005 14.8762 130.922 14.8762C130.922 15.7141 130.922 16.552 130.922 17.4153C130.533 17.4153 130.143 17.4153 129.742 17.4153C128.642 17.4574 128.113 17.663 127.349 18.4834C126.834 18.9543 126.28 19.2343 125.656 19.5378C125.548 19.5907 125.441 19.6436 125.33 19.6981C124.504 20.0932 123.759 20.4305 122.829 20.4305C122.829 20.221 122.829 20.0115 122.829 19.7957C122.983 19.738 123.136 19.6803 123.294 19.6209C126.011 18.5907 126.011 18.5907 128.066 16.6218C128.139 16.1872 128.139 16.1872 128.165 15.7193C128.195 15.302 128.195 15.302 128.225 14.8762Z" fill="#7F7E82"/>
<path d="M134.096 26.4608C134.986 26.4608 135.876 26.4608 136.793 26.4608C136.793 27.2987 136.793 28.1366 136.793 28.9999C135.903 28.9999 135.013 28.9999 134.096 28.9999C134.096 28.162 134.096 27.3241 134.096 26.4608Z" fill="#7F7E82"/>
<path d="M128.225 26.4608C129.115 26.4608 130.005 26.4608 130.922 26.4608C130.922 27.2987 130.922 28.1366 130.922 28.9999C130.032 28.9999 129.142 28.9999 128.225 28.9999C128.225 28.162 128.225 27.3241 128.225 26.4608Z" fill="#7F7E82"/>
<path d="M113.784 26.3022C114.674 26.3022 115.564 26.3022 116.481 26.3022C116.481 27.1401 116.481 27.978 116.481 28.8413C115.591 28.8413 114.701 28.8413 113.784 28.8413C113.784 28.0034 113.784 27.1655 113.784 26.3022Z" fill="#7F7E82"/>
<path d="M93.4707 26.3022C94.361 26.3022 95.2512 26.3022 96.1685 26.3022C96.1685 27.1401 96.1685 27.978 96.1685 28.8413C95.2782 28.8413 94.388 28.8413 93.4707 28.8413C93.4707 28.0034 93.4707 27.1655 93.4707 26.3022Z" fill="#7F7E82"/>
<path d="M73.1575 26.3022C74.0477 26.3022 74.938 26.3022 75.8553 26.3022C75.8553 27.1401 75.8553 27.978 75.8553 28.8413C74.965 28.8413 74.0747 28.8413 73.1575 28.8413C73.1575 28.0034 73.1575 27.1655 73.1575 26.3022Z" fill="#7F7E82"/>
<path d="M107.911 23.4457C108.801 23.4457 109.692 23.4457 110.609 23.4457C110.609 24.2836 110.609 25.1215 110.609 25.9848C109.719 25.9848 108.828 25.9848 107.911 25.9848C107.911 25.1469 107.911 24.309 107.911 23.4457Z" fill="#7F7E82"/>
<path d="M73.1575 23.4457C74.0477 23.4457 74.938 23.4457 75.8553 23.4457C75.8553 24.2836 75.8553 25.1215 75.8553 25.9848C74.965 25.9848 74.0747 25.9848 73.1575 25.9848C73.1575 25.1469 73.1575 24.309 73.1575 23.4457Z" fill="#7F7E82"/>
<path d="M134.096 20.5891C134.986 20.5891 135.876 20.5891 136.793 20.5891C136.793 21.427 136.793 22.2649 136.793 23.1282C135.903 23.1282 135.013 23.1282 134.096 23.1282C134.096 22.2903 134.096 21.4524 134.096 20.5891Z" fill="#7F7E82"/>
<path d="M128.225 20.5891C129.115 20.5891 130.005 20.5891 130.922 20.5891C130.922 21.427 130.922 22.2649 130.922 23.1282C130.032 23.1282 129.142 23.1282 128.225 23.1282C128.225 22.2903 128.225 21.4524 128.225 20.5891Z" fill="#7F7E82"/>
<path d="M107.911 20.5891C108.801 20.5891 109.692 20.5891 110.609 20.5891C110.609 21.427 110.609 22.2649 110.609 23.1282C109.719 23.1282 108.828 23.1282 107.911 23.1282C107.911 22.2903 107.911 21.4524 107.911 20.5891Z" fill="#7F7E82"/>
<path d="M93.4707 20.5891C94.361 20.5891 95.2512 20.5891 96.1685 20.5891C96.1685 21.427 96.1685 22.2649 96.1685 23.1282C95.2782 23.1282 94.388 23.1282 93.4707 23.1282C93.4707 22.2903 93.4707 21.4524 93.4707 20.5891Z" fill="#7F7E82"/>
<path d="M73.1575 20.5891C74.0477 20.5891 74.938 20.5891 75.8553 20.5891C75.8553 21.427 75.8553 22.2649 75.8553 23.1282C74.965 23.1282 74.0747 23.1282 73.1575 23.1282C73.1575 22.2903 73.1575 21.4524 73.1575 20.5891Z" fill="#7F7E82"/>
<path d="M107.911 17.574C108.801 17.574 109.692 17.574 110.609 17.574C110.609 18.4119 110.609 19.2498 110.609 20.1131C109.719 20.1131 108.828 20.1131 107.911 20.1131C107.911 19.2752 107.911 18.4373 107.911 17.574Z" fill="#7F7E82"/>
<path d="M73.1575 17.574C74.0477 17.574 74.938 17.574 75.8553 17.574C75.8553 18.4119 75.8553 19.2498 75.8553 20.1131C74.965 20.1131 74.0747 20.1131 73.1575 20.1131C73.1575 19.2752 73.1575 18.4373 73.1575 17.574Z" fill="#7F7E82"/>
<path d="M148.537 14.8762C149.427 14.8762 150.318 14.8762 151.235 14.8762C151.235 15.7141 151.235 16.552 151.235 17.4153C150.345 17.4153 149.454 17.4153 148.537 17.4153C148.537 16.5774 148.537 15.7395 148.537 14.8762Z" fill="#7F7E82"/>
<path d="M134.096 14.8762C134.986 14.8762 135.876 14.8762 136.793 14.8762C136.793 15.7141 136.793 16.552 136.793 17.4153C135.903 17.4153 135.013 17.4153 134.096 17.4153C134.096 16.5774 134.096 15.7395 134.096 14.8762Z" fill="#7F7E82"/>
<path d="M113.784 14.7174C114.674 14.7174 115.564 14.7174 116.481 14.7174C116.481 15.5553 116.481 16.3932 116.481 17.2565C115.591 17.2565 114.701 17.2565 113.784 17.2565C113.784 16.4186 113.784 15.5807 113.784 14.7174Z" fill="#7F7E82"/>
<path d="M93.4707 14.7174C94.361 14.7174 95.2512 14.7174 96.1685 14.7174C96.1685 15.5553 96.1685 16.3932 96.1685 17.2565C95.2782 17.2565 94.388 17.2565 93.4707 17.2565C93.4707 16.4186 93.4707 15.5807 93.4707 14.7174Z" fill="#7F7E82"/>
<path d="M73.1575 14.7174C74.0477 14.7174 74.938 14.7174 75.8553 14.7174C75.8553 15.5553 75.8553 16.3932 75.8553 17.2565C74.965 17.2565 74.0747 17.2565 73.1575 17.2565C73.1575 16.4186 73.1575 15.5807 73.1575 14.7174Z" fill="#7F7E82"/>
<path d="M73.1575 11.861C74.0477 11.861 74.938 11.861 75.8553 11.861C75.8553 12.6989 75.8553 13.5368 75.8553 14.4001C74.965 14.4001 74.0747 14.4001 73.1575 14.4001C73.1575 13.5622 73.1575 12.7243 73.1575 11.861Z" fill="#7F7E82"/>
<path d="M73.1575 9.00464C74.0477 9.00464 74.938 9.00464 75.8553 9.00464C75.8553 9.84254 75.8553 10.6804 75.8553 11.5437C74.965 11.5437 74.0747 11.5437 73.1575 11.5437C73.1575 10.7058 73.1575 9.86793 73.1575 9.00464Z" fill="#7F7E82"/>
<path d="M142.824 26.4608C143.662 26.4608 144.5 26.4608 145.363 26.4608C145.363 27.2987 145.363 28.1366 145.363 28.9999C144.525 28.9999 143.688 28.9999 142.824 28.9999C142.824 28.162 142.824 27.3241 142.824 26.4608Z" fill="#7F7E82"/>
<path d="M137.111 26.4608C137.949 26.4608 138.787 26.4608 139.65 26.4608C139.65 27.2987 139.65 28.1366 139.65 28.9999C138.813 28.9999 137.975 28.9999 137.111 28.9999C137.111 28.162 137.111 27.3241 137.111 26.4608Z" fill="#7F7E82"/>
<path d="M131.24 26.4608C132.078 26.4608 132.916 26.4608 133.779 26.4608C133.779 27.2987 133.779 28.1366 133.779 28.9999C132.941 28.9999 132.103 28.9999 131.24 28.9999C131.24 28.162 131.24 27.3241 131.24 26.4608Z" fill="#7F7E82"/>
<path d="M119.655 26.3022C120.493 26.3022 121.331 26.3022 122.194 26.3022C122.194 27.1401 122.194 27.978 122.194 28.8413C121.356 28.8413 120.519 28.8413 119.655 28.8413C119.655 28.0034 119.655 27.1655 119.655 26.3022Z" fill="#7F7E82"/>
<path d="M116.798 26.3022C117.636 26.3022 118.474 26.3022 119.337 26.3022C119.337 27.1401 119.337 27.978 119.337 28.8413C118.5 28.8413 117.662 28.8413 116.798 28.8413C116.798 28.0034 116.798 27.1655 116.798 26.3022Z" fill="#7F7E82"/>
<path d="M110.927 26.3022C111.765 26.3022 112.603 26.3022 113.466 26.3022C113.466 27.1401 113.466 27.978 113.466 28.8413C112.628 28.8413 111.79 28.8413 110.927 28.8413C110.927 28.0034 110.927 27.1655 110.927 26.3022Z" fill="#7F7E82"/>
<path d="M102.358 26.3022C103.196 26.3022 104.033 26.3022 104.897 26.3022C104.897 27.1401 104.897 27.978 104.897 28.8413C104.059 28.8413 103.221 28.8413 102.358 28.8413C102.358 28.0034 102.358 27.1655 102.358 26.3022Z" fill="#7F7E82"/>
<path d="M99.342 26.3022C100.18 26.3022 101.018 26.3022 101.881 26.3022C101.881 27.1401 101.881 27.978 101.881 28.8413C101.043 28.8413 100.205 28.8413 99.342 28.8413C99.342 28.0034 99.342 27.1655 99.342 26.3022Z" fill="#7F7E82"/>
<path d="M96.4858 26.3022C97.3237 26.3022 98.1616 26.3022 99.0249 26.3022C99.0249 27.1401 99.0249 27.978 99.0249 28.8413C98.187 28.8413 97.3491 28.8413 96.4858 28.8413C96.4858 28.0034 96.4858 27.1655 96.4858 26.3022Z" fill="#7F7E82"/>
<path d="M84.9009 26.3022C85.7388 26.3022 86.5767 26.3022 87.44 26.3022C87.44 27.1401 87.44 27.978 87.44 28.8413C86.6021 28.8413 85.7642 28.8413 84.9009 28.8413C84.9009 28.0034 84.9009 27.1655 84.9009 26.3022Z" fill="#7F7E82"/>
<path d="M142.824 23.6042C143.662 23.6042 144.5 23.6042 145.363 23.6042C145.363 24.4421 145.363 25.2801 145.363 26.1433C144.525 26.1433 143.688 26.1433 142.824 26.1433C142.824 25.3054 142.824 24.4675 142.824 23.6042Z" fill="#7F7E82"/>
<path d="M137.111 23.6042C137.949 23.6042 138.787 23.6042 139.65 23.6042C139.65 24.4421 139.65 25.2801 139.65 26.1433C138.813 26.1433 137.975 26.1433 137.111 26.1433C137.111 25.3054 137.111 24.4675 137.111 23.6042Z" fill="#7F7E82"/>
<path d="M125.368 23.6042C126.206 23.6042 127.043 23.6042 127.907 23.6042C127.907 24.4421 127.907 25.2801 127.907 26.1433C127.069 26.1433 126.231 26.1433 125.368 26.1433C125.368 25.3054 125.368 24.4675 125.368 23.6042Z" fill="#7F7E82"/>
<path d="M119.655 23.4457C120.493 23.4457 121.331 23.4457 122.194 23.4457C122.194 24.2836 122.194 25.1215 122.194 25.9848C121.356 25.9848 120.519 25.9848 119.655 25.9848C119.655 25.1469 119.655 24.309 119.655 23.4457Z" fill="#7F7E82"/>
<path d="M102.358 23.4457C103.196 23.4457 104.033 23.4457 104.897 23.4457C104.897 24.2836 104.897 25.1215 104.897 25.9848C104.059 25.9848 103.221 25.9848 102.358 25.9848C102.358 25.1469 102.358 24.309 102.358 23.4457Z" fill="#7F7E82"/>
<path d="M90.6138 23.4457C91.4517 23.4457 92.2896 23.4457 93.1529 23.4457C93.1529 24.2836 93.1529 25.1215 93.1529 25.9848C92.315 25.9848 91.4771 25.9848 90.6138 25.9848C90.6138 25.1469 90.6138 24.309 90.6138 23.4457Z" fill="#7F7E82"/>
<path d="M82.0444 23.4457C82.8823 23.4457 83.7202 23.4457 84.5835 23.4457C84.5835 24.2836 84.5835 25.1215 84.5835 25.9848C83.7456 25.9848 82.9077 25.9848 82.0444 25.9848C82.0444 25.1469 82.0444 24.309 82.0444 23.4457Z" fill="#7F7E82"/>
<path d="M142.824 20.5891C143.662 20.5891 144.5 20.5891 145.363 20.5891C145.363 21.427 145.363 22.2649 145.363 23.1282C144.525 23.1282 143.688 23.1282 142.824 23.1282C142.824 22.2903 142.824 21.4524 142.824 20.5891Z" fill="#7F7E82"/>
<path d="M137.111 20.5891C137.949 20.5891 138.787 20.5891 139.65 20.5891C139.65 21.427 139.65 22.2649 139.65 23.1282C138.813 23.1282 137.975 23.1282 137.111 23.1282C137.111 22.2903 137.111 21.4524 137.111 20.5891Z" fill="#7F7E82"/>
<path d="M131.24 20.5891C132.078 20.5891 132.916 20.5891 133.779 20.5891C133.779 21.427 133.779 22.2649 133.779 23.1282C132.941 23.1282 132.103 23.1282 131.24 23.1282C131.24 22.2903 131.24 21.4524 131.24 20.5891Z" fill="#7F7E82"/>
<path d="M119.655 20.5891C120.493 20.5891 121.331 20.5891 122.194 20.5891C122.194 21.427 122.194 22.2649 122.194 23.1282C121.356 23.1282 120.519 23.1282 119.655 23.1282C119.655 22.2903 119.655 21.4524 119.655 20.5891Z" fill="#7F7E82"/>
<path d="M102.358 20.5891C103.196 20.5891 104.033 20.5891 104.897 20.5891C104.897 21.427 104.897 22.2649 104.897 23.1282C104.059 23.1282 103.221 23.1282 102.358 23.1282C102.358 22.2903 102.358 21.4524 102.358 20.5891Z" fill="#7F7E82"/>
<path d="M99.342 20.5891C100.18 20.5891 101.018 20.5891 101.881 20.5891C101.881 21.427 101.881 22.2649 101.881 23.1282C101.043 23.1282 100.205 23.1282 99.342 23.1282C99.342 22.2903 99.342 21.4524 99.342 20.5891Z" fill="#7F7E82"/>
<path d="M96.4858 20.5891C97.3237 20.5891 98.1616 20.5891 99.0249 20.5891C99.0249 21.427 99.0249 22.2649 99.0249 23.1282C98.187 23.1282 97.3491 23.1282 96.4858 23.1282C96.4858 22.2903 96.4858 21.4524 96.4858 20.5891Z" fill="#7F7E82"/>
<path d="M79.0293 20.5891C79.8672 20.5891 80.7051 20.5891 81.5684 20.5891C81.5684 21.427 81.5684 22.2649 81.5684 23.1282C80.7305 23.1282 79.8926 23.1282 79.0293 23.1282C79.0293 22.2903 79.0293 21.4524 79.0293 20.5891Z" fill="#7F7E82"/>
<path d="M154.409 17.7328C155.247 17.7328 156.085 17.7328 156.948 17.7328C156.948 18.5707 156.948 19.4086 156.948 20.2719C156.11 20.2719 155.272 20.2719 154.409 20.2719C154.409 19.434 154.409 18.5961 154.409 17.7328Z" fill="#7F7E82"/>
<path d="M145.681 17.7328C146.519 17.7328 147.356 17.7328 148.22 17.7328C148.22 18.5707 148.22 19.4086 148.22 20.2719C147.382 20.2719 146.544 20.2719 145.681 20.2719C145.681 19.434 145.681 18.5961 145.681 17.7328Z" fill="#7F7E82"/>
<path d="M142.824 17.7328C143.662 17.7328 144.5 17.7328 145.363 17.7328C145.363 18.5707 145.363 19.4086 145.363 20.2719C144.525 20.2719 143.688 20.2719 142.824 20.2719C142.824 19.434 142.824 18.5961 142.824 17.7328Z" fill="#7F7E82"/>
<path d="M137.111 17.7328C137.949 17.7328 138.787 17.7328 139.65 17.7328C139.65 18.5707 139.65 19.4086 139.65 20.2719C138.813 20.2719 137.975 20.2719 137.111 20.2719C137.111 19.434 137.111 18.5961 137.111 17.7328Z" fill="#7F7E82"/>
<path d="M119.655 17.574C120.493 17.574 121.331 17.574 122.194 17.574C122.194 18.4119 122.194 19.2498 122.194 20.1131C121.356 20.1131 120.519 20.1131 119.655 20.1131C119.655 19.2752 119.655 18.4373 119.655 17.574Z" fill="#7F7E82"/>
<path d="M116.798 17.574C117.636 17.574 118.474 17.574 119.337 17.574C119.337 18.4119 119.337 19.2498 119.337 20.1131C118.5 20.1131 117.662 20.1131 116.798 20.1131C116.798 19.2752 116.798 18.4373 116.798 17.574Z" fill="#7F7E82"/>
<path d="M102.358 17.574C103.196 17.574 104.033 17.574 104.897 17.574C104.897 18.4119 104.897 19.2498 104.897 20.1131C104.059 20.1131 103.221 20.1131 102.358 20.1131C102.358 19.2752 102.358 18.4373 102.358 17.574Z" fill="#7F7E82"/>
<path d="M82.0444 17.574C82.8823 17.574 83.7202 17.574 84.5835 17.574C84.5835 18.4119 84.5835 19.2498 84.5835 20.1131C83.7456 20.1131 82.9077 20.1131 82.0444 20.1131C82.0444 19.2752 82.0444 18.4373 82.0444 17.574Z" fill="#7F7E82"/>
<path d="M79.0293 17.574C79.8672 17.574 80.7051 17.574 81.5684 17.574C81.5684 18.4119 81.5684 19.2498 81.5684 20.1131C80.7305 20.1131 79.8926 20.1131 79.0293 20.1131C79.0293 19.2752 79.0293 18.4373 79.0293 17.574Z" fill="#7F7E82"/>
<path d="M76.1731 17.574C77.011 17.574 77.8489 17.574 78.7122 17.574C78.7122 18.4119 78.7122 19.2498 78.7122 20.1131C77.8743 20.1131 77.0364 20.1131 76.1731 20.1131C76.1731 19.2752 76.1731 18.4373 76.1731 17.574Z" fill="#7F7E82"/>
<path d="M151.552 14.8762C152.39 14.8762 153.228 14.8762 154.091 14.8762C154.091 15.7141 154.091 16.552 154.091 17.4153C153.253 17.4153 152.415 17.4153 151.552 17.4153C151.552 16.5774 151.552 15.7395 151.552 14.8762Z" fill="#7F7E82"/>
<path d="M142.824 14.8762C143.662 14.8762 144.5 14.8762 145.363 14.8762C145.363 15.7141 145.363 16.552 145.363 17.4153C144.525 17.4153 143.688 17.4153 142.824 17.4153C142.824 16.5774 142.824 15.7395 142.824 14.8762Z" fill="#7F7E82"/>
<path d="M131.24 14.8762C132.078 14.8762 132.916 14.8762 133.779 14.8762C133.779 15.7141 133.779 16.552 133.779 17.4153C132.941 17.4153 132.103 17.4153 131.24 17.4153C131.24 16.5774 131.24 15.7395 131.24 14.8762Z" fill="#7F7E82"/>
<path d="M119.655 14.7174C120.493 14.7174 121.331 14.7174 122.194 14.7174C122.194 15.5553 122.194 16.3932 122.194 17.2565C121.356 17.2565 120.519 17.2565 119.655 17.2565C119.655 16.4186 119.655 15.5807 119.655 14.7174Z" fill="#7F7E82"/>
<path d="M110.927 14.7174C111.765 14.7174 112.603 14.7174 113.466 14.7174C113.466 15.5553 113.466 16.3932 113.466 17.2565C112.628 17.2565 111.79 17.2565 110.927 17.2565C110.927 16.4186 110.927 15.5807 110.927 14.7174Z" fill="#7F7E82"/>
<path d="M99.342 14.7174C100.18 14.7174 101.018 14.7174 101.881 14.7174C101.881 15.5553 101.881 16.3932 101.881 17.2565C101.043 17.2565 100.205 17.2565 99.342 17.2565C99.342 16.4186 99.342 15.5807 99.342 14.7174Z" fill="#7F7E82"/>
<path d="M96.4858 14.7174C97.3237 14.7174 98.1616 14.7174 99.0249 14.7174C99.0249 15.5553 99.0249 16.3932 99.0249 17.2565C98.187 17.2565 97.3491 17.2565 96.4858 17.2565C96.4858 16.4186 96.4858 15.5807 96.4858 14.7174Z" fill="#7F7E82"/>
<path d="M84.9009 14.7174C85.7388 14.7174 86.5767 14.7174 87.44 14.7174C87.44 15.5553 87.44 16.3932 87.44 17.2565C86.6021 17.2565 85.7642 17.2565 84.9009 17.2565C84.9009 16.4186 84.9009 15.5807 84.9009 14.7174Z" fill="#7F7E82"/>
<path d="M119.655 11.861C120.493 11.861 121.331 11.861 122.194 11.861C122.194 12.6989 122.194 13.5368 122.194 14.4001C121.356 14.4001 120.519 14.4001 119.655 14.4001C119.655 13.5622 119.655 12.7243 119.655 11.861Z" fill="#7F7E82"/>
<path d="M84.9009 11.861C85.7388 11.861 86.5767 11.861 87.44 11.861C87.44 12.6989 87.44 13.5368 87.44 14.4001C86.6021 14.4001 85.7642 14.4001 84.9009 14.4001C84.9009 13.5622 84.9009 12.7243 84.9009 11.861Z" fill="#7F7E82"/>
<path d="M119.655 9.00464C120.493 9.00464 121.331 9.00464 122.194 9.00464C122.194 9.84254 122.194 10.6804 122.194 11.5437C121.356 11.5437 120.519 11.5437 119.655 11.5437C119.655 10.7058 119.655 9.86793 119.655 9.00464Z" fill="#7F7E82"/>
<path d="M82.0444 9.00464C82.8823 9.00464 83.7202 9.00464 84.5835 9.00464C84.5835 9.84254 84.5835 10.6804 84.5835 11.5437C83.7456 11.5437 82.9077 11.5437 82.0444 11.5437C82.0444 10.7058 82.0444 9.86793 82.0444 9.00464Z" fill="#7F7E82"/>
<path d="M79.0293 9.00464C79.8672 9.00464 80.7051 9.00464 81.5684 9.00464C81.5684 9.84254 81.5684 10.6804 81.5684 11.5437C80.7305 11.5437 79.8926 11.5437 79.0293 11.5437C79.0293 10.7058 79.0293 9.86793 79.0293 9.00464Z" fill="#7F7E82"/>
<path d="M76.1731 9.00464C77.011 9.00464 77.8489 9.00464 78.7122 9.00464C78.7122 9.84254 78.7122 10.6804 78.7122 11.5437C77.8743 11.5437 77.0364 11.5437 76.1731 11.5437C76.1731 10.7058 76.1731 9.86793 76.1731 9.00464Z" fill="#7F7E82"/>
<path d="M128.066 16.6217C128.171 16.6217 128.275 16.6217 128.383 16.6217C128.451 17.475 128.451 17.475 128.16 17.8999C126.801 19.082 124.684 20.4303 122.829 20.4303C122.829 20.2209 122.829 20.0114 122.829 19.7956C122.983 19.7379 123.136 19.6802 123.294 19.6208C126.011 18.5906 126.011 18.5906 128.066 16.6217Z" fill="#7F7E82"/>
</svg>
