<svg width="131" height="35" viewBox="0 0 131 35" fill="none" xmlns="http://www.w3.org/2000/svg">
<path d="M44.8535 25.5592V23.5797L52.2059 16.6841H47.0505V18.0328H44.984V14.7916H54.9685V16.7711L47.6814 23.6232H53.0108V22.2528H55.0773V25.5592H44.8535ZM61.5378 25.7767C60.7765 25.7767 60.0369 25.6244 59.3625 25.3416C58.0139 24.7761 56.948 23.7102 56.3824 22.3615C56.0996 21.6654 55.9474 20.9259 55.9474 20.1863C55.9474 19.4467 56.0996 18.7071 56.3824 18.011C56.948 16.6623 58.0139 15.5965 59.3625 15.0309C60.0586 14.7481 60.7982 14.5958 61.5378 14.5958C62.2774 14.5958 63.0387 14.7481 63.7131 15.0309C65.0617 15.5965 66.1276 16.6623 66.6932 18.011C66.976 18.7071 67.1282 19.4467 67.1282 20.1863C67.1282 20.9259 66.976 21.6654 66.6932 22.3615C66.1276 23.7102 65.0617 24.7761 63.7131 25.3416C63.017 25.6244 62.2774 25.7767 61.5378 25.7767ZM61.5378 23.7102C61.9946 23.7102 62.4297 23.6232 62.8647 23.4492C63.278 23.2751 63.6478 23.0141 63.9741 22.6878C64.2786 22.3615 64.5179 21.9917 64.6919 21.5784C65.0617 20.7083 65.0617 19.7077 64.6919 18.8376C64.5179 18.4243 64.2786 18.0545 63.9741 17.7282C63.6696 17.4019 63.2998 17.1409 62.8865 16.9669C62.4732 16.7929 62.0164 16.6841 61.5596 16.6841C61.1027 16.6841 60.6459 16.7711 60.2326 16.9669C59.406 17.3367 58.7752 18.011 58.4489 18.8376C58.1009 19.7295 58.1009 20.7083 58.4489 21.5784C58.7752 22.405 59.4278 23.0794 60.2326 23.4492C60.6024 23.6232 61.0592 23.7102 61.5378 23.7102ZM73.6105 25.7767C72.8492 25.7767 72.1096 25.6244 71.4353 25.3416C70.0866 24.7761 69.0207 23.7102 68.4551 22.3615C68.1724 21.6654 68.0201 20.9259 68.0201 20.1863C68.0201 19.4467 68.1724 18.7071 68.4551 18.011C69.0207 16.6623 70.0866 15.5965 71.4353 15.0309C72.1313 14.7481 72.8709 14.5958 73.6105 14.5958C74.3501 14.5958 75.1114 14.7481 75.7858 15.0309C77.1344 15.5965 78.2003 16.6623 78.7659 18.011C79.0487 18.7071 79.2009 19.4467 79.2009 20.1863C79.2009 20.9259 79.0487 21.6654 78.7659 22.3615C78.2003 23.7102 77.1344 24.7761 75.7858 25.3416C75.1114 25.6244 74.3719 25.7767 73.6105 25.7767ZM73.6105 23.7102C74.0673 23.7102 74.5024 23.6232 74.9374 23.4492C75.3507 23.2751 75.7205 23.0141 76.0468 22.6878C76.3513 22.3615 76.5906 21.9917 76.7646 21.5784C77.1344 20.7083 77.1344 19.7077 76.7646 18.8376C76.5906 18.4243 76.3513 18.0545 76.0468 17.7282C75.7423 17.4019 75.3725 17.1409 74.9592 16.9669C74.5459 16.7929 74.0891 16.6841 73.6323 16.6841C73.1755 16.6841 72.7187 16.7711 72.3054 16.9669C71.4788 17.3367 70.8479 18.011 70.5216 18.8376C70.1736 19.7295 70.1736 20.7083 70.5216 21.5784C70.8479 22.405 71.5005 23.0794 72.3054 23.4492C72.6969 23.6232 73.1537 23.7102 73.6105 23.7102ZM80.5061 14.8134H82.6379V16.0533C82.9642 15.5965 83.3992 15.2484 83.8995 14.9874C84.4651 14.7046 85.0742 14.5741 85.705 14.5958C86.5751 14.5958 87.2929 14.7699 87.8585 15.0961C88.4241 15.4224 88.8591 15.901 89.1419 16.4883C89.4899 15.9227 89.9685 15.4442 90.5558 15.1179C91.1866 14.7699 91.9262 14.5958 92.6441 14.5958C93.2967 14.5741 93.9492 14.6829 94.5583 14.9221C95.0804 15.1179 95.5372 15.4224 95.9287 15.8357C96.2985 16.249 96.5596 16.7493 96.7336 17.2714C96.9076 17.8805 96.9946 18.5113 96.9946 19.1421V25.5592H94.7758V19.2509C94.7758 18.4243 94.5801 17.75 94.1885 17.2497C93.797 16.7493 93.1879 16.4883 92.3395 16.4883C91.5782 16.4883 90.9474 16.7276 90.4906 17.2279C90.0338 17.7282 89.7945 18.4678 89.7945 19.4467V25.5592H87.6192V19.0986C87.6192 18.272 87.4234 17.6412 87.0536 17.1626C86.6839 16.7058 86.0748 16.4666 85.2482 16.4666C84.4433 16.4666 83.8125 16.7276 83.3557 17.2279C82.8989 17.75 82.6596 18.5113 82.6596 19.5337V25.5592H80.5061V14.8134ZM98.278 11.594C98.278 11.3982 98.2998 11.1807 98.3868 11.0067C98.452 10.8109 98.5608 10.6369 98.7131 10.5063C98.8436 10.3541 99.0176 10.2453 99.2134 10.18C99.4091 10.1148 99.6049 10.0713 99.8007 10.0713C99.9965 10.0713 100.214 10.093 100.41 10.18C100.606 10.2453 100.78 10.3758 100.91 10.5063C101.041 10.6586 101.171 10.8326 101.236 11.0067C101.302 11.2024 101.345 11.3982 101.345 11.594C101.345 11.7897 101.323 12.0073 101.236 12.1813C101.171 12.3771 101.062 12.5511 100.91 12.6816C100.758 12.8339 100.584 12.9426 100.41 13.0079C100.214 13.0732 100.018 13.1167 99.8007 13.1167C99.6049 13.1167 99.3874 13.0949 99.2134 13.0079C99.0176 12.9426 98.8436 12.8121 98.7131 12.6816C98.5826 12.5293 98.4738 12.3553 98.3868 12.1813C98.2998 11.9855 98.278 11.7897 98.278 11.594ZM98.7131 14.8134H100.888V25.5592H98.7131V14.8134ZM102.759 14.8134H104.869V16.2925C105.261 15.7487 105.783 15.3137 106.37 15.0091C106.979 14.7046 107.632 14.5741 108.306 14.5741C108.937 14.5741 109.568 14.6828 110.155 14.9004C110.677 15.0961 111.156 15.4224 111.547 15.8357C111.939 16.2708 112.243 16.7711 112.417 17.3367C112.635 17.9675 112.744 18.6418 112.722 19.3162V25.5592H110.547V19.4902C110.547 18.5766 110.307 17.837 109.85 17.2932C109.394 16.7494 108.698 16.4883 107.806 16.4666C107.414 16.4666 107.023 16.5318 106.653 16.6841C106.305 16.8364 106 17.0321 105.739 17.3149C105.478 17.5977 105.261 17.9457 105.13 18.3155C104.978 18.7288 104.913 19.1639 104.913 19.6207V25.5592H102.759V14.8134ZM113.026 14.8134H114.897V14.2043C114.875 13.5082 114.962 12.8121 115.115 12.116C115.223 11.6157 115.463 11.1589 115.811 10.7891C116.18 10.4411 116.637 10.18 117.116 10.0713C117.79 9.91902 118.508 9.85376 119.204 9.85376H119.726V11.8333H119.356C118.943 11.8333 118.53 11.855 118.116 11.9203C117.855 11.942 117.594 12.0725 117.399 12.2683C117.225 12.4641 117.116 12.7251 117.072 12.9861C117.007 13.3777 116.985 13.791 116.985 14.2043V14.7916H119.509V16.7276H116.985V25.5592H114.875V16.7494H113.005V14.8134H113.026ZM124.903 25.7767C124.142 25.7767 123.402 25.6244 122.706 25.3416C121.358 24.7761 120.313 23.7102 119.726 22.3833C119.443 21.6872 119.291 20.9476 119.291 20.208C119.291 19.4684 119.443 18.7071 119.726 18.0328C120.292 16.6841 121.358 15.6182 122.706 15.0526C123.402 14.7699 124.142 14.6176 124.903 14.6176C125.665 14.6176 126.404 14.7699 127.1 15.0526C128.449 15.6182 129.515 16.6841 130.08 18.0328C130.363 18.7288 130.515 19.4684 130.515 20.208C130.515 20.9476 130.363 21.709 130.08 22.3833C129.515 23.7319 128.449 24.7761 127.1 25.3416C126.404 25.6244 125.665 25.7767 124.903 25.7767ZM124.903 23.7755C125.382 23.7755 125.839 23.6884 126.274 23.4927C126.687 23.3186 127.057 23.0576 127.361 22.7313C127.688 22.405 127.927 22.0135 128.101 21.6002C128.362 20.9476 128.449 20.2298 128.318 19.5119C128.188 18.8159 127.862 18.1633 127.361 17.6412C127.057 17.3149 126.665 17.0539 126.252 16.8799C125.817 16.7058 125.36 16.5971 124.881 16.5971C124.403 16.5971 123.946 16.6841 123.511 16.8799C123.098 17.0539 122.728 17.3149 122.423 17.6412C122.119 17.9675 121.858 18.359 121.706 18.7723C121.358 19.6642 121.358 20.6648 121.706 21.5784C121.88 21.9917 122.119 22.3833 122.423 22.7096C122.728 23.0359 123.098 23.2969 123.511 23.4709C123.968 23.6884 124.446 23.7755 124.903 23.7755Z" fill="#7F7E82"/>
<path d="M0 4.11125C0 1.84897 1.84897 0 4.11125 0H30.8888C33.151 0 35 1.84897 35 4.11125V30.8888C35 33.151 33.151 35 30.8888 35H4.11125C1.84897 35 0 33.151 0 30.8888V4.11125Z" fill="#7F7E82"/>
<path d="M21.2738 9.54895H25.1892C25.3415 9.54895 25.472 9.67947 25.472 9.83174V13.5949C25.472 13.7472 25.3415 13.8777 25.1892 13.8777H24.0799C23.9276 13.8777 23.7971 13.7472 23.7971 13.5949V12.4203L12.0289 23.7752H14.4434C14.5957 23.7752 14.7262 23.9057 14.7262 24.058V25.1674C14.7262 25.3196 14.5957 25.4501 14.4434 25.4501H9.81013C9.65786 25.4501 9.52734 25.3196 9.52734 25.1674V23.7752L22.5789 11.2022H21.252C21.0997 11.2022 20.9692 11.0716 20.9692 10.9194V9.80998C20.991 9.67947 21.1215 9.54895 21.2738 9.54895ZM11.2023 11.1804H18.6199C18.7722 11.1804 18.9027 11.0499 18.9027 10.8976V9.83174C18.9027 9.67947 18.7722 9.54895 18.6199 9.54895H9.81013C9.65786 9.54895 9.52734 9.67947 9.52734 9.83174V13.6602C9.52734 13.8125 9.65786 13.943 9.81013 13.943H10.9195C11.0718 13.943 11.2023 13.8125 11.2023 13.6602V11.1804ZM23.7971 23.7969H17.0755C16.9232 23.7969 16.7927 23.9275 16.7927 24.0797V25.1891C16.7927 25.3414 16.9232 25.4719 17.0755 25.4719H25.1675C25.3198 25.4719 25.4503 25.3414 25.4503 25.1891V21.2519C25.4503 21.0996 25.3198 20.9691 25.1675 20.9691H24.0581C23.9058 20.9691 23.7753 21.0996 23.7753 21.2519V23.7969H23.7971Z" fill="white"/>
</svg>
