<svg xmlns="http://www.w3.org/2000/svg" viewBox="0 0 100 100">
  <defs>
    <linearGradient id="fur" x1="0" y1="0" x2="1" y2="1">
      <stop offset="0" stop-color="#e9eff9"/>
      <stop offset="1" stop-color="#c6d6f1"/>
    </linearGradient>
  </defs>
  <!-- ears (big, close-set) -->
  <polygon points="16,23 28,0 40,15" fill="url(#fur)"/>
  <polygon points="42,13 54,1 60,19" fill="url(#fur)"/>
  <!-- skull + short deep muzzle (profile, facing right) -->
  <polygon points="14,24 56,17 64,24 82,27 87,29 87,33 85,42 62,44 30,47 14,44" fill="url(#fur)"/>
  <!-- lower jaw (gap above = open mouth) -->
  <polygon points="14,48 30,50 60,47 70,50 54,55 14,56" fill="url(#fur)"/>
  <!-- chest band -->
  <polygon points="14,59 52,57.5 38,66 14,68" fill="url(#fur)"/>
  <!-- eye + nose -->
  <polygon points="60,25.5 64.5,29 60,32.5 55.5,29" fill="#0b1424"/>
  <polygon points="82,28.5 87,30 87,34.5 82,33.5" fill="#0b1424"/>
  <!-- data chevrons -->
  <polygon points="14,68 41,75 68,68 68,72.5 41,79.5 14,72.5" fill="#8fb0f2"/>
  <polygon points="14,77 41,84 68,77 68,81.5 41,88.5 14,81.5" fill="#5f8ae4"/>
  <polygon points="14,86 41,93 68,86 68,90.5 41,97.5 14,90.5" fill="#38bdf8"/>
</svg>
