<svg xmlns="http://www.w3.org/2000/svg" viewBox="0 0 100 100">
  <defs>
    <linearGradient id="fur" x1="0" y1="0" x2="1" y2="1">
      <stop offset="0" stop-color="#e9eff9"/>
      <stop offset="1" stop-color="#c6d6f1"/>
    </linearGradient>
  </defs>
  <!-- ears -->
  <polygon points="18,22 30,2 40,16" fill="url(#fur)"/>
  <polygon points="42,14 52,2 58,18" fill="url(#fur)"/>
  <!-- skull + snout (profile, facing right) -->
  <polygon points="16,22 58,18 66,26 86,38 86,43 64,45 30,46 16,44" fill="url(#fur)"/>
  <!-- cheek / jaw band -->
  <polygon points="16,47 30,49 62,48 70,52 54,57 16,55" fill="url(#fur)"/>
  <!-- chest band -->
  <polygon points="16,58 54,59 40,66 16,67" fill="url(#fur)"/>
  <!-- eye + nose -->
  <polygon points="60,25 64.5,28 60,31 55.5,28" fill="#0b1424"/>
  <polygon points="81,37 86,38 86,43 81,42" fill="#0b1424"/>
  <!-- data chevrons -->
  <polygon points="14,68 41,75 68,68 68,72.5 41,79.5 14,72.5" fill="#8fb0f2"/>
  <polygon points="14,77 41,84 68,77 68,81.5 41,88.5 14,81.5" fill="#5f8ae4"/>
  <polygon points="14,86 41,93 68,86 68,90.5 41,97.5 14,90.5" fill="#38bdf8"/>
</svg>
