<svg xmlns="http://www.w3.org/2000/svg" viewBox="0 0 100 100">
  <defs>
    <linearGradient id="fur" x1="0" y1="0" x2="1" y2="1">
      <stop offset="0" stop-color="#a78bfa"/>
      <stop offset="1" stop-color="#8b5cf6"/>
    </linearGradient>
  </defs>
  <!-- ears -->
  <polygon points="24,6 40,23 17,29" fill="url(#fur)"/>
  <polygon points="76,6 60,23 83,29" fill="url(#fur)"/>
  <polygon points="26,12 35,21 22,24" fill="#0c0a14" opacity="0.55"/>
  <polygon points="74,12 65,21 78,24" fill="#0c0a14" opacity="0.55"/>
  <!-- head -->
  <polygon points="20,24 80,24 86,44 68,66 50,76 32,66 14,44" fill="url(#fur)"/>
  <!-- white mask: center blaze + cheeks + muzzle -->
  <polygon points="50,30 56,42 71,47 65,62 50,73 35,62 29,47 44,42" fill="#f3f0f7"/>
  <!-- eyes -->
  <polygon points="32,47.5 40.5,44 41.5,47 33.5,50.5" fill="#22d3ee"/>
  <polygon points="68,47.5 59.5,44 58.5,47 66.5,50.5" fill="#22d3ee"/>
  <!-- nose -->
  <polygon points="50,58.5 55,62.5 50,66.5 45,62.5" fill="#0a0c11"/>
  <!-- data layers -->
  <rect x="33" y="80" width="34" height="4.6" rx="2.3" fill="#22d3ee"/>
  <rect x="26" y="87.2" width="48" height="4.6" rx="2.3" fill="#8b5cf6"/>
  <rect x="19" y="94.4" width="62" height="4.6" rx="2.3" fill="#f3f0f7" opacity="0.92"/>
</svg>
