<svg xmlns="http://www.w3.org/2000/svg" viewBox="0 0 100 100">
  <defs>
    <linearGradient id="fur" x1="0" y1="0" x2="1" y2="1">
      <stop offset="0" stop-color="#e9eff9"/>
      <stop offset="1" stop-color="#c6d6f1"/>
    </linearGradient>
  </defs>
  <!-- ears: tall, sharp, back ear flush with the back edge -->
  <polygon points="10,20 19,1 30,13" fill="url(#fur)"/>
  <polygon points="32,13 41,2 51,15" fill="url(#fur)"/>
  <!-- skull + snout: steep forehead, level snout, nose step, mouth-slit underside -->
  <polygon points="10,20 51,15 63,25 89,33 92.5,35 91.5,40 64,43 56,44 30,47 10,45" fill="url(#fur)"/>
  <!-- jaw band -->
  <polygon points="10,48 68,44.5 82,46 68,51 10,55" fill="url(#fur)"/>
  <!-- chest band -->
  <polygon points="10,58 62,54 50,61 10,65" fill="url(#fur)"/>
  <!-- eye: negative-space diamond -->
  <polygon points="56,21 60.5,24.5 56,28 51.5,24.5" fill="#0b1424"/>
  <!-- data chevrons -->
  <polygon points="10,68 44,76 78,68 78,74 44,82 10,74" fill="#dfe8f6"/>
  <polygon points="10,76.5 44,84.5 78,76.5 78,82.5 44,90.5 10,82.5" fill="#8fb0f2"/>
  <polygon points="10,85 44,93 78,85 78,91 44,99 10,91" fill="#38bdf8"/>
</svg>
