<svg xmlns="http://www.w3.org/2000/svg" viewBox="0 0 644 644"><path fill="#79b3f9" fill-rule="evenodd" d="M187.8 549.2L94.1 488.5L94 470.8L94 453L102.2 458.4C106.8 461.3 149.2 488.8 196.4 519.4C243.7 550 282.8 574.9 283.4 574.7C284 574.4 324.7 551 373.8 522.6C422.8 494.2 463.2 471 463.5 471C463.8 471 464 478.6 464 487.9L464 504.8L373 557.4C323 586.3 281.9 610 281.8 610C281.6 610 239.3 582.6 187.8 549.2ZM189.9 480C139.6 447.5 97.5 420.2 96.2 419.2C93.9 417.5 93.9 417.2 94.2 400.3L94.5 383L187.5 443.2C238.7 476.3 281.2 503.4 282 503.4C282.9 503.4 323.9 480.2 373.2 451.7C422.5 423.3 463.1 400 463.4 400C463.7 400 464 407.6 464 416.8L464 433.7L375.8 484.5C327.2 512.5 286.1 536.2 284.4 537.2L281.3 539L189.9 480ZM245 437.4C223.8 424.4 206.2 413.5 205.9 413.2C205.5 412.8 206 406.9 207.1 400C208.1 393.1 209 386.7 209 385.8C209 384.1 207.4 384 188.7 384L168.5 384L141.7 367.7C127 358.7 114.7 351 114.3 350.7C114 350.3 126 312 141 265.6L168.3 181.2L212.9 157L257.5 132.9L280.5 98.7C310.1 54.6 319.6 44.6 339.2 36.9L344 35L344 76L344 117L350.2 119.9C353.7 121.4 356.8 122.5 357.2 122.1C357.5 121.8 361.5 114.8 366 106.5C375.2 89.8 376.5 87.7 382.8 80.2C386.6 75.6 397.9 66 399.4 66C399.7 66 400.1 82.3 400.2 102.2L400.5 138.3L425.2 151.4L450 164.4L450 181L450 197.5L495.3 214.9C520.1 224.5 542.9 233.4 545.8 234.6L551 236.9L551 246.5C551 255.7 550.8 256.4 546.9 264.3C534.7 288.6 513.9 310.6 491.5 322.4L486.7 325L449 325C406.3 325 410 324.2 410 333.6C410 343.3 412.9 347.2 428.9 359.7C436.6 365.6 442.6 370.8 442.2 371.1C441 372.2 284.7 461 284.1 461C283.8 460.9 266.2 450.3 245 437.4ZM367.2 333.4L402.2 298.9L432.3 299.7C480.3 301 476.1 301.3 487.5 295.6C495.3 291.8 498.8 289.2 504.4 283.6C510.8 277.2 516.1 269.7 515 268.7C514.7 268.5 510 266.6 504.5 264.4L494.5 260.5L494 250.6L493.5 240.8L458.5 228.5L423.5 216.2L423.2 196.6C423.1 185.8 422.8 177 422.6 177C422.5 177 416.3 175.1 408.9 172.8C395.8 168.8 395.1 168.7 381 168.6C367.8 168.6 365.8 168.8 358.5 171.2C354.1 172.7 348 175.5 345 177.4L339.5 180.9L317.1 181C299.7 181 294.9 181.3 295.3 182.2C295.5 182.9 298.5 187.7 301.8 192.9L307.9 202.3L297.4 209.6C291.6 213.6 283.5 219 279.4 221.7L272 226.5L272 255.5L272.1 284.5L301.7 326.2C318.1 349.2 331.6 368 331.8 368C332 368 347.9 352.5 367.2 333.4ZM356.8 215.4C350.8 211.8 346 208.6 346 208.2C346 207.8 349.8 204.7 354.4 201.2L362.7 195L379.6 195.2L396.5 195.5L397.2 200.8C398.1 206.7 400.8 212.6 405.2 218.2L408.2 222L387.8 222L367.5 221.9L356.8 215.4Z"/></svg>